{
classes = (
{
code = "colon exclam period question semicolon quotedblleft quotedblright quoteleft quoteright questiondown exclamdown periodcentered ellipsis comma divide";
name = circular_punctuation;
},
{
code = "colon.ss01 exclam.ss01 period.ss01 question.ss01 semicolon.ss01 quotedblleft.ss01 quotedblright.ss01 quoteleft.ss01 quoteright.ss01 questiondown.ss01 exclamdown.ss01 periodcentered.ss01 ellipsis.ss01 comma.ss01 divide.ss01";
name = square_punctuation;
},
{
code = "a aacute abreve acircumflex adieresis agrave amacron aogonek aring atilde";
name = single_storey_a;
},
{
code = "a.ss02 aacute.ss02 abreve.ss02 acircumflex.ss02 adieresis.ss02 agrave.ss02 amacron.ss02 aogonek.ss02 aring.ss02 atilde.ss02";
name = double_storey_a;
}
);
copyright = "Copyright 2014-2022 Indian Type Foundry. All rights reserved.";
designer = "Jonny Pinhorn";
designerURL = "https://www.indiantypefoundry.com/designers";
familyName = Poppins;
customParameters = (
{
name = glyphOrder;
value = (
.notdef,
A,
Aacute,
Abreve,
Acircumflex,
Adieresis,
Agrave,
Amacron,
Aogonek,
Aring,
Atilde,
AE,
AEacute,
B,
C,
Cacute,
Ccaron,
Ccedilla,
Cdotaccent,
D,
Eth,
Dcaron,
Dcroat,
E,
Eacute,
Ebreve,
Ecaron,
Ecircumflex,
Edieresis,
Edotaccent,
Egrave,
Emacron,
Eogonek,
Etilde,
F,
G,
Gbreve,
Gcommaaccent,
Gdotaccent,
H,
I,
Iacute,
Ibreve,
Icircumflex,
Idieresis,
Idotaccent,
Igrave,
Imacron,
Iogonek,
Itilde,
J,
K,
Kcommaaccent,
L,
Lacute,
Lcaron,
Lcommaaccent,
Ldot,
Lslash,
M,
N,
Nacute,
Ncaron,
Ncommaaccent,
Ntilde,
O,
Oacute,
Obreve,
Ocircumflex,
Odieresis,
Ograve,
Ohungarumlaut,
Omacron,
Oslash,
Otilde,
OE,
P,
Thorn,
Q,
R,
Racute,
Rcaron,
Rcommaaccent,
S,
Sacute,
Scaron,
Scedilla,
Scommaaccent,
T,
Tcaron,
Tcedilla,
Tcommaaccent,
U,
Uacute,
Ubreve,
Ucircumflex,
Udieresis,
Ugrave,
Uhungarumlaut,
Umacron,
Uogonek,
Uring,
Utilde,
V,
W,
Wacute,
Wcircumflex,
Wdieresis,
Wgrave,
X,
Y,
Yacute,
Ycircumflex,
Ydieresis,
Ygrave,
Ytilde,
Z,
Zacute,
Zcaron,
Zdotaccent,
a,
aacute,
abreve,
acircumflex,
adieresis,

glyphs = (
{
glyphname = .notdef;
layers = (
{
layerId = "BB8AC870-C874-407B-AC42-534954A140D1";
paths = (
{
closed = 1;
nodes = (
"0 0 LINE",
"500 0 LINE",
"500 700 LINE",
"0 700 LINE"
);
},
{
closed = 1;
nodes = (
"250 395 LINE",
"80 650 LINE",
"420 650 LINE"
);
},
{
closed = 1;
nodes = (
"280 350 LINE",
"450 605 LINE",
"450 95 LINE"
);
},
{
closed = 1;
nodes = (
"80 50 LINE",
"250 305 LINE",
"420 50 LINE"
);
},
{
closed = 1;
nodes = (
"50 605 LINE",
"220 350 LINE",
"50 95 LINE"
);
}
);
width = 500;
},
{
layerId = "9F449CCD-E345-45F6-B35A-9ED3AC8C514F";
paths = (
{
closed = 1;
nodes = (
"0 0 LINE",
"500 0 LINE",
"500 700 LINE",
"0 700 LINE"
);
},
{
closed = 1;
nodes = (
"250 395 LINE",
"80 650 LINE",
"420 650 LINE"
);
},
{
closed = 1;
nodes = (
"280 350 LINE",
"450 605 LINE",
"450 95 LINE"
);
},
{
closed = 1;
nodes = (
"80 50 LINE",
"250 305 LINE",
"420 50 LINE"
);
},
{
closed = 1;
nodes = (
"50 605 LINE",
"220 350 LINE",
"50 95 LINE"
);
}
);
width = 500;
},
{
layerId = "C750DB68-0E3A-4F82-99EB-66CF08B4C668";
paths = (
{
closed = 1;
nodes = (
"0 0 LINE",
"500 0 LINE",
"500 700 LINE",
"0 700 LINE"
);
},
{
closed = 1;
nodes = (
"250 395 LINE",
"80 650 LINE",
"420 650 LINE"
);
},
{
closed = 1;
nodes = (
"280 350 LINE",
"450 605 LINE",
"450 95 LINE"
);
},
{
closed = 1;
nodes = (
"80 50 LINE",
"250 305 LINE",
"420 50 LINE"
);
},
{
closed = 1;
nodes = (
"50 605 LINE",
"220 350 LINE",
"50 95 LINE"
);
}
);
width = 500;
}
);
},
{
glyphname = A;
layers = (
{
anchors = (
{
name = ogonek;
position = "{773, 0}";
},
{
name = top;
position = "{387, 711}";
}
);
layerId = "BB8AC870-C874-407B-AC42-534954A140D1";
paths = (
{
closed = 1;
nodes = (
"259 708 LINE",
"0 0 LINE",
"233 0 LINE",
"426 593 LINE",
"347 593 LINE",
"539 0 LINE",
"773 0 LINE",
"515 708 LINE"
);
},
{
closed = 1;
nodes = (
"114 107 LINE",
"634 107 LINE",
"579 274 LINE",
"170 274 LINE"
);
}
);
width = 773;
},
{
anchors = (
{
name = ogonek;
position = "{664, 0}";
},
{
name = top;
position = "{349, 696}";
}
);
layerId = "9F449CCD-E345-45F6-B35A-9ED3AC8C514F";
paths = (
{
closed = 1;
nodes = (
"283 696 LINE",
"34 0 LINE",
"153 0 LINE",
"375 634 LINE",
"322 634 LINE",
"544 0 LINE",
"664 0 LINE",
"415 696 LINE"
);
},
{
closed = 1;
nodes = (
"138 142 LINE",
"554 142 LINE",
"524 235 LINE",
"167 235 LINE"
);
}
);
width = 697;
},
{
anchors = (
{
name = ogonek;
position = "{571, 0}";
},
{
name = top;
position = "{301, 683}";
}
);
layerId = "C750DB68-0E3A-4F82-99EB-66CF08B4C668";
paths = (
{
closed = 1;
nodes = (
"291 683 LINE",
"30 0 LINE",
"53 0 LINE",
"308 668 LINE",
"295 668 LINE",
"548 0 LINE",
"571 0 LINE",
"311 683 LINE"
);
},
{
closed = 1;
nodes = (
"117 194 LINE",
"484 194 LINE",
"477 212 LINE",
"123 212 LINE"
);
}
);
width = 601;
}
);
unicode = 0041;
},
{
glyphname = Aacute;
layers = (
{
layerId = "BB8AC870-C874-407B-AC42-534954A140D1";
paths = (
{
closed = 1;
nodes = (
"259 708 LINE",
"0 0 LINE",
"233 0 LINE",
"426 593 LINE",
"347 593 LINE",
"539 0 LINE",
"773 0 LINE",
"515 708 LINE"
);
},
{
closed = 1;
nodes = (
"114 107 LINE",
"634 107 LINE",
"579 274 LINE",
"170 274 LINE"
);
},
{
closed = 1;
nodes = (
"256 897 LINE",
"256 749 LINE",
"515 843 LINE",
"515 1007 LINE"
);
}
);
width = 773;
},
{
layerId = "9F449CCD-E345-45F6-B35A-9ED3AC8C514F";
paths = (
{
closed = 1;
nodes = (
"283 696 LINE",
"34 0 LINE",
"153 0 LINE",
"375 634 LINE",
"322 634 LINE",
"544 0 LINE",
"664 0 LINE",
"415 696 LINE"
);
},
{
closed = 1;
nodes = (
"138 142 LINE",
"554 142 LINE",
"524 235 LINE",
"167 235 LINE"
);
},
{
closed = 1;
nodes = (
"231 819 LINE",
"231 735 LINE",
"452 844 LINE",
"452 941 LINE"
);
}
);
width = 697;
},
{
layerId = "C750DB68-0E3A-4F82-99EB-66CF08B4C668";
paths = (
{
closed = 1;
nodes = (
"291 683 LINE",
"30 0 LINE",
"53 0 LINE",
"308 668 LINE",
"295 668 LINE",
"548 0 LINE",
"571 0 LINE",
"311 683 LINE"
);
},
{
closed = 1;
nodes = (
"117 194 LINE",
"484 194 LINE",
"477 212 LINE",
"123 212 LINE"
);
},
{
closed = 1;
nodes = (
"194 749 LINE",
"194 729 LINE",
"381 859 LINE",
"381 883 LINE"
);
}
);
width = 601;
}
);
unicode = 00C1;
},
{
glyphname = Abreve;
layers = (
{
layerId = "BB8AC870-C874-407B-AC42-534954A140D1";
paths = (
{
closed = 1;
nodes = (
"259 708 LINE",
"0 0 LINE",
"233 0 LINE",
"426 593 LINE",
"347 593 LINE",
"539 0 LINE",
"773 0 LINE",
"515 708 LINE"
);
},
{
closed = 1;
nodes = (
"114 107 LINE",
"634 107 LINE",
"579 274 LINE",
"170 274 LINE"
);
},
{
closed = 1;
nodes = (
"575 967 LINE",
"472 967 LINE",
"472 928 OFFCURVE",
"452 905 OFFCURVE",
"387 905 CURVE SMOOTH",
"322 905 OFFCURVE",
"302 928 OFFCURVE",
"302 967 CURVE",
"199 967 LINE",
"199 950 LINE SMOOTH",
"199 812 OFFCURVE",
"282 747 OFFCURVE",
"387 747 CURVE SMOOTH",
"492 747 OFFCURVE",
"575 812 OFFCURVE",
"575 950 CURVE SMOOTH"
);
}
);
width = 773;
},
{
layerId = "9F449CCD-E345-45F6-B35A-9ED3AC8C514F";
paths = (
{
closed = 1;
nodes = (
"283 696 LINE",
"34 0 LINE",
"153 0 LINE",
"375 634 LINE",
"322 634 LINE",
"544 0 LINE",
"664 0 LINE",
"415 696 LINE"
);
},
{
closed = 1;
nodes = (
"138 142 LINE",
"554 142 LINE",
"524 235 LINE",
"167 235 LINE"
);
},
{
closed = 1;
nodes = (
"500 903 LINE",
"434 903 LINE",
"434 858 OFFCURVE",
"414 831 OFFCURVE",
"349 831 CURVE SMOOTH",
"284 831 OFFCURVE",
"264 858 OFFCURVE",
"264 903 CURVE",
"199 903 LINE",
"199 882 LINE SMOOTH",
"199 799 OFFCURVE",
"255 742 OFFCURVE",
"349 742 CURVE SMOOTH",
"444 742 OFFCURVE",
"500 798 OFFCURVE",
"500 881 CURVE SMOOTH"
);
}
);
width = 697;
},
{
layerId = "C750DB68-0E3A-4F82-99EB-66CF08B4C668";
paths = (
{
closed = 1;
nodes = (
"291 683 LINE",
"30 0 LINE",
"53 0 LINE",
"308 668 LINE",
"295 668 LINE",
"548 0 LINE",
"571 0 LINE",
"311 683 LINE"
);
},
{
closed = 1;
nodes = (
"117 194 LINE",
"484 194 LINE",
"477 212 LINE",
"123 212 LINE"
);
},
{
closed = 1;
nodes = (
"419 867 LINE",
"399 867 LINE",
"399 810 OFFCURVE",
"363 777 OFFCURVE",
"301 777 CURVE SMOOTH",
"239 777 OFFCURVE",
"203 810 OFFCURVE",
"203 867 CURVE",
"183 867 LINE",
"183 863 LINE SMOOTH",
"183 815 OFFCURVE",
"216 759 OFFCURVE",
"301 759 CURVE SMOOTH",
"386 759 OFFCURVE",
"419 815 OFFCURVE",
"419 863 CURVE SMOOTH"
);
}
);
width = 601;
}
);
unicode = 0102;
},
{
glyphname = Acircumflex;
layers = (
{
layerId = "BB8AC870-C874-407B-AC42-534954A140D1";
paths = (
{
closed = 1;
nodes = (
"259 708 LINE",
"0 0 LINE",
"233 0 LINE",
"426 593 LINE",
"347 593 LINE",
"539 0 LINE",
"773 0 LINE",
"515 708 LINE"
);
},
{
closed = 1;
nodes = (
"114 107 LINE",
"634 107 LINE",
"579 274 LINE",
"170 274 LINE"
);
},
{
closed = 1;
nodes = (
"552 893 LINE",
"387 968 LINE",
"221 893 LINE",
"221 749 LINE",
"387 827 LINE",
"552 749 LINE"
);
}
);
width = 773;
},
{
layerId = "9F449CCD-E345-45F6-B35A-9ED3AC8C514F";
paths = (
{
closed = 1;
nodes = (
"283 696 LINE",
"34 0 LINE",
"153 0 LINE",
"375 634 LINE",
"322 634 LINE",
"544 0 LINE",
"664 0 LINE",
"415 696 LINE"
);
},
{
closed = 1;
nodes = (
"138 142 LINE",
"554 142 LINE",
"524 235 LINE",
"167 235 LINE"
);
},
{
closed = 1;
nodes = (
"492 824 LINE",
"349 907 LINE",
"206 824 LINE",
"206 735 LINE",
"349 821 LINE",
"492 735 LINE"
);
}
);
width = 697;
},
{
layerId = "C750DB68-0E3A-4F82-99EB-66CF08B4C668";
paths = (
{
closed = 1;
nodes = (
"291 683 LINE",
"30 0 LINE",
"53 0 LINE",
"308 668 LINE",
"295 668 LINE",
"548 0 LINE",
"571 0 LINE",
"311 683 LINE"
);
},
{
closed = 1;
nodes = (
"117 194 LINE",
"484 194 LINE",
"477 212 LINE",
"123 212 LINE"
);
},
{
closed = 1;
nodes = (
"424 783 LINE",
"301 864 LINE",
"177 783 LINE",
"177 763 LINE",
"301 844 LINE",
"424 763 LINE"
);
}
);
width = 601;
}
);
unicode = 00C2;
},
{
glyphname = Adieresis;
layers = (
{
layerId = "BB8AC870-C874-407B-AC42-534954A140D1";
paths = (
{
closed = 1;
nodes = (
"259 708 LINE",
"0 0 LINE",
"233 0 LINE",
"426 593 LINE",
"347 593 LINE",
"539 0 LINE",
"773 0 LINE",
"515 708 LINE"
);
},
{
closed = 1;
nodes = (
"114 107 LINE",
"634 107 LINE",
"579 274 LINE",
"170 274 LINE"
);
},
{
closed = 1;
nodes = (
"323 767 OFFCURVE",
"360 804 OFFCURVE",
"360 852 CURVE SMOOTH",
"360 902 OFFCURVE",
"323 939 OFFCURVE",
"273 939 CURVE SMOOTH",
"225 939 OFFCURVE",
"188 902 OFFCURVE",
"188 852 CURVE SMOOTH",
"188 804 OFFCURVE",
"225 767 OFFCURVE",
"273 767 CURVE SMOOTH"
);
},
{
closed = 1;
nodes = (
"548 767 OFFCURVE",
"585 804 OFFCURVE",
"585 852 CURVE SMOOTH",
"585 902 OFFCURVE",
"548 939 OFFCURVE",
"498 939 CURVE SMOOTH",
"450 939 OFFCURVE",
"413 902 OFFCURVE",
"413 852 CURVE SMOOTH",
"413 804 OFFCURVE",
"450 767 OFFCURVE",
"498 767 CURVE SMOOTH"
);
}
);
width = 773;
},
{
layerId = "9F449CCD-E345-45F6-B35A-9ED3AC8C514F";
paths = (
{
closed = 1;
nodes = (
"283 696 LINE",
"34 0 LINE",
"153 0 LINE",
"375 634 LINE",
"322 634 LINE",
"544 0 LINE",
"664 0 LINE",
"415 696 LINE"
);
},
{
closed = 1;
nodes = (
"138 142 LINE",
"554 142 LINE",
"524 235 LINE",
"167 235 LINE"
);
},
{
closed = 1;
nodes = (
"296 765 OFFCURVE",
"323 791 OFFCURVE",
"323 825 CURVE SMOOTH",
"323 858 OFFCURVE",
"296 885 OFFCURVE",
"263 885 CURVE SMOOTH",
"229 885 OFFCURVE",
"203 858 OFFCURVE",
"203 825 CURVE SMOOTH",
"203 791 OFFCURVE",
"229 765 OFFCURVE",
"263 765 CURVE SMOOTH"
);
},
{
closed = 1;
nodes = (
"468 765 OFFCURVE",
"495 791 OFFCURVE",
"495 825 CURVE SMOOTH",
"495 858 OFFCURVE",
"468 885 OFFCURVE",
"435 885 CURVE SMOOTH",
"401 885 OFFCURVE",
"375 858 OFFCURVE",
"375 825 CURVE SMOOTH",
"375 791 OFFCURVE",
"401 765 OFFCURVE",
"435 765 CURVE SMOOTH"
);
}
);
width = 697;
},
{
layerId = "C750DB68-0E3A-4F82-99EB-66CF08B4C668";
paths = (
{
closed = 1;
nodes = (
"291 683 LINE",
"30 0 LINE",
"53 0 LINE",
"308 668 LINE",
"295 668 LINE",
"548 0 LINE",
"571 0 LINE",
"311 683 LINE"
);
},
{
closed = 1;
nodes = (
"117 194 LINE",
"484 194 LINE",
"477 212 LINE",
"123 212 LINE"
);
},
{
closed = 1;
nodes = (
"251 770 OFFCURVE",
"265 784 OFFCURVE",
"265 800 CURVE SMOOTH",
"265 816 OFFCURVE",
"251 830 OFFCURVE",
"235 830 CURVE SMOOTH",
"218 830 OFFCURVE",
"205 816 OFFCURVE",
"205 800 CURVE SMOOTH",
"205 784 OFFCURVE",
"218 770 OFFCURVE",
"235 770 CURVE SMOOTH"
);
},
{
closed = 1;
nodes = (
"385 770 OFFCURVE",
"398 784 OFFCURVE",
"398 800 CURVE SMOOTH",
"398 816 OFFCURVE",
"385 830 OFFCURVE",
"369 830 CURVE SMOOTH",
"352 830 OFFCURVE",
"339 816 OFFCURVE",
"339 800 CURVE SMOOTH",
"339 784 OFFCURVE",
"352 770 OFFCURVE",
"369 770 CURVE SMOOTH"
);
}
);
width = 601;
}
);
unicode = 00C4;
},
{
glyphname = Agrave;
layers = (
{
layerId = "BB8AC870-C874-407B-AC42-534954A140D1";
paths = (
{
closed = 1;
nodes = (
"259 708 LINE",
"0 0 LINE",
"233 0 LINE",
"426 593 LINE",
"347 593 LINE",
"539 0 LINE",
"773 0 LINE",
"515 708 LINE"
);
},
{
closed = 1;
nodes = (
"114 107 LINE",
"634 107 LINE",
"579 274 LINE",
"170 274 LINE"
);
},
{
closed = 1;
nodes = (
"256 843 LINE",
"515 749 LINE",
"515 897 LINE",
"256 1007 LINE"
);
}
);
width = 773;
},
{
layerId = "9F449CCD-E345-45F6-B35A-9ED3AC8C514F";
paths = (
{
closed = 1;
nodes = (
"283 696 LINE",
"34 0 LINE",
"153 0 LINE",
"375 634 LINE",
"322 634 LINE",
"544 0 LINE",
"664 0 LINE",
"415 696 LINE"
);
},
{
closed = 1;
nodes = (
"138 142 LINE",
"554 142 LINE",
"524 235 LINE",
"167 235 LINE"
);
},
{
closed = 1;
nodes = (
"231 844 LINE",
"452 735 LINE",
"452 819 LINE",
"231 941 LINE"
);
}
);
width = 697;
},
{
layerId = "C750DB68-0E3A-4F82-99EB-66CF08B4C668";
paths = (
{
closed = 1;
nodes = (
"291 683 LINE",
"30 0 LINE",
"53 0 LINE",
"308 668 LINE",
"295 668 LINE",
"548 0 LINE",
"571 0 LINE",
"311 683 LINE"
);
},
{
closed = 1;
nodes = (
"117 194 LINE",
"484 194 LINE",
"477 212 LINE",
"123 212 LINE"
);
},
{
closed = 1;
nodes = (
"194 859 LINE",
"381 729 LINE",
"381 749 LINE",
"194 883 LINE"
);
}
);
width = 601;
}
);
unicode = 00C0;
},
{
glyphname = Amacron;
layers = (
{
layerId = "BB8AC870-C874-407B-AC42-534954A140D1";
paths = (
{
closed = 1;
nodes = (
"259 708 LINE",
"0 0 LINE",
"233 0 LINE",
"426 593 LINE",
"347 593 LINE",
"539 0 LINE",
"773 0 LINE",
"515 708 LINE"
);
},
{
closed = 1;
nodes = (
"114 107 LINE",
"634 107 LINE",
"579 274 LINE",
"170 274 LINE"
);
},
{
closed = 1;
nodes = (
"172 769 LINE",
"603 769 LINE",
"603 916 LINE",
"172 916 LINE"
);
}
);
width = 773;
},
{
layerId = "9F449CCD-E345-45F6-B35A-9ED3AC8C514F";
paths = (
{
closed = 1;
nodes = (
"283 696 LINE",
"34 0 LINE",
"153 0 LINE",
"375 634 LINE",
"322 634 LINE",
"544 0 LINE",
"664 0 LINE",
"415 696 LINE"
);
},
{
closed = 1;
nodes = (
"138 142 LINE",
"554 142 LINE",
"524 235 LINE",
"167 235 LINE"
);
},
{
closed = 1;
nodes = (
"166 780 LINE",
"532 780 LINE",
"532 865 LINE",
"166 865 LINE"
);
}
);
width = 697;
},
{
layerId = "C750DB68-0E3A-4F82-99EB-66CF08B4C668";
paths = (
{
closed = 1;
nodes = (
"291 683 LINE",
"30 0 LINE",
"53 0 LINE",
"308 668 LINE",
"295 668 LINE",
"548 0 LINE",
"571 0 LINE",
"311 683 LINE"
);
},
{
closed = 1;
nodes = (
"117 194 LINE",
"484 194 LINE",
"477 212 LINE",
"123 212 LINE"
);
},
{
closed = 1;
nodes = (
"146 802 LINE",
"455 802 LINE",
"455 820 LINE",
"146 820 LINE"
);
}
);
width = 601;
}
);
unicode = 0100;
},
{
glyphname = Aogonek;
layers = (
{
layerId = "4DB8C1DB-135D-4124-8C04-65EC99FCBCEB";
name = public.background;
paths = (
{
closed = 1;
nodes = (
"117 194 LINE",
"484 194 LINE",
"477 212 LINE",
"123 212 LINE"
);
},
{
closed = 1;
nodes = (
"30 0 LINE",
"53 0 LINE",
"306 662 LINE",
"296 662 LINE",
"551 -6 LINE",
"557 0 LINE",
"466 0 OFFCURVE",
"428 -42 OFFCURVE",
"428 -95 CURVE",
"428 -148 OFFCURVE",
"466 -190 OFFCURVE",
"543 -190 CURVE",
"611 -190 LINE",
"611 -170 LINE",
"543 -170 LINE SMOOTH",
"484 -170 OFFCURVE",
"448 -142 OFFCURVE",
"448 -95 CURVE",
"448 -48 OFFCURVE",
"484 -20 OFFCURVE",
"543 -20 CURVE SMOOTH",
"571 -20 LINE",
"571 0 LINE",
"311 683 LINE",
"291 683 LINE"
);
}
);
width = 601;
},
{
layerId = "4DB8C1DB-135D-4124-8C04-65EC99FCBCEB";
name = public.background;
paths = (
{
closed = 1;
nodes = (
"138 142 LINE",
"554 142 LINE",
"524 231 LINE",
"167 231 LINE"
);
},
{
closed = 1;
nodes = (
"34 0 LINE",
"153 0 LINE",
"359 586 LINE",
"339 586 LINE",
"553 -24 LINE",
"558 1 LINE",
"501 -7 OFFCURVE",
"464 -42 OFFCURVE",
"464 -96 CURVE SMOOTH",
"464 -165 OFFCURVE",
"521 -205 OFFCURVE",
"592 -205 CURVE SMOOTH",
"698 -205 LINE",
"698 -133 LINE",
"614 -133 LINE SMOOTH",
"579 -133 OFFCURVE",
"558 -126 OFFCURVE",
"558 -96 CURVE SMOOTH",
"558 -66 OFFCURVE",
"579 -60 OFFCURVE",
"614 -60 CURVE SMOOTH",
"664 -60 LINE",
"664 1 LINE",
"415 696 LINE",
"283 696 LINE"
);
}
);
width = 601;
},
{
layerId = "4DB8C1DB-135D-4124-8C04-65EC99FCBCEB";
name = public.background;
paths = (
{
closed = 1;
nodes = (
"114 107 LINE",
"634 107 LINE",
"579 274 LINE",
"170 274 LINE"
);
},
{
closed = 1;
nodes = (
"0 0 LINE",
"233 0 LINE",
"426 593 LINE",
"347 593 LINE",
"549 -30 LINE",
"565 15 LINE",
"515 -13 OFFCURVE",
"494 -49 OFFCURVE",
"494 -97 CURVE",
"494 -192 OFFCURVE",
"577 -219 OFFCURVE",
"644 -219 CURVE",
"812 -219 LINE",
"812 -106 LINE",
"667 -106 LINE SMOOTH",
"651 -106 OFFCURVE",
"641 -100 OFFCURVE",
"641 -90 CURVE SMOOTH",
"641 -80 OFFCURVE",
"651 -75 OFFCURVE",
"667 -75 CURVE SMOOTH",
"767 -75 LINE",
"767 15 LINE",
"515 708 LINE",
"259 708 LINE"
);
}
);
width = 601;
},
{
layerId = "1CA03171-D508-4C96-BFB0-287DDE00C7FD";
name = "Sep 20 17, 19:55";
paths = (
{
closed = 1;
nodes = (
"117 194 LINE",
"484 194 LINE",
"477 212 LINE",
"123 212 LINE"
);
},
{
closed = 1;
nodes = (
"30 0 LINE",
"53 0 LINE",
"306 662 LINE",
"296 662 LINE",
"551 -6 LINE",
"557 0 LINE",
"466 0 OFFCURVE",
"428 -42 OFFCURVE",
"428 -95 CURVE",
"428 -148 OFFCURVE",
"466 -190 OFFCURVE",
"543 -190 CURVE",
"611 -190 LINE",
"611 -170 LINE",
"543 -170 LINE SMOOTH",
"484 -170 OFFCURVE",
"448 -142 OFFCURVE",
"448 -95 CURVE",
"448 -48 OFFCURVE",
"484 -20 OFFCURVE",
"543 -20 CURVE SMOOTH",
"571 -20 LINE",
"571 0 LINE",
"311 683 LINE",
"291 683 LINE"
);
}
);
width = 601;
},
{
layerId = "4DB8C1DB-135D-4124-8C04-65EC99FCBCEB";
name = public.background;
paths = (
{
closed = 1;
nodes = (
"114 107 LINE",
"634 107 LINE",
"579 274 LINE",
"170 274 LINE"
);
},
{
closed = 1;
nodes = (
"0 0 LINE",
"233 0 LINE",
"426 593 LINE",
"347 593 LINE",
"549 -30 LINE",
"565 15 LINE",
"515 -13 OFFCURVE",
"494 -49 OFFCURVE",
"494 -97 CURVE",
"494 -192 OFFCURVE",
"577 -219 OFFCURVE",
"644 -219 CURVE",
"812 -219 LINE",
"812 -106 LINE",
"667 -106 LINE SMOOTH",
"651 -106 OFFCURVE",
"641 -100 OFFCURVE",
"641 -90 CURVE SMOOTH",
"641 -80 OFFCURVE",
"651 -75 OFFCURVE",
"667 -75 CURVE SMOOTH",
"767 -75 LINE",
"767 15 LINE",
"515 708 LINE",
"259 708 LINE"
);
}
);
width = 601;
},
{
anchors = (
{
name = _ogonek;
position = "{773, 0}";
}
);
layerId = "BB8AC870-C874-407B-AC42-534954A140D1";
paths = (
{
closed = 1;
nodes = (
"694 90 LINE SMOOTH",
"538 27 OFFCURVE",
"499 -26 OFFCURVE",
"499 -97 CURVE SMOOTH",
"499 -177 OFFCURVE",
"559 -223 OFFCURVE",
"659 -223 CURVE SMOOTH",
"702 -223 OFFCURVE",
"740 -217 OFFCURVE",
"773 -207 CURVE",
"773 -91 LINE",
"740 -102 OFFCURVE",
"713 -107 OFFCURVE",
"691 -107 CURVE SMOOTH",
"667 -107 OFFCURVE",
"654 -98 OFFCURVE",
"654 -82 CURVE SMOOTH",
"654 -66 OFFCURVE",
"666 -46 OFFCURVE",
"729 -19 CURVE SMOOTH",
"773 0 LINE",
"731 105 LINE"
);
},
{
closed = 1;
nodes = (
"259 708 LINE",
"0 0 LINE",
"233 0 LINE",
"426 593 LINE",
"347 593 LINE",
"539 0 LINE",
"773 0 LINE",
"515 708 LINE"
);
},
{
closed = 1;
nodes = (
"114 107 LINE",
"634 107 LINE",
"579 274 LINE",
"170 274 LINE"
);
}
);
width = 773;
},
{
layerId = "4DB8C1DB-135D-4124-8C04-65EC99FCBCEB";
name = public.background;
paths = (
{
closed = 1;
nodes = (
"138 142 LINE",
"554 142 LINE",
"524 231 LINE",
"167 231 LINE"
);
},
{
closed = 1;
nodes = (
"34 0 LINE",
"153 0 LINE",
"359 586 LINE",
"339 586 LINE",
"553 -24 LINE",
"558 1 LINE",
"501 -7 OFFCURVE",
"464 -42 OFFCURVE",
"464 -96 CURVE SMOOTH",
"464 -165 OFFCURVE",
"521 -205 OFFCURVE",
"592 -205 CURVE SMOOTH",
"698 -205 LINE",
"698 -133 LINE",
"614 -133 LINE SMOOTH",
"579 -133 OFFCURVE",
"558 -126 OFFCURVE",
"558 -96 CURVE SMOOTH",
"558 -66 OFFCURVE",
"579 -60 OFFCURVE",
"614 -60 CURVE SMOOTH",
"664 -60 LINE",
"664 1 LINE",
"415 696 LINE",
"283 696 LINE"
);
}
);
width = 601;
},
{
anchors = (
{
name = _ogonek;
position = "{664, 0}";
}
);
layerId = "9F449CCD-E345-45F6-B35A-9ED3AC8C514F";
paths = (
{
closed = 1;
nodes = (
"592 39 LINE SMOOTH",
"498 -4 OFFCURVE",
"465 -52 OFFCURVE",
"465 -103 CURVE SMOOTH",
"465 -183 OFFCURVE",
"535 -211 OFFCURVE",
"598 -211 CURVE SMOOTH",
"627 -211 OFFCURVE",
"656 -205 OFFCURVE",
"679 -196 CURVE",
"679 -123 LINE",
"656 -132 OFFCURVE",
"632 -137 OFFCURVE",
"613 -137 CURVE SMOOTH",
"579 -137 OFFCURVE",
"558 -119 OFFCURVE",
"558 -91 CURVE SMOOTH",
"558 -67 OFFCURVE",
"572 -47 OFFCURVE",
"615 -25 CURVE SMOOTH",
"664 0 LINE",
"634 58 LINE"
);
},
{
closed = 1;
nodes = (
"283 696 LINE",
"34 0 LINE",
"153 0 LINE",
"375 634 LINE",
"322 634 LINE",
"544 0 LINE",
"664 0 LINE",
"415 696 LINE"
);
},
{
closed = 1;
nodes = (
"138 142 LINE",
"554 142 LINE",
"524 235 LINE",
"167 235 LINE"
);
}
);
width = 697;
},
{
layerId = "4DB8C1DB-135D-4124-8C04-65EC99FCBCEB";
name = public.background;
paths = (
{
closed = 1;
nodes = (
"117 194 LINE",
"484 194 LINE",
"477 212 LINE",
"123 212 LINE"
);
},
{
closed = 1;
nodes = (
"30 0 LINE",
"53 0 LINE",
"306 662 LINE",
"296 662 LINE",
"551 -6 LINE",
"557 0 LINE",
"466 0 OFFCURVE",
"428 -42 OFFCURVE",
"428 -95 CURVE",
"428 -148 OFFCURVE",
"466 -190 OFFCURVE",
"543 -190 CURVE",
"611 -190 LINE",
"611 -170 LINE",
"543 -170 LINE SMOOTH",
"484 -170 OFFCURVE",
"448 -142 OFFCURVE",
"448 -95 CURVE",
"448 -48 OFFCURVE",
"484 -20 OFFCURVE",
"543 -20 CURVE SMOOTH",
"571 -20 LINE",
"571 0 LINE",
"311 683 LINE",
"291 683 LINE"
);
}
);
width = 601;
},
{
anchors = (
{
name = _ogonek;
position = "{571, 0}";
}
);
layerId = "C750DB68-0E3A-4F82-99EB-66CF08B4C668";
paths = (
{
closed = 1;
nodes = (
"495 -16 LINE SMOOTH",
"433 -44 OFFCURVE",
"409 -78 OFFCURVE",
"409 -116 CURVE SMOOTH",
"409 -167 OFFCURVE",
"448 -190 OFFCURVE",
"499 -190 CURVE SMOOTH",
"518 -190 OFFCURVE",
"540 -186 OFFCURVE",
"561 -178 CURVE",
"561 -158 LINE",
"540 -166 OFFCURVE",
"518 -171 OFFCURVE",
"498 -171 CURVE SMOOTH",
"459 -171 OFFCURVE",
"429 -154 OFFCURVE",
"429 -115 CURVE SMOOTH",
"429 -86 OFFCURVE",
"447 -57 OFFCURVE",
"499 -33 CURVE SMOOTH",
"571 0 LINE",
"564 15 LINE"
);
},
{
closed = 1;
nodes = (
"291 683 LINE",
"30 0 LINE",
"53 0 LINE",
"308 668 LINE",
"295 668 LINE",
"548 0 LINE",
"571 0 LINE",
"311 683 LINE"
);
},
{
closed = 1;
nodes = (
"117 194 LINE",
"484 194 LINE",
"477 212 LINE",
"123 212 LINE"
);
}
);
width = 601;
}
);
unicode = 0104;
},
{
glyphname = Aring;
layers = (
{
layerId = "BB8AC870-C874-407B-AC42-534954A140D1";
paths = (
{
closed = 1;
nodes = (
"259 708 LINE",
"0 0 LINE",
"233 0 LINE",
"426 593 LINE",
"347 593 LINE",
"539 0 LINE",
"773 0 LINE",
"515 708 LINE"
);
},
{
closed = 1;
nodes = (
"114 107 LINE",
"634 107 LINE",
"579 274 LINE",
"170 274 LINE"
);
},
{
closed = 1;
nodes = (
"519 954 OFFCURVE",
"460 1004 OFFCURVE",
"387 1004 CURVE SMOOTH",
"314 1004 OFFCURVE",
"255 954 OFFCURVE",
"255 872 CURVE SMOOTH",
"255 790 OFFCURVE",
"314 740 OFFCURVE",
"387 740 CURVE SMOOTH",
"460 740 OFFCURVE",
"519 790 OFFCURVE",
"519 872 CURVE SMOOTH"
);
},
{
closed = 1;
nodes = (
"433 844 OFFCURVE",
"413 825 OFFCURVE",
"387 825 CURVE SMOOTH",
"361 825 OFFCURVE",
"341 844 OFFCURVE",
"341 872 CURVE SMOOTH",
"341 901 OFFCURVE",
"361 919 OFFCURVE",
"387 919 CURVE SMOOTH",
"413 919 OFFCURVE",
"433 901 OFFCURVE",
"433 872 CURVE SMOOTH"
);
}
);
width = 773;
},
{
layerId = "9F449CCD-E345-45F6-B35A-9ED3AC8C514F";
paths = (
{
closed = 1;
nodes = (
"283 696 LINE",
"34 0 LINE",
"153 0 LINE",
"375 634 LINE",
"322 634 LINE",
"544 0 LINE",
"664 0 LINE",
"415 696 LINE"
);
},
{
closed = 1;
nodes = (
"138 142 LINE",
"554 142 LINE",
"524 235 LINE",
"167 235 LINE"
);
},
{
closed = 1;
nodes = (
"462 927 OFFCURVE",
"412 969 OFFCURVE",
"349 969 CURVE SMOOTH",
"288 969 OFFCURVE",
"237 927 OFFCURVE",
"237 859 CURVE SMOOTH",
"237 792 OFFCURVE",
"288 750 OFFCURVE",
"349 750 CURVE SMOOTH",
"412 750 OFFCURVE",
"462 792 OFFCURVE",
"462 859 CURVE SMOOTH"
);
},
{
closed = 1;
nodes = (
"398 830 OFFCURVE",
"376 809 OFFCURVE",
"349 809 CURVE SMOOTH",
"323 809 OFFCURVE",
"301 830 OFFCURVE",
"301 860 CURVE SMOOTH",
"301 891 OFFCURVE",
"323 911 OFFCURVE",
"349 911 CURVE SMOOTH",
"376 911 OFFCURVE",
"398 891 OFFCURVE",
"398 860 CURVE SMOOTH"
);
}
);
width = 697;
},
{
layerId = "C750DB68-0E3A-4F82-99EB-66CF08B4C668";
paths = (
{
closed = 1;
nodes = (
"291 683 LINE",
"30 0 LINE",
"53 0 LINE",
"308 668 LINE",
"295 668 LINE",
"548 0 LINE",
"571 0 LINE",
"311 683 LINE"
);
},
{
closed = 1;
nodes = (
"117 194 LINE",
"484 194 LINE",
"477 212 LINE",
"123 212 LINE"
);
},
{
closed = 1;
nodes = (
"391 904 OFFCURVE",
"350 938 OFFCURVE",
"301 938 CURVE SMOOTH",
"252 938 OFFCURVE",
"211 904 OFFCURVE",
"211 848 CURVE SMOOTH",
"211 792 OFFCURVE",
"252 758 OFFCURVE",
"301 758 CURVE SMOOTH",
"350 758 OFFCURVE",
"391 792 OFFCURVE",
"391 848 CURVE SMOOTH"
);
},
{
closed = 1;
nodes = (
"371 803 OFFCURVE",
"341 776 OFFCURVE",
"301 776 CURVE SMOOTH",
"261 776 OFFCURVE",
"231 803 OFFCURVE",
"231 848 CURVE SMOOTH",
"231 893 OFFCURVE",
"261 920 OFFCURVE",
"301 920 CURVE SMOOTH",
"341 920 OFFCURVE",
"371 893 OFFCURVE",
"371 848 CURVE SMOOTH"
);
}
);
width = 601;
}
);
unicode = 00C5;
},
{
glyphname = Atilde;
layers = (
{
layerId = "BB8AC870-C874-407B-AC42-534954A140D1";
paths = (
{
closed = 1;
nodes = (
"259 708 LINE",
"0 0 LINE",
"233 0 LINE",
"426 593 LINE",
"347 593 LINE",
"539 0 LINE",
"773 0 LINE",
"515 708 LINE"
);
},
{
closed = 1;
nodes = (
"114 107 LINE",
"634 107 LINE",
"579 274 LINE",
"170 274 LINE"
);
},
{
closed = 1;
nodes = (
"261 749 LINE",
"267 782 OFFCURVE",
"282 796 OFFCURVE",
"306 796 CURVE SMOOTH",
"346 796 OFFCURVE",
"385 751 OFFCURVE",
"450 751 CURVE SMOOTH",
"532 751 OFFCURVE",
"589 798 OFFCURVE",
"611 926 CURVE",
"502 926 LINE",
"497 894 OFFCURVE",
"482 879 OFFCURVE",
"458 879 CURVE SMOOTH",
"418 879 OFFCURVE",
"379 925 OFFCURVE",
"314 925 CURVE SMOOTH",
"232 925 OFFCURVE",
"175 877 OFFCURVE",
"153 749 CURVE"
);
}
);
width = 773;
},
{
layerId = "9F449CCD-E345-45F6-B35A-9ED3AC8C514F";
paths = (
{
closed = 1;
nodes = (
"283 696 LINE",
"34 0 LINE",
"153 0 LINE",
"375 634 LINE",
"322 634 LINE",
"544 0 LINE",
"664 0 LINE",
"415 696 LINE"
);
},
{
closed = 1;
nodes = (
"138 142 LINE",
"554 142 LINE",
"524 235 LINE",
"167 235 LINE"
);
},
{
closed = 1;
nodes = (
"250 753 LINE",
"254 782 OFFCURVE",
"271 796 OFFCURVE",
"293 796 CURVE SMOOTH",
"333 796 OFFCURVE",
"355 751 OFFCURVE",
"409 751 CURVE SMOOTH",
"467 751 OFFCURVE",
"511 789 OFFCURVE",
"522 868 CURVE",
"458 868 LINE",
"454 839 OFFCURVE",
"437 826 OFFCURVE",
"415 826 CURVE SMOOTH",
"375 826 OFFCURVE",
"353 870 OFFCURVE",
"299 870 CURVE SMOOTH",
"241 870 OFFCURVE",
"197 832 OFFCURVE",
"186 753 CURVE"
);
}
);
width = 697;
},
{
layerId = "C750DB68-0E3A-4F82-99EB-66CF08B4C668";
paths = (
{
closed = 1;
nodes = (
"291 683 LINE",
"30 0 LINE",
"53 0 LINE",
"308 668 LINE",
"295 668 LINE",
"548 0 LINE",
"571 0 LINE",
"311 683 LINE"
);
},
{
closed = 1;
nodes = (
"117 194 LINE",
"484 194 LINE",
"477 212 LINE",
"123 212 LINE"
);
},
{
closed = 1;
nodes = (
"223 747 LINE",
"227 780 OFFCURVE",
"242 795 OFFCURVE",
"265 795 CURVE SMOOTH",
"307 795 OFFCURVE",
"321 745 OFFCURVE",
"373 745 CURVE SMOOTH",
"407 745 OFFCURVE",
"433 774 OFFCURVE",
"435 810 CURVE",
"417 810 LINE",
"413 779 OFFCURVE",
"394 763 OFFCURVE",
"373 763 CURVE SMOOTH",
"326 763 OFFCURVE",
"315 813 OFFCURVE",
"265 813 CURVE SMOOTH",
"231 813 OFFCURVE",
"210 787 OFFCURVE",
"205 747 CURVE"
);
}
);
width = 601;
}
);
unicode = 00C3;
},
{
glyphname = AE;
layers = (
{
layerId = "BB8AC870-C874-407B-AC42-534954A140D1";
paths = (
{
closed = 1;
nodes = (
"155 97 LINE",
"598 97 LINE",
"598 264 LINE",
"248 264 LINE"
);
},
{
closed = 1;
nodes = (
"952 532 LINE",
"952 708 LINE",
"339 708 LINE",
"0 0 LINE",
"241 0 LINE",
"490 537 LINE",
"490 0 LINE",
"952 0 LINE",
"952 177 LINE",
"712 177 LINE",
"712 280 LINE",
"922 280 LINE",
"922 447 LINE",
"712 447 LINE",
"712 532 LINE"
);
}
);
width = 986;
},
{
layerId = "9F449CCD-E345-45F6-B35A-9ED3AC8C514F";
paths = (
{
closed = 1;
nodes = (
"152 142 LINE",
"525 142 LINE",
"525 231 LINE",
"202 231 LINE"
);
},
{
closed = 1;
nodes = (
"855 607 LINE",
"855 696 LINE",
"395 696 LINE",
"12 0 LINE",
"136 0 LINE",
"472 617 LINE",
"472 0 LINE",
"855 0 LINE",
"855 89 LINE",
"586 89 LINE",
"586 308 LINE",
"825 308 LINE",
"825 396 LINE",
"586 396 LINE",
"586 607 LINE"
);
}
);
width = 921;
},
{
layerId = "C750DB68-0E3A-4F82-99EB-66CF08B4C668";
paths = (
{
closed = 1;
nodes = (
"137 194 LINE",
"450 194 LINE",
"450 212 LINE",
"143 212 LINE"
);
},
{
closed = 1;
nodes = (
"787 686 LINE",
"787 704 LINE",
"443 704 LINE",
"10 0 LINE",
"33 0 LINE",
"443 667 LINE",
"443 0 LINE",
"787 0 LINE",
"787 18 LINE",
"463 18 LINE",
"463 343 LINE",
"757 343 LINE",
"757 361 LINE",
"463 361 LINE",
"463 686 LINE"
);
}
);
width = 837;
}
);
unicode = 00C6;
},
{
glyphname = AEacute;
layers = (
{
layerId = "BB8AC870-C874-407B-AC42-534954A140D1";
paths = (
{
closed = 1;
nodes = (
"155 97 LINE",
"598 97 LINE",
"598 264 LINE",
"248 264 LINE"
);
},
{
closed = 1;
nodes = (
"952 532 LINE",
"952 708 LINE",
"339 708 LINE",
"0 0 LINE",
"241 0 LINE",
"490 537 LINE",
"490 0 LINE",
"952 0 LINE",
"952 177 LINE",
"712 177 LINE",
"712 280 LINE",
"922 280 LINE",
"922 447 LINE",
"712 447 LINE",
"712 532 LINE"
);
},
{
closed = 1;
nodes = (
"347 894 LINE",
"347 746 LINE",
"606 840 LINE",
"606 1004 LINE"
);
}
);
width = 986;
},
{
guideLines = (
{
position = "{0, 748}";
}
);
layerId = "9F449CCD-E345-45F6-B35A-9ED3AC8C514F";
paths = (
{
closed = 1;
nodes = (
"152 142 LINE",
"525 142 LINE",
"525 231 LINE",
"202 231 LINE"
);
},
{
closed = 1;
nodes = (
"855 607 LINE",
"855 696 LINE",
"395 696 LINE",
"12 0 LINE",
"136 0 LINE",
"472 617 LINE",
"472 0 LINE",
"855 0 LINE",
"855 89 LINE",
"586 89 LINE",
"586 308 LINE",
"825 308 LINE",
"825 396 LINE",
"586 396 LINE",
"586 607 LINE"
);
},
{
closed = 1;
nodes = (
"440 821 LINE",
"440 737 LINE",
"661 846 LINE",
"661 943 LINE"
);
}
);
width = 921;
},
{
layerId = "C750DB68-0E3A-4F82-99EB-66CF08B4C668";
paths = (
{
closed = 1;
nodes = (
"137 194 LINE",
"450 194 LINE",
"450 212 LINE",
"143 212 LINE"
);
},
{
closed = 1;
nodes = (
"787 686 LINE",
"787 704 LINE",
"443 704 LINE",
"10 0 LINE",
"33 0 LINE",
"443 667 LINE",
"443 0 LINE",
"787 0 LINE",
"787 18 LINE",
"463 18 LINE",
"463 343 LINE",
"757 343 LINE",
"757 361 LINE",
"463 361 LINE",
"463 686 LINE"
);
},
{
closed = 1;
nodes = (
"456 770 LINE",
"456 750 LINE",
"643 880 LINE",
"643 904 LINE"
);
}
);
width = 837;
}
);
unicode = 01FC;
},
{
glyphname = B;
layers = (
{
layerId = "4DB8C1DB-135D-4124-8C04-65EC99FCBCEB";
name = public.background;
paths = (
{
closed = 1;
nodes = (
"474 437 OFFCURVE",
"412 376 OFFCURVE",
"293 376 CURVE SMOOTH",
"105 376 LINE",
"105 684 LINE",
"287 684 LINE SMOOTH",
"419 684 OFFCURVE",
"474 620 OFFCURVE",
"474 532 CURVE"
);
},
{
closed = 1;
nodes = (
"510 293 OFFCURVE",
"426 369 OFFCURVE",
"320 369 CURVE",
"312 361 LINE",
"402 362 OFFCURVE",
"494 411 OFFCURVE",
"494 532 CURVE",
"494 628 OFFCURVE",
"434 704 OFFCURVE",
"287 704 CURVE SMOOTH",
"85 704 LINE",
"85 0 LINE",
"287 0 LINE SMOOTH",
"439 0 OFFCURVE",
"510 84 OFFCURVE",
"510 188 CURVE SMOOTH"
);
},
{
closed = 1;
nodes = (
"490 84 OFFCURVE",
"415 20 OFFCURVE",
"287 20 CURVE SMOOTH",
"105 20 LINE",
"105 356 LINE",
"285 356 LINE SMOOTH",
"413 356 OFFCURVE",
"490 290 OFFCURVE",
"490 188 CURVE SMOOTH"
);
}
);
width = 560;
},
{
layerId = "4DB8C1DB-135D-4124-8C04-65EC99FCBCEB";
name = public.background;
paths = (
{
closed = 1;
nodes = (
"449 438 OFFCURVE",
"404 400 OFFCURVE",
"330 400 CURVE SMOOTH",
"189 400 LINE",
"189 606 LINE",
"330 606 LINE SMOOTH",
"404 606 OFFCURVE",
"449 567 OFFCURVE",
"449 502 CURVE SMOOTH"
);
},
{
closed = 1;
nodes = (
"581 275 OFFCURVE",
"511 356 OFFCURVE",
"403 359 CURVE",
"386 347 LINE",
"495 364 OFFCURVE",
"565 417 OFFCURVE",
"565 511 CURVE SMOOTH",
"565 614 OFFCURVE",
"487 695 OFFCURVE",
"340 695 CURVE SMOOTH",
"75 695 LINE",
"75 0 LINE",
"353 0 LINE SMOOTH",
"495 0 OFFCURVE",
"581 79 OFFCURVE",
"581 183 CURVE SMOOTH"
);
},
{
closed = 1;
nodes = (
"467 130 OFFCURVE",
"420 89 OFFCURVE",
"343 89 CURVE SMOOTH",
"189 89 LINE",
"189 311 LINE",
"339 311 LINE SMOOTH",
"415 311 OFFCURVE",
"467 268 OFFCURVE",
"467 199 CURVE SMOOTH"
);
}
);
width = 560;
},
{
layerId = "16F16D56-36D1-4955-BFBA-EEE66EB77EA0";
name = "Sep 19 17, 17:06.1";
paths = (
{
closed = 1;
nodes = (
"474 437 OFFCURVE",
"412 376 OFFCURVE",
"293 376 CURVE SMOOTH",
"105 376 LINE",
"105 684 LINE",
"287 684 LINE SMOOTH",
"419 684 OFFCURVE",
"474 620 OFFCURVE",
"474 532 CURVE"
);
},
{
closed = 1;
nodes = (
"510 293 OFFCURVE",
"426 369 OFFCURVE",
"320 369 CURVE",
"312 361 LINE",
"402 362 OFFCURVE",
"494 411 OFFCURVE",
"494 532 CURVE",
"494 628 OFFCURVE",
"434 704 OFFCURVE",
"287 704 CURVE SMOOTH",
"85 704 LINE",
"85 0 LINE",
"287 0 LINE SMOOTH",
"439 0 OFFCURVE",
"510 84 OFFCURVE",
"510 188 CURVE SMOOTH"
);
},
{
closed = 1;
nodes = (
"490 84 OFFCURVE",
"415 20 OFFCURVE",
"287 20 CURVE SMOOTH",
"105 20 LINE",
"105 356 LINE",
"285 356 LINE SMOOTH",
"413 356 OFFCURVE",
"490 290 OFFCURVE",
"490 188 CURVE SMOOTH"
);
}
);
width = 560;
},
{
layerId = "CBEAFAC5-55F2-4742-B265-D5A36899D491";
name = "Sep 19 17, 17:06";
paths = (
{
closed = 1;
nodes = (
"449 438 OFFCURVE",
"404 400 OFFCURVE",
"330 400 CURVE SMOOTH",
"189 400 LINE",
"189 606 LINE",
"330 606 LINE SMOOTH",
"404 606 OFFCURVE",
"449 567 OFFCURVE",
"449 502 CURVE SMOOTH"
);
},
{
closed = 1;
nodes = (
"581 275 OFFCURVE",
"511 356 OFFCURVE",
"403 359 CURVE",
"386 347 LINE",
"495 364 OFFCURVE",
"565 417 OFFCURVE",
"565 511 CURVE SMOOTH",
"565 614 OFFCURVE",
"487 695 OFFCURVE",
"340 695 CURVE SMOOTH",
"75 695 LINE",
"75 0 LINE",
"353 0 LINE SMOOTH",
"495 0 OFFCURVE",
"581 79 OFFCURVE",
"581 183 CURVE SMOOTH"
);
},
{
closed = 1;
nodes = (
"467 130 OFFCURVE",
"420 89 OFFCURVE",
"343 89 CURVE SMOOTH",
"189 89 LINE",
"189 311 LINE",
"339 311 LINE SMOOTH",
"415 311 OFFCURVE",
"467 268 OFFCURVE",
"467 199 CURVE SMOOTH"
);
}
);
width = 630;
},
{
layerId = "BB8AC870-C874-407B-AC42-534954A140D1";
paths = (
{
closed = 1;
nodes = (
"417 446.596 OFFCURVE",
"398 432 OFFCURVE",
"358 432 CURVE SMOOTH",
"272 432 LINE",
"272 532 LINE",
"358 532 LINE SMOOTH",
"398 532 OFFCURVE",
"417 515.641 OFFCURVE",
"417 481 CURVE SMOOTH"
);
},
{
closed = 1;
nodes = (
"659 285 OFFCURVE",
"595 364 OFFCURVE",
"481 369 CURVE",
"464 357 LINE",
"563 352 OFFCURVE",
"643 416 OFFCURVE",
"643 524 CURVE SMOOTH",
"643 647 OFFCURVE",
"552 708 OFFCURVE",
"411 708 CURVE SMOOTH",
"50 708 LINE",
"50 0 LINE",
"421 0 LINE SMOOTH",
"575 0 OFFCURVE",
"659 70 OFFCURVE",
"659 194 CURVE SMOOTH"
);
},
{
closed = 1;
nodes = (
"432 192.412 OFFCURVE",
"413 178 OFFCURVE",
"373 178 CURVE SMOOTH",
"272 178 LINE",
"272 278 LINE",
"373 278 LINE SMOOTH",
"413 278 OFFCURVE",
"432 261.347 OFFCURVE",
"432 227 CURVE SMOOTH"
);
}
);
width = 684;
},
{
layerId = "4DB8C1DB-135D-4124-8C04-65EC99FCBCEB";
name = public.background;
paths = (
{
closed = 1;
nodes = (
"449 438 OFFCURVE",
"404 400 OFFCURVE",
"330 400 CURVE SMOOTH",
"189 400 LINE",
"189 606 LINE",
"330 606 LINE SMOOTH",
"404 606 OFFCURVE",
"449 567 OFFCURVE",
"449 502 CURVE SMOOTH"
);
},
{
closed = 1;
nodes = (
"581 275 OFFCURVE",
"511 356 OFFCURVE",
"403 359 CURVE",
"386 347 LINE",
"495 364 OFFCURVE",
"565 417 OFFCURVE",
"565 511 CURVE SMOOTH",
"565 614 OFFCURVE",
"487 695 OFFCURVE",
"340 695 CURVE SMOOTH",
"75 695 LINE",
"75 0 LINE",
"353 0 LINE SMOOTH",
"495 0 OFFCURVE",
"581 79 OFFCURVE",
"581 183 CURVE SMOOTH"
);
},
{
closed = 1;
nodes = (
"467 130 OFFCURVE",
"420 89 OFFCURVE",
"343 89 CURVE SMOOTH",
"189 89 LINE",
"189 311 LINE",
"339 311 LINE SMOOTH",
"415 311 OFFCURVE",
"467 268 OFFCURVE",
"467 199 CURVE SMOOTH"
);
}
);
width = 560;
},
{
layerId = "9F449CCD-E345-45F6-B35A-9ED3AC8C514F";
paths = (
{
closed = 1;
nodes = (
"449 438 OFFCURVE",
"404 403 OFFCURVE",
"330 403 CURVE SMOOTH",
"189 403 LINE",
"189 602 LINE",
"330 602 LINE SMOOTH",
"404 602 OFFCURVE",
"449 565 OFFCURVE",
"449 502 CURVE SMOOTH"
);
},
{
closed = 1;
nodes = (
"581 277 OFFCURVE",
"511 356 OFFCURVE",
"428 359 CURVE",
"411 347 LINE",
"495 364 OFFCURVE",
"565 417 OFFCURVE",
"565 516 CURVE SMOOTH",
"565 614 OFFCURVE",
"487 695 OFFCURVE",
"340 695 CURVE SMOOTH",
"75 695 LINE",
"75 0 LINE",
"353 0 LINE SMOOTH",
"495 0 OFFCURVE",
"581 81 OFFCURVE",
"581 187 CURVE SMOOTH"
);
},
{
closed = 1;
nodes = (
"467 132 OFFCURVE",
"420 93 OFFCURVE",
"343 93 CURVE SMOOTH",
"189 93 LINE",
"189 310 LINE",
"339 310 LINE SMOOTH",
"415 310 OFFCURVE",
"467 268 OFFCURVE",
"467 199 CURVE SMOOTH"
);
}
);
width = 630;
},
{
layerId = "4DB8C1DB-135D-4124-8C04-65EC99FCBCEB";
name = public.background;
paths = (
{
closed = 1;
nodes = (
"474 437 OFFCURVE",
"412 376 OFFCURVE",
"293 376 CURVE SMOOTH",
"105 376 LINE",
"105 684 LINE",
"287 684 LINE SMOOTH",
"419 684 OFFCURVE",
"474 620 OFFCURVE",
"474 532 CURVE"
);
},
{
closed = 1;
nodes = (
"510 293 OFFCURVE",
"426 369 OFFCURVE",
"320 369 CURVE",
"312 361 LINE",
"402 362 OFFCURVE",
"494 411 OFFCURVE",
"494 532 CURVE",
"494 628 OFFCURVE",
"434 704 OFFCURVE",
"287 704 CURVE SMOOTH",
"85 704 LINE",
"85 0 LINE",
"287 0 LINE SMOOTH",
"439 0 OFFCURVE",
"510 84 OFFCURVE",
"510 188 CURVE SMOOTH"
);
},
{
closed = 1;
nodes = (
"490 84 OFFCURVE",
"415 20 OFFCURVE",
"287 20 CURVE SMOOTH",
"105 20 LINE",
"105 356 LINE",
"285 356 LINE SMOOTH",
"413 356 OFFCURVE",
"490 290 OFFCURVE",
"490 188 CURVE SMOOTH"
);
}
);
width = 560;
},
{
layerId = "C750DB68-0E3A-4F82-99EB-66CF08B4C668";
paths = (
{
closed = 1;
nodes = (
"474 437 OFFCURVE",
"412 376 OFFCURVE",
"293 376 CURVE SMOOTH",
"105 376 LINE",
"105 684 LINE",
"287 684 LINE SMOOTH",
"419 684 OFFCURVE",
"474 620 OFFCURVE",
"474 532 CURVE SMOOTH"
);
},
{
closed = 1;
nodes = (
"510 293 OFFCURVE",
"426 369 OFFCURVE",
"329 369 CURVE",
"321 361 LINE",
"402 362 OFFCURVE",
"494 411 OFFCURVE",
"494 532 CURVE SMOOTH",
"494 628 OFFCURVE",
"434 704 OFFCURVE",
"287 704 CURVE SMOOTH",
"85 704 LINE",
"85 0 LINE",
"287 0 LINE SMOOTH",
"439 0 OFFCURVE",
"510 84 OFFCURVE",
"510 188 CURVE SMOOTH"
);
},
{
closed = 1;
nodes = (
"490 84 OFFCURVE",
"415 20 OFFCURVE",
"287 20 CURVE SMOOTH",
"105 20 LINE",
"105 356 LINE",
"285 356 LINE SMOOTH",
"413 356 OFFCURVE",
"490 290 OFFCURVE",
"490 188 CURVE SMOOTH"
);
}
);
width = 560;
}
);
unicode = 0042;
},
{
glyphname = C;
layers = (
{
anchors = (
{
name = bottom;
position = "{377, 0}";
},
{
name = top;
position = "{377, 711}";
}
);
layerId = "BB8AC870-C874-407B-AC42-534954A140D1";
paths = (
{
closed = 1;
nodes = (
"30 144 OFFCURVE",
"163 -5 OFFCURVE",
"380 -5 CURVE SMOOTH",
"567 -5 OFFCURVE",
"694 107 OFFCURVE",
"723 274 CURVE",
"489 274 LINE",
"468 227 OFFCURVE",
"426 200 OFFCURVE",
"376 200 CURVE SMOOTH",
"301 200 OFFCURVE",
"255 261 OFFCURVE",
"255 355 CURVE SMOOTH",
"255 449 OFFCURVE",
"301 510 OFFCURVE",
"376 510 CURVE SMOOTH",
"426 510 OFFCURVE",
"468 483 OFFCURVE",
"489 436 CURVE",
"723 436 LINE",
"694 603 OFFCURVE",
"567 715 OFFCURVE",
"380 715 CURVE SMOOTH",
"163 715 OFFCURVE",
"30 566 OFFCURVE",
"30 355 CURVE SMOOTH"
);
}
);
width = 753;
},
{
anchors = (
{
name = bottom;
position = "{386, 0}";
},
{
name = top;
position = "{392, 704}";
}
);
layerId = "9F449CCD-E345-45F6-B35A-9ED3AC8C514F";
paths = (
{
closed = 1;
nodes = (
"37 140 OFFCURVE",
"196 -6 OFFCURVE",
"392 -6 CURVE SMOOTH",
"537 -6 OFFCURVE",
"662 66 OFFCURVE",
"715 202 CURVE",
"578 202 LINE",
"541 128 OFFCURVE",
"475 93 OFFCURVE",
"392 93 CURVE SMOOTH",
"254 93 OFFCURVE",
"154 192 OFFCURVE",
"154 349 CURVE SMOOTH",
"154 506 OFFCURVE",
"254 604 OFFCURVE",
"392 604 CURVE SMOOTH",
"475 604 OFFCURVE",
"541 569 OFFCURVE",
"578 495 CURVE",
"715 495 LINE",
"662 631 OFFCURVE",
"537 704 OFFCURVE",
"392 704 CURVE SMOOTH",
"196 704 OFFCURVE",
"37 557 OFFCURVE",
"37 349 CURVE SMOOTH"
);
}
);
width = 773;
},
{
anchors = (
{
name = bottom;
position = "{411, 0}";
},
{
name = top;
position = "{411, 683}";
}
);
layerId = "C750DB68-0E3A-4F82-99EB-66CF08B4C668";
paths = (
{
closed = 1;
nodes = (
"60 141 OFFCURVE",
"197 -7 OFFCURVE",
"388 -7 CURVE SMOOTH",
"557 -7 OFFCURVE",
"661 78 OFFCURVE",
"709 207 CURVE",
"689 207 LINE",
"648 95 OFFCURVE",
"548 11 OFFCURVE",
"388 11 CURVE SMOOTH",
"218 11 OFFCURVE",
"81 140 OFFCURVE",
"81 351 CURVE SMOOTH",
"81 564 OFFCURVE",
"218 693 OFFCURVE",
"388 693 CURVE SMOOTH",
"548 693 OFFCURVE",
"648 609 OFFCURVE",
"689 496 CURVE",
"709 496 LINE",
"661 626 OFFCURVE",
"557 711 OFFCURVE",
"388 711 CURVE SMOOTH",
"197 711 OFFCURVE",
"60 563 OFFCURVE",
"60 351 CURVE SMOOTH"
);
}
);
width = 769;
}
);
unicode = 0043;
},
{
glyphname = Cacute;
layers = (
{
layerId = "BB8AC870-C874-407B-AC42-534954A140D1";
paths = (
{
closed = 1;
nodes = (
"30 144 OFFCURVE",
"163 -5 OFFCURVE",
"380 -5 CURVE SMOOTH",
"567 -5 OFFCURVE",
"694 107 OFFCURVE",
"723 274 CURVE",
"489 274 LINE",
"468 227 OFFCURVE",
"426 200 OFFCURVE",
"376 200 CURVE SMOOTH",
"301 200 OFFCURVE",
"255 261 OFFCURVE",
"255 355 CURVE SMOOTH",
"255 449 OFFCURVE",
"301 510 OFFCURVE",
"376 510 CURVE SMOOTH",
"426 510 OFFCURVE",
"468 483 OFFCURVE",
"489 436 CURVE",
"723 436 LINE",
"694 603 OFFCURVE",
"567 715 OFFCURVE",
"380 715 CURVE SMOOTH",
"163 715 OFFCURVE",
"30 566 OFFCURVE",
"30 355 CURVE SMOOTH"
);
},
{
closed = 1;
nodes = (
"246 897 LINE",
"246 749 LINE",
"505 843 LINE",
"505 1007 LINE"
);
}
);
width = 753;
},
{
layerId = "9F449CCD-E345-45F6-B35A-9ED3AC8C514F";
paths = (
{
closed = 1;
nodes = (
"37 140 OFFCURVE",
"196 -6 OFFCURVE",
"392 -6 CURVE SMOOTH",
"537 -6 OFFCURVE",
"662 66 OFFCURVE",
"715 202 CURVE",
"578 202 LINE",
"541 128 OFFCURVE",
"475 93 OFFCURVE",
"392 93 CURVE SMOOTH",
"254 93 OFFCURVE",
"154 192 OFFCURVE",
"154 349 CURVE SMOOTH",
"154 506 OFFCURVE",
"254 604 OFFCURVE",
"392 604 CURVE SMOOTH",
"475 604 OFFCURVE",
"541 569 OFFCURVE",
"578 495 CURVE",
"715 495 LINE",
"662 631 OFFCURVE",
"537 704 OFFCURVE",
"392 704 CURVE SMOOTH",
"196 704 OFFCURVE",
"37 557 OFFCURVE",
"37 349 CURVE SMOOTH"
);
},
{
closed = 1;
nodes = (
"274 827 LINE",
"274 743 LINE",
"495 852 LINE",
"495 949 LINE"
);
}
);
width = 773;
},
{
layerId = "C750DB68-0E3A-4F82-99EB-66CF08B4C668";
paths = (
{
closed = 1;
nodes = (
"60 141 OFFCURVE",
"197 -7 OFFCURVE",
"388 -7 CURVE SMOOTH",
"557 -7 OFFCURVE",
"661 78 OFFCURVE",
"709 207 CURVE",
"689 207 LINE",
"648 95 OFFCURVE",
"548 11 OFFCURVE",
"388 11 CURVE SMOOTH",
"218 11 OFFCURVE",
"81 140 OFFCURVE",
"81 351 CURVE SMOOTH",
"81 564 OFFCURVE",
"218 693 OFFCURVE",
"388 693 CURVE SMOOTH",
"548 693 OFFCURVE",
"648 609 OFFCURVE",
"689 496 CURVE",
"709 496 LINE",
"661 626 OFFCURVE",
"557 711 OFFCURVE",
"388 711 CURVE SMOOTH",
"197 711 OFFCURVE",
"60 563 OFFCURVE",
"60 351 CURVE SMOOTH"
);
},
{
closed = 1;
nodes = (
"304 749 LINE",
"304 729 LINE",
"491 859 LINE",
"491 883 LINE"
);
}
);
width = 769;
}
);
unicode = 0106;
},
{
glyphname = Ccaron;
layers = (
{
layerId = "BB8AC870-C874-407B-AC42-534954A140D1";
paths = (
{
closed = 1;
nodes = (
"30 144 OFFCURVE",
"163 -5 OFFCURVE",
"380 -5 CURVE SMOOTH",
"567 -5 OFFCURVE",
"694 107 OFFCURVE",
"723 274 CURVE",
"489 274 LINE",
"468 227 OFFCURVE",
"426 200 OFFCURVE",
"376 200 CURVE SMOOTH",
"301 200 OFFCURVE",
"255 261 OFFCURVE",
"255 355 CURVE SMOOTH",
"255 449 OFFCURVE",
"301 510 OFFCURVE",
"376 510 CURVE SMOOTH",
"426 510 OFFCURVE",
"468 483 OFFCURVE",
"489 436 CURVE",
"723 436 LINE",
"694 603 OFFCURVE",
"567 715 OFFCURVE",
"380 715 CURVE SMOOTH",
"163 715 OFFCURVE",
"30 566 OFFCURVE",
"30 355 CURVE SMOOTH"
);
},
{
closed = 1;
nodes = (
"377 880 LINE",
"211 968 LINE",
"211 824 LINE",
"377 749 LINE",
"542 824 LINE",
"542 968 LINE"
);
}
);
width = 753;
},
{
layerId = "9F449CCD-E345-45F6-B35A-9ED3AC8C514F";
paths = (
{
closed = 1;
nodes = (
"37 140 OFFCURVE",
"196 -6 OFFCURVE",
"392 -6 CURVE SMOOTH",
"537 -6 OFFCURVE",
"662 66 OFFCURVE",
"715 202 CURVE",
"578 202 LINE",
"541 128 OFFCURVE",
"475 93 OFFCURVE",
"392 93 CURVE SMOOTH",
"254 93 OFFCURVE",
"154 192 OFFCURVE",
"154 349 CURVE SMOOTH",
"154 506 OFFCURVE",
"254 604 OFFCURVE",
"392 604 CURVE SMOOTH",
"475 604 OFFCURVE",
"541 569 OFFCURVE",
"578 495 CURVE",
"715 495 LINE",
"662 631 OFFCURVE",
"537 704 OFFCURVE",
"392 704 CURVE SMOOTH",
"196 704 OFFCURVE",
"37 557 OFFCURVE",
"37 349 CURVE SMOOTH"
);
},
{
closed = 1;
nodes = (
"392 829 LINE",
"249 915 LINE",
"249 826 LINE",
"392 743 LINE",
"535 826 LINE",
"535 915 LINE"
);
}
);
width = 773;
},
{
layerId = "C750DB68-0E3A-4F82-99EB-66CF08B4C668";
paths = (
{
closed = 1;
nodes = (
"60 141 OFFCURVE",
"197 -7 OFFCURVE",
"388 -7 CURVE SMOOTH",
"557 -7 OFFCURVE",
"661 78 OFFCURVE",
"709 207 CURVE",
"689 207 LINE",
"648 95 OFFCURVE",
"548 11 OFFCURVE",
"388 11 CURVE SMOOTH",
"218 11 OFFCURVE",
"81 140 OFFCURVE",
"81 351 CURVE SMOOTH",
"81 564 OFFCURVE",
"218 693 OFFCURVE",
"388 693 CURVE SMOOTH",
"548 693 OFFCURVE",
"648 609 OFFCURVE",
"689 496 CURVE",
"709 496 LINE",
"661 626 OFFCURVE",
"557 711 OFFCURVE",
"388 711 CURVE SMOOTH",
"197 711 OFFCURVE",
"60 563 OFFCURVE",
"60 351 CURVE SMOOTH"
);
},
{
closed = 1;
nodes = (
"411 780 LINE",
"287 861 LINE",
"287 841 LINE",
"411 760 LINE",
"534 841 LINE",
"534 861 LINE"
);
}
);
width = 769;
}
);
unicode = 010C;
},
{
glyphname = Ccedilla;
layers = (
{
layerId = "BB8AC870-C874-407B-AC42-534954A140D1";
paths = (
{
closed = 1;
nodes = (
"30 144 OFFCURVE",
"163 -5 OFFCURVE",
"380 -5 CURVE SMOOTH",
"567 -5 OFFCURVE",
"694 107 OFFCURVE",
"723 274 CURVE",
"489 274 LINE",
"468 227 OFFCURVE",
"426 200 OFFCURVE",
"376 200 CURVE SMOOTH",
"301 200 OFFCURVE",
"255 261 OFFCURVE",
"255 355 CURVE SMOOTH",
"255 449 OFFCURVE",
"301 510 OFFCURVE",
"376 510 CURVE SMOOTH",
"426 510 OFFCURVE",
"468 483 OFFCURVE",
"489 436 CURVE",
"723 436 LINE",
"694 603 OFFCURVE",
"567 715 OFFCURVE",
"380 715 CURVE SMOOTH",
"163 715 OFFCURVE",
"30 566 OFFCURVE",
"30 355 CURVE SMOOTH"
);
},
{
closed = 1;
nodes = (
"451 0 LINE",
"323 0 LINE",
"323 -134 LINE",
"408 -134 LINE SMOOTH",
"424 -134 OFFCURVE",
"434 -139 OFFCURVE",
"434 -149 CURVE SMOOTH",
"434 -159 OFFCURVE",
"424 -165 OFFCURVE",
"408 -165 CURVE SMOOTH",
"258 -165 LINE",
"258 -278 LINE",
"431 -278 LINE SMOOTH",
"498 -278 OFFCURVE",
"581 -251 OFFCURVE",
"581 -156 CURVE SMOOTH",
"581 -61 OFFCURVE",
"499 -34 OFFCURVE",
"451 -34 CURVE"
);
}
);
width = 753;
},
{
layerId = "9F449CCD-E345-45F6-B35A-9ED3AC8C514F";
paths = (
{
closed = 1;
nodes = (
"37 140 OFFCURVE",
"196 -6 OFFCURVE",
"392 -6 CURVE SMOOTH",
"537 -6 OFFCURVE",
"662 66 OFFCURVE",
"715 202 CURVE",
"578 202 LINE",
"541 128 OFFCURVE",
"475 93 OFFCURVE",
"392 93 CURVE SMOOTH",
"254 93 OFFCURVE",
"154 192 OFFCURVE",
"154 349 CURVE SMOOTH",
"154 506 OFFCURVE",
"254 604 OFFCURVE",
"392 604 CURVE SMOOTH",
"475 604 OFFCURVE",
"541 569 OFFCURVE",
"578 495 CURVE",
"715 495 LINE",
"662 631 OFFCURVE",
"537 704 OFFCURVE",
"392 704 CURVE SMOOTH",
"196 704 OFFCURVE",
"37 557 OFFCURVE",
"37 349 CURVE SMOOTH"
);
},
{
closed = 1;
nodes = (
"427 7 LINE",
"352 7 LINE",
"352 -116 LINE",
"407 -116 LINE SMOOTH",
"442 -116 OFFCURVE",
"463 -123 OFFCURVE",
"463 -153 CURVE SMOOTH",
"463 -183 OFFCURVE",
"442 -190 OFFCURVE",
"407 -190 CURVE SMOOTH",
"298 -190 LINE",
"298 -262 LINE",
"430 -262 LINE SMOOTH",
"501 -262 OFFCURVE",
"557 -221 OFFCURVE",
"557 -153 CURVE SMOOTH",
"557 -84 OFFCURVE",
"501 -48 OFFCURVE",
"427 -48 CURVE"
);
}
);
width = 773;
},
{
layerId = "C750DB68-0E3A-4F82-99EB-66CF08B4C668";
paths = (
{
closed = 1;
nodes = (
"60 141 OFFCURVE",
"197 -7 OFFCURVE",
"388 -7 CURVE SMOOTH",
"557 -7 OFFCURVE",
"661 78 OFFCURVE",
"709 207 CURVE",
"689 207 LINE",
"648 95 OFFCURVE",
"548 11 OFFCURVE",
"388 11 CURVE SMOOTH",
"218 11 OFFCURVE",
"81 140 OFFCURVE",
"81 351 CURVE SMOOTH",
"81 564 OFFCURVE",
"218 693 OFFCURVE",
"388 693 CURVE SMOOTH",
"548 693 OFFCURVE",
"648 609 OFFCURVE",
"689 496 CURVE",
"709 496 LINE",
"661 626 OFFCURVE",
"557 711 OFFCURVE",
"388 711 CURVE SMOOTH",
"197 711 OFFCURVE",
"60 563 OFFCURVE",
"60 351 CURVE SMOOTH"
);
},
{
closed = 1;
nodes = (
"423 7 LINE",
"403 7 LINE",
"403 -107 LINE",
"440 -107 LINE SMOOTH",
"507 -107 OFFCURVE",
"529 -135 OFFCURVE",
"529 -168 CURVE SMOOTH",
"529 -207 OFFCURVE",
"507 -235 OFFCURVE",
"440 -235 CURVE SMOOTH",
"380 -235 LINE",
"380 -254 LINE",
"443 -254 LINE SMOOTH",
"513 -254 OFFCURVE",
"549 -218 OFFCURVE",
"549 -168 CURVE SMOOTH",
"549 -114 OFFCURVE",
"506 -84 OFFCURVE",
"423 -89 CURVE"
);
}
);
width = 769;
}
);
unicode = 00C7;
},
{
glyphname = Cdotaccent;
layers = (
{
layerId = "BB8AC870-C874-407B-AC42-534954A140D1";
paths = (
{
closed = 1;
nodes = (
"30 144 OFFCURVE",
"163 -5 OFFCURVE",
"380 -5 CURVE SMOOTH",
"567 -5 OFFCURVE",
"694 107 OFFCURVE",
"723 274 CURVE",
"489 274 LINE",
"468 227 OFFCURVE",
"426 200 OFFCURVE",
"376 200 CURVE SMOOTH",
"301 200 OFFCURVE",
"255 261 OFFCURVE",
"255 355 CURVE SMOOTH",
"255 449 OFFCURVE",
"301 510 OFFCURVE",
"376 510 CURVE SMOOTH",
"426 510 OFFCURVE",
"468 483 OFFCURVE",
"489 436 CURVE",
"723 436 LINE",
"694 603 OFFCURVE",
"567 715 OFFCURVE",
"380 715 CURVE SMOOTH",
"163 715 OFFCURVE",
"30 566 OFFCURVE",
"30 355 CURVE SMOOTH"
);
},
{
closed = 1;
nodes = (
"425 767 OFFCURVE",
"462 804 OFFCURVE",
"462 852 CURVE SMOOTH",
"462 902 OFFCURVE",
"425 939 OFFCURVE",
"375 939 CURVE SMOOTH",
"327 939 OFFCURVE",
"290 902 OFFCURVE",
"290 852 CURVE SMOOTH",
"290 804 OFFCURVE",
"327 767 OFFCURVE",
"375 767 CURVE SMOOTH"
);
}
);
width = 753;
},
{
layerId = "9F449CCD-E345-45F6-B35A-9ED3AC8C514F";
paths = (
{
closed = 1;
nodes = (
"37 140 OFFCURVE",
"196 -6 OFFCURVE",
"392 -6 CURVE SMOOTH",
"537 -6 OFFCURVE",
"662 66 OFFCURVE",
"715 202 CURVE",
"578 202 LINE",
"541 128 OFFCURVE",
"475 93 OFFCURVE",
"392 93 CURVE SMOOTH",
"254 93 OFFCURVE",
"154 192 OFFCURVE",
"154 349 CURVE SMOOTH",
"154 506 OFFCURVE",
"254 604 OFFCURVE",
"392 604 CURVE SMOOTH",
"475 604 OFFCURVE",
"541 569 OFFCURVE",
"578 495 CURVE",
"715 495 LINE",
"662 631 OFFCURVE",
"537 704 OFFCURVE",
"392 704 CURVE SMOOTH",
"196 704 OFFCURVE",
"37 557 OFFCURVE",
"37 349 CURVE SMOOTH"
);
},
{
closed = 1;
nodes = (
"425 773 OFFCURVE",
"452 799 OFFCURVE",
"452 833 CURVE SMOOTH",
"452 866 OFFCURVE",
"425 893 OFFCURVE",
"392 893 CURVE SMOOTH",
"358 893 OFFCURVE",
"332 866 OFFCURVE",
"332 833 CURVE SMOOTH",
"332 799 OFFCURVE",
"358 773 OFFCURVE",
"392 773 CURVE SMOOTH"
);
}
);
width = 773;
},
{
layerId = "C750DB68-0E3A-4F82-99EB-66CF08B4C668";
paths = (
{
closed = 1;
nodes = (
"60 141 OFFCURVE",
"197 -7 OFFCURVE",
"388 -7 CURVE SMOOTH",
"557 -7 OFFCURVE",
"661 78 OFFCURVE",
"709 207 CURVE",
"689 207 LINE",
"648 95 OFFCURVE",
"548 11 OFFCURVE",
"388 11 CURVE SMOOTH",
"218 11 OFFCURVE",
"81 140 OFFCURVE",
"81 351 CURVE SMOOTH",
"81 564 OFFCURVE",
"218 693 OFFCURVE",
"388 693 CURVE SMOOTH",
"548 693 OFFCURVE",
"648 609 OFFCURVE",
"689 496 CURVE",
"709 496 LINE",
"661 626 OFFCURVE",
"557 711 OFFCURVE",
"388 711 CURVE SMOOTH",
"197 711 OFFCURVE",
"60 563 OFFCURVE",
"60 351 CURVE SMOOTH"
);
},
{
closed = 1;
nodes = (
"427 748 OFFCURVE",
"441 762 OFFCURVE",
"441 778 CURVE SMOOTH",
"441 794 OFFCURVE",
"427 808 OFFCURVE",
"411 808 CURVE SMOOTH",
"395 808 OFFCURVE",
"381 794 OFFCURVE",
"381 778 CURVE SMOOTH",
"381 762 OFFCURVE",
"395 748 OFFCURVE",
"411 748 CURVE SMOOTH"
);
}
);
width = 769;
}
);
unicode = 010A;
},
{
glyphname = D;
layers = (
{
anchors = (
{
name = top;
position = "{359, 711}";
}
);
layerId = "BB8AC870-C874-407B-AC42-534954A140D1";
paths = (
{
closed = 1;
nodes = (
"50 708 LINE",
"50 0 LINE",
"345 0 LINE SMOOTH",
"571 0 OFFCURVE",
"713 154 OFFCURVE",
"713 356 CURVE SMOOTH",
"713 560 OFFCURVE",
"571 708 OFFCURVE",
"345 708 CURVE SMOOTH"
);
},
{
closed = 1;
nodes = (
"272 198 LINE",
"272 514 LINE",
"325 514 LINE SMOOTH",
"423 514 OFFCURVE",
"488 459 OFFCURVE",
"488 356 CURVE SMOOTH",
"488 253 OFFCURVE",
"423 198 OFFCURVE",
"325 198 CURVE SMOOTH"
);
}
);
width = 743;
},
{
anchors = (
{
name = top;
position = "{355, 696}";
}
);
layerId = "9F449CCD-E345-45F6-B35A-9ED3AC8C514F";
paths = (
{
closed = 1;
nodes = (
"75 695 LINE",
"75 0 LINE",
"302 0 LINE SMOOTH",
"525 0 OFFCURVE",
"671 131 OFFCURVE",
"671 345 CURVE SMOOTH",
"671 560 OFFCURVE",
"525 695 OFFCURVE",
"302 695 CURVE SMOOTH"
);
},
{
closed = 1;
nodes = (
"189 93 LINE",
"189 602 LINE",
"302 602 LINE SMOOTH",
"466 602 OFFCURVE",
"554 504 OFFCURVE",
"554 345 CURVE SMOOTH",
"554 187 OFFCURVE",
"466 93 OFFCURVE",
"302 93 CURVE SMOOTH"
);
}
);
width = 709;
},
{
anchors = (
{
name = top;
position = "{340, 683}";
}
);
layerId = "C750DB68-0E3A-4F82-99EB-66CF08B4C668";
paths = (
{
closed = 1;
nodes = (
"85 704 LINE",
"85 0 LINE",
"270 0 LINE SMOOTH",
"515 0 OFFCURVE",
"642 130 OFFCURVE",
"642 352 CURVE SMOOTH",
"642 574 OFFCURVE",
"515 704 OFFCURVE",
"270 704 CURVE SMOOTH"
);
},
{
closed = 1;
nodes = (
"105 18 LINE",
"105 686 LINE",
"270 686 LINE SMOOTH",
"506 686 OFFCURVE",
"622 558 OFFCURVE",
"622 352 CURVE SMOOTH",
"622 146 OFFCURVE",
"506 18 OFFCURVE",
"270 18 CURVE SMOOTH"
);
}
);
width = 702;
}
);
unicode = 0044;
},
{
glyphname = Eth;
layers = (
{
layerId = "BB8AC870-C874-407B-AC42-534954A140D1";
paths = (
{
closed = 1;
nodes = (
"0 268 LINE",
"402 268 LINE",
"402 444 LINE",
"0 444 LINE"
);
},
{
closed = 1;
nodes = (
"50 708 LINE",
"50 0 LINE",
"345 0 LINE SMOOTH",
"571 0 OFFCURVE",
"713 154 OFFCURVE",
"713 356 CURVE SMOOTH",
"713 560 OFFCURVE",
"571 708 OFFCURVE",
"345 708 CURVE SMOOTH"
);
},
{
closed = 1;
nodes = (
"272 198 LINE",
"272 514 LINE",
"325 514 LINE SMOOTH",
"423 514 OFFCURVE",
"488 459 OFFCURVE",
"488 356 CURVE SMOOTH",
"488 253 OFFCURVE",
"423 198 OFFCURVE",
"325 198 CURVE SMOOTH"
);
}
);
width = 743;
},
{
layerId = "9F449CCD-E345-45F6-B35A-9ED3AC8C514F";
paths = (
{
closed = 1;
nodes = (
"9 293 LINE",
"379 293 LINE",
"379 398 LINE",
"9 398 LINE"
);
},
{
closed = 1;
nodes = (
"86 695 LINE",
"86 0 LINE",
"314 0 LINE SMOOTH",
"537 0 OFFCURVE",
"682 131 OFFCURVE",
"682 345 CURVE SMOOTH",
"682 560 OFFCURVE",
"537 695 OFFCURVE",
"314 695 CURVE SMOOTH"
);
},
{
closed = 1;
nodes = (
"201 87 LINE",
"201 603 LINE",
"314 603 LINE SMOOTH",
"477 603 OFFCURVE",
"565 504 OFFCURVE",
"565 345 CURVE SMOOTH",
"565 187 OFFCURVE",
"477 87 OFFCURVE",
"314 87 CURVE SMOOTH"
);
}
);
width = 720;
},
{
layerId = "C750DB68-0E3A-4F82-99EB-66CF08B4C668";
paths = (
{
closed = 1;
nodes = (
"10 343 LINE",
"378 343 LINE",
"378 361 LINE",
"10 361 LINE"
);
},
{
closed = 1;
nodes = (
"125 704 LINE",
"125 0 LINE",
"310 0 LINE SMOOTH",
"555 0 OFFCURVE",
"682 130 OFFCURVE",
"682 352 CURVE SMOOTH",
"682 574 OFFCURVE",
"555 704 OFFCURVE",
"310 704 CURVE SMOOTH"
);
},
{
closed = 1;
nodes = (
"145 18 LINE",
"145 686 LINE",
"310 686 LINE SMOOTH",
"546 686 OFFCURVE",
"662 558 OFFCURVE",
"662 352 CURVE SMOOTH",
"662 146 OFFCURVE",
"546 18 OFFCURVE",
"310 18 CURVE SMOOTH"
);
}
);
width = 742;
}
);
unicode = 00D0;
},
{
glyphname = Dcaron;
layers = (
{
layerId = "BB8AC870-C874-407B-AC42-534954A140D1";
paths = (
{
closed = 1;
nodes = (
"50 708 LINE",
"50 0 LINE",
"345 0 LINE SMOOTH",
"571 0 OFFCURVE",
"713 154 OFFCURVE",
"713 356 CURVE SMOOTH",
"713 560 OFFCURVE",
"571 708 OFFCURVE",
"345 708 CURVE SMOOTH"
);
},
{
closed = 1;
nodes = (
"272 198 LINE",
"272 514 LINE",
"325 514 LINE SMOOTH",
"423 514 OFFCURVE",
"488 459 OFFCURVE",
"488 356 CURVE SMOOTH",
"488 253 OFFCURVE",
"423 198 OFFCURVE",
"325 198 CURVE SMOOTH"
);
},
{
closed = 1;
nodes = (
"359 880 LINE",
"193 968 LINE",
"193 824 LINE",
"359 749 LINE",
"524 824 LINE",
"524 968 LINE"
);
}
);
width = 743;
},
{
layerId = "9F449CCD-E345-45F6-B35A-9ED3AC8C514F";
paths = (
{
closed = 1;
nodes = (
"75 695 LINE",
"75 0 LINE",
"302 0 LINE SMOOTH",
"525 0 OFFCURVE",
"671 131 OFFCURVE",
"671 345 CURVE SMOOTH",
"671 560 OFFCURVE",
"525 695 OFFCURVE",
"302 695 CURVE SMOOTH"
);
},
{
closed = 1;
nodes = (
"189 93 LINE",
"189 602 LINE",
"302 602 LINE SMOOTH",
"466 602 OFFCURVE",
"554 504 OFFCURVE",
"554 345 CURVE SMOOTH",
"554 187 OFFCURVE",
"466 93 OFFCURVE",
"302 93 CURVE SMOOTH"
);
},
{
closed = 1;
nodes = (
"355 821 LINE",
"212 907 LINE",
"212 818 LINE",
"355 735 LINE",
"498 818 LINE",
"498 907 LINE"
);
}
);
width = 709;
},
{
layerId = "C750DB68-0E3A-4F82-99EB-66CF08B4C668";
paths = (
{
closed = 1;
nodes = (
"85 704 LINE",
"85 0 LINE",
"270 0 LINE SMOOTH",
"515 0 OFFCURVE",
"642 130 OFFCURVE",
"642 352 CURVE SMOOTH",
"642 574 OFFCURVE",
"515 704 OFFCURVE",
"270 704 CURVE SMOOTH"
);
},
{
closed = 1;
nodes = (
"105 18 LINE",
"105 686 LINE",
"270 686 LINE SMOOTH",
"506 686 OFFCURVE",
"622 558 OFFCURVE",
"622 352 CURVE SMOOTH",
"622 146 OFFCURVE",
"506 18 OFFCURVE",
"270 18 CURVE SMOOTH"
);
},
{
closed = 1;
nodes = (
"340 780 LINE",
"216 861 LINE",
"216 841 LINE",
"340 760 LINE",
"463 841 LINE",
"463 861 LINE"
);
}
);
width = 702;
}
);
unicode = 010E;
},
{
glyphname = Dcroat;
layers = (
{
layerId = "BB8AC870-C874-407B-AC42-534954A140D1";
paths = (
{
closed = 1;
nodes = (
"0 268 LINE",
"402 268 LINE",
"402 444 LINE",
"0 444 LINE"
);
},
{
closed = 1;
nodes = (
"50 708 LINE",
"50 0 LINE",
"345 0 LINE SMOOTH",
"571 0 OFFCURVE",
"713 154 OFFCURVE",
"713 356 CURVE SMOOTH",
"713 560 OFFCURVE",
"571 708 OFFCURVE",
"345 708 CURVE SMOOTH"
);
},
{
closed = 1;
nodes = (
"272 198 LINE",
"272 514 LINE",
"325 514 LINE SMOOTH",
"423 514 OFFCURVE",
"488 459 OFFCURVE",
"488 356 CURVE SMOOTH",
"488 253 OFFCURVE",
"423 198 OFFCURVE",
"325 198 CURVE SMOOTH"
);
}
);
width = 743;
},
{
layerId = "9F449CCD-E345-45F6-B35A-9ED3AC8C514F";
paths = (
{
closed = 1;
nodes = (
"9 293 LINE",
"379 293 LINE",
"379 398 LINE",
"9 398 LINE"
);
},
{
closed = 1;
nodes = (
"86 695 LINE",
"86 0 LINE",
"314 0 LINE SMOOTH",
"537 0 OFFCURVE",
"682 131 OFFCURVE",
"682 345 CURVE SMOOTH",
"682 560 OFFCURVE",
"537 695 OFFCURVE",
"314 695 CURVE SMOOTH"
);
},
{
closed = 1;
nodes = (
"201 87 LINE",
"201 603 LINE",
"314 603 LINE SMOOTH",
"477 603 OFFCURVE",
"565 504 OFFCURVE",
"565 345 CURVE SMOOTH",
"565 187 OFFCURVE",
"477 87 OFFCURVE",
"314 87 CURVE SMOOTH"
);
}
);
width = 720;
},
{
layerId = "C750DB68-0E3A-4F82-99EB-66CF08B4C668";
paths = (
{
closed = 1;
nodes = (
"10 343 LINE",
"378 343 LINE",
"378 361 LINE",
"10 361 LINE"
);
},
{
closed = 1;
nodes = (
"125 704 LINE",
"125 0 LINE",
"310 0 LINE SMOOTH",
"555 0 OFFCURVE",
"682 130 OFFCURVE",
"682 352 CURVE SMOOTH",
"682 574 OFFCURVE",
"555 704 OFFCURVE",
"310 704 CURVE SMOOTH"
);
},
{
closed = 1;
nodes = (
"145 18 LINE",
"145 686 LINE",
"310 686 LINE SMOOTH",
"546 686 OFFCURVE",
"662 558 OFFCURVE",
"662 352 CURVE SMOOTH",
"662 146 OFFCURVE",
"546 18 OFFCURVE",
"310 18 CURVE SMOOTH"
);
}
);
width = 742;
}
);
unicode = 0110;
},
{
glyphname = E;
layers = (
{
anchors = (
{
name = bottom;
position = "{282, 0}";
},
{
name = ogonek;
position = "{522, 0}";
},
{
name = top;
position = "{282, 711}";
}
);
layerId = "BB8AC870-C874-407B-AC42-534954A140D1";
paths = (
{
closed = 1;
nodes = (
"522 708 LINE",
"50 708 LINE",
"50 0 LINE",
"522 0 LINE",
"522 177 LINE",
"272 177 LINE",
"272 277 LINE",
"492 277 LINE",
"492 444 LINE",
"272 444 LINE",
"272 531 LINE",
"522 531 LINE"
);
}
);
width = 556;
},
{
anchors = (
{
name = bottom;
position = "{262, 0}";
},
{
name = ogonek;
position = "{459, 0}";
},
{
name = top;
position = "{262, 696}";
}
);
layerId = "9F449CCD-E345-45F6-B35A-9ED3AC8C514F";
paths = (
{
closed = 1;
nodes = (
"459 696 LINE",
"75 696 LINE",
"75 0 LINE",
"459 0 LINE",
"459 93 LINE",
"189 93 LINE",
"189 306 LINE",
"429 306 LINE",
"429 399 LINE",
"189 399 LINE",
"189 603 LINE",
"459 603 LINE"
);
}
);
width = 524;
},
{
anchors = (
{
name = bottom;
position = "{233, 0}";
},
{
name = ogonek;
position = "{429, 0}";
},
{
name = top;
position = "{233, 683}";
}
);
layerId = "C750DB68-0E3A-4F82-99EB-66CF08B4C668";
paths = (
{
closed = 1;
nodes = (
"429 704 LINE",
"85 704 LINE",
"85 0 LINE",
"429 0 LINE",
"429 18 LINE",
"105 18 LINE",
"105 343 LINE",
"399 343 LINE",
"399 361 LINE",
"105 361 LINE",
"105 686 LINE",
"429 686 LINE"
);
}
);
width = 479;
}
);
unicode = 0045;
},
{
glyphname = Eacute;
layers = (
{
layerId = "BB8AC870-C874-407B-AC42-534954A140D1";
paths = (
{
closed = 1;
nodes = (
"522 708 LINE",
"50 708 LINE",
"50 0 LINE",
"522 0 LINE",
"522 177 LINE",
"272 177 LINE",
"272 277 LINE",
"492 277 LINE",
"492 444 LINE",
"272 444 LINE",
"272 531 LINE",
"522 531 LINE"
);
},
{
closed = 1;
nodes = (
"151 897 LINE",
"151 749 LINE",
"410 843 LINE",
"410 1007 LINE"
);
}
);
width = 556;
},
{
layerId = "9F449CCD-E345-45F6-B35A-9ED3AC8C514F";
paths = (
{
closed = 1;
nodes = (
"459 696 LINE",
"75 696 LINE",
"75 0 LINE",
"459 0 LINE",
"459 93 LINE",
"189 93 LINE",
"189 306 LINE",
"429 306 LINE",
"429 399 LINE",
"189 399 LINE",
"189 603 LINE",
"459 603 LINE"
);
},
{
closed = 1;
nodes = (
"144 819 LINE",
"144 735 LINE",
"365 844 LINE",
"365 941 LINE"
);
}
);
width = 524;
},
{
layerId = "C750DB68-0E3A-4F82-99EB-66CF08B4C668";
paths = (
{
closed = 1;
nodes = (
"429 704 LINE",
"85 704 LINE",
"85 0 LINE",
"429 0 LINE",
"429 18 LINE",
"105 18 LINE",
"105 343 LINE",
"399 343 LINE",
"399 361 LINE",
"105 361 LINE",
"105 686 LINE",
"429 686 LINE"
);
},
{
closed = 1;
nodes = (
"126 749 LINE",
"126 729 LINE",
"313 859 LINE",
"313 883 LINE"
);
}
);
width = 479;
}
);
unicode = 00C9;
},
{
glyphname = Ebreve;
layers = (
{
layerId = "BB8AC870-C874-407B-AC42-534954A140D1";
paths = (
{
closed = 1;
nodes = (
"522 708 LINE",
"50 708 LINE",
"50 0 LINE",
"522 0 LINE",
"522 177 LINE",
"272 177 LINE",
"272 277 LINE",
"492 277 LINE",
"492 444 LINE",
"272 444 LINE",
"272 531 LINE",
"522 531 LINE"
);
},
{
closed = 1;
nodes = (
"470 967 LINE",
"367 967 LINE",
"367 928 OFFCURVE",
"347 905 OFFCURVE",
"282 905 CURVE SMOOTH",
"217 905 OFFCURVE",
"197 928 OFFCURVE",
"197 967 CURVE",
"94 967 LINE",
"94 950 LINE SMOOTH",
"94 812 OFFCURVE",
"177 747 OFFCURVE",
"282 747 CURVE SMOOTH",
"387 747 OFFCURVE",
"470 812 OFFCURVE",
"470 950 CURVE SMOOTH"
);
}
);
width = 556;
},
{
layerId = "9F449CCD-E345-45F6-B35A-9ED3AC8C514F";
paths = (
{
closed = 1;
nodes = (
"459 696 LINE",
"75 696 LINE",
"75 0 LINE",
"459 0 LINE",
"459 93 LINE",
"189 93 LINE",
"189 306 LINE",
"429 306 LINE",
"429 399 LINE",
"189 399 LINE",
"189 603 LINE",
"459 603 LINE"
);
},
{
closed = 1;
nodes = (
"413 903 LINE",
"347 903 LINE",
"347 858 OFFCURVE",
"327 831 OFFCURVE",
"262 831 CURVE SMOOTH",
"197 831 OFFCURVE",
"177 858 OFFCURVE",
"177 903 CURVE",
"112 903 LINE",
"112 882 LINE SMOOTH",
"112 799 OFFCURVE",
"168 742 OFFCURVE",
"262 742 CURVE SMOOTH",
"357 742 OFFCURVE",
"413 798 OFFCURVE",
"413 881 CURVE SMOOTH"
);
}
);
width = 524;
},
{
layerId = "C750DB68-0E3A-4F82-99EB-66CF08B4C668";
paths = (
{
closed = 1;
nodes = (
"429 704 LINE",
"85 704 LINE",
"85 0 LINE",
"429 0 LINE",
"429 18 LINE",
"105 18 LINE",
"105 343 LINE",
"399 343 LINE",
"399 361 LINE",
"105 361 LINE",
"105 686 LINE",
"429 686 LINE"
);
},
{
closed = 1;
nodes = (
"351 867 LINE",
"331 867 LINE",
"331 810 OFFCURVE",
"295 777 OFFCURVE",
"233 777 CURVE SMOOTH",
"171 777 OFFCURVE",
"135 810 OFFCURVE",
"135 867 CURVE",
"115 867 LINE",
"115 863 LINE SMOOTH",
"115 815 OFFCURVE",
"148 759 OFFCURVE",
"233 759 CURVE SMOOTH",
"318 759 OFFCURVE",
"351 815 OFFCURVE",
"351 863 CURVE SMOOTH"
);
}
);
width = 479;
}
);
unicode = 0114;
},
{
glyphname = Ecaron;
layers = (
{
layerId = "BB8AC870-C874-407B-AC42-534954A140D1";
paths = (
{
closed = 1;
nodes = (
"522 708 LINE",
"50 708 LINE",
"50 0 LINE",
"522 0 LINE",
"522 177 LINE",
"272 177 LINE",
"272 277 LINE",
"492 277 LINE",
"492 444 LINE",
"272 444 LINE",
"272 531 LINE",
"522 531 LINE"
);
},
{
closed = 1;
nodes = (
"282 880 LINE",
"116 968 LINE",
"116 824 LINE",
"282 749 LINE",
"447 824 LINE",
"447 968 LINE"
);
}
);
width = 556;
},
{
layerId = "9F449CCD-E345-45F6-B35A-9ED3AC8C514F";
paths = (
{
closed = 1;
nodes = (
"459 696 LINE",
"75 696 LINE",
"75 0 LINE",
"459 0 LINE",
"459 93 LINE",
"189 93 LINE",
"189 306 LINE",
"429 306 LINE",
"429 399 LINE",
"189 399 LINE",
"189 603 LINE",
"459 603 LINE"
);
},
{
closed = 1;
nodes = (
"262 821 LINE",
"119 907 LINE",
"119 818 LINE",
"262 735 LINE",
"405 818 LINE",
"405 907 LINE"
);
}
);
width = 524;
},
{
layerId = "C750DB68-0E3A-4F82-99EB-66CF08B4C668";
paths = (
{
closed = 1;
nodes = (
"429 704 LINE",
"85 704 LINE",
"85 0 LINE",
"429 0 LINE",
"429 18 LINE",
"105 18 LINE",
"105 343 LINE",
"399 343 LINE",
"399 361 LINE",
"105 361 LINE",
"105 686 LINE",
"429 686 LINE"
);
},
{
closed = 1;
nodes = (
"233 780 LINE",
"109 861 LINE",
"109 841 LINE",
"233 760 LINE",
"356 841 LINE",
"356 861 LINE"
);
}
);
width = 479;
}
);
unicode = 011A;
},
{
glyphname = Ecircumflex;
layers = (
{
layerId = "BB8AC870-C874-407B-AC42-534954A140D1";
paths = (
{
closed = 1;
nodes = (
"522 708 LINE",
"50 708 LINE",
"50 0 LINE",
"522 0 LINE",
"522 177 LINE",
"272 177 LINE",
"272 277 LINE",
"492 277 LINE",
"492 444 LINE",
"272 444 LINE",
"272 531 LINE",
"522 531 LINE"
);
},
{
closed = 1;
nodes = (
"447 893 LINE",
"282 968 LINE",
"116 893 LINE",
"116 749 LINE",
"282 827 LINE",
"447 749 LINE"
);
}
);
width = 556;
},
{
layerId = "9F449CCD-E345-45F6-B35A-9ED3AC8C514F";
paths = (
{
closed = 1;
nodes = (
"459 696 LINE",
"75 696 LINE",
"75 0 LINE",
"459 0 LINE",
"459 93 LINE",
"189 93 LINE",
"189 306 LINE",
"429 306 LINE",
"429 399 LINE",
"189 399 LINE",
"189 603 LINE",
"459 603 LINE"
);
},
{
closed = 1;
nodes = (
"405 824 LINE",
"262 907 LINE",
"119 824 LINE",
"119 735 LINE",
"262 821 LINE",
"405 735 LINE"
);
}
);
width = 524;
},
{
layerId = "C750DB68-0E3A-4F82-99EB-66CF08B4C668";
paths = (
{
closed = 1;
nodes = (
"429 704 LINE",
"85 704 LINE",
"85 0 LINE",
"429 0 LINE",
"429 18 LINE",
"105 18 LINE",
"105 343 LINE",
"399 343 LINE",
"399 361 LINE",
"105 361 LINE",
"105 686 LINE",
"429 686 LINE"
);
},
{
closed = 1;
nodes = (
"356 783 LINE",
"233 864 LINE",
"109 783 LINE",
"109 763 LINE",
"233 844 LINE",
"356 763 LINE"
);
}
);
width = 479;
}
);
unicode = 00CA;
},
{
glyphname = Edieresis;
layers = (
{
layerId = "BB8AC870-C874-407B-AC42-534954A140D1";
paths = (
{
closed = 1;
nodes = (
"522 708 LINE",
"50 708 LINE",
"50 0 LINE",
"522 0 LINE",
"522 177 LINE",
"272 177 LINE",
"272 277 LINE",
"492 277 LINE",
"492 444 LINE",
"272 444 LINE",
"272 531 LINE",
"522 531 LINE"
);
},
{
closed = 1;
nodes = (
"218 767 OFFCURVE",
"255 804 OFFCURVE",
"255 852 CURVE SMOOTH",
"255 902 OFFCURVE",
"218 939 OFFCURVE",
"168 939 CURVE SMOOTH",
"120 939 OFFCURVE",
"83 902 OFFCURVE",
"83 852 CURVE SMOOTH",
"83 804 OFFCURVE",
"120 767 OFFCURVE",
"168 767 CURVE SMOOTH"
);
},
{
closed = 1;
nodes = (
"443 767 OFFCURVE",
"480 804 OFFCURVE",
"480 852 CURVE SMOOTH",
"480 902 OFFCURVE",
"443 939 OFFCURVE",
"393 939 CURVE SMOOTH",
"345 939 OFFCURVE",
"308 902 OFFCURVE",
"308 852 CURVE SMOOTH",
"308 804 OFFCURVE",
"345 767 OFFCURVE",
"393 767 CURVE SMOOTH"
);
}
);
width = 556;
},
{
layerId = "9F449CCD-E345-45F6-B35A-9ED3AC8C514F";
paths = (
{
closed = 1;
nodes = (
"459 696 LINE",
"75 696 LINE",
"75 0 LINE",
"459 0 LINE",
"459 93 LINE",
"189 93 LINE",
"189 306 LINE",
"429 306 LINE",
"429 399 LINE",
"189 399 LINE",
"189 603 LINE",
"459 603 LINE"
);
},
{
closed = 1;
nodes = (
"209 765 OFFCURVE",
"236 791 OFFCURVE",
"236 825 CURVE SMOOTH",
"236 858 OFFCURVE",
"209 885 OFFCURVE",
"176 885 CURVE SMOOTH",
"142 885 OFFCURVE",
"116 858 OFFCURVE",
"116 825 CURVE SMOOTH",
"116 791 OFFCURVE",
"142 765 OFFCURVE",
"176 765 CURVE SMOOTH"
);
},
{
closed = 1;
nodes = (
"381 765 OFFCURVE",
"408 791 OFFCURVE",
"408 825 CURVE SMOOTH",
"408 858 OFFCURVE",
"381 885 OFFCURVE",
"348 885 CURVE SMOOTH",
"314 885 OFFCURVE",
"288 858 OFFCURVE",
"288 825 CURVE SMOOTH",
"288 791 OFFCURVE",
"314 765 OFFCURVE",
"348 765 CURVE SMOOTH"
);
}
);
width = 524;
},
{
layerId = "C750DB68-0E3A-4F82-99EB-66CF08B4C668";
paths = (
{
closed = 1;
nodes = (
"429 704 LINE",
"85 704 LINE",
"85 0 LINE",
"429 0 LINE",
"429 18 LINE",
"105 18 LINE",
"105 343 LINE",
"399 343 LINE",
"399 361 LINE",
"105 361 LINE",
"105 686 LINE",
"429 686 LINE"
);
},
{
closed = 1;
nodes = (
"183 770 OFFCURVE",
"197 784 OFFCURVE",
"197 800 CURVE SMOOTH",
"197 816 OFFCURVE",
"183 830 OFFCURVE",
"167 830 CURVE SMOOTH",
"150 830 OFFCURVE",
"137 816 OFFCURVE",
"137 800 CURVE SMOOTH",
"137 784 OFFCURVE",
"150 770 OFFCURVE",
"167 770 CURVE SMOOTH"
);
},
{
closed = 1;
nodes = (
"317 770 OFFCURVE",
"330 784 OFFCURVE",
"330 800 CURVE SMOOTH",
"330 816 OFFCURVE",
"317 830 OFFCURVE",
"301 830 CURVE SMOOTH",
"284 830 OFFCURVE",
"271 816 OFFCURVE",
"271 800 CURVE SMOOTH",
"271 784 OFFCURVE",
"284 770 OFFCURVE",
"301 770 CURVE SMOOTH"
);
}
);
width = 479;
}
);
unicode = 00CB;
},
{
glyphname = Edotaccent;
layers = (
{
layerId = "BB8AC870-C874-407B-AC42-534954A140D1";
paths = (
{
closed = 1;
nodes = (
"522 708 LINE",
"50 708 LINE",
"50 0 LINE",
"522 0 LINE",
"522 177 LINE",
"272 177 LINE",
"272 277 LINE",
"492 277 LINE",
"492 444 LINE",
"272 444 LINE",
"272 531 LINE",
"522 531 LINE"
);
},
{
closed = 1;
nodes = (
"330 767 OFFCURVE",
"367 804 OFFCURVE",
"367 852 CURVE SMOOTH",
"367 902 OFFCURVE",
"330 939 OFFCURVE",
"280 939 CURVE SMOOTH",
"232 939 OFFCURVE",
"195 902 OFFCURVE",
"195 852 CURVE SMOOTH",
"195 804 OFFCURVE",
"232 767 OFFCURVE",
"280 767 CURVE SMOOTH"
);
}
);
width = 556;
},
{
layerId = "9F449CCD-E345-45F6-B35A-9ED3AC8C514F";
paths = (
{
closed = 1;
nodes = (
"459 696 LINE",
"75 696 LINE",
"75 0 LINE",
"459 0 LINE",
"459 93 LINE",
"189 93 LINE",
"189 306 LINE",
"429 306 LINE",
"429 399 LINE",
"189 399 LINE",
"189 603 LINE",
"459 603 LINE"
);
},
{
closed = 1;
nodes = (
"295 765 OFFCURVE",
"322 791 OFFCURVE",
"322 825 CURVE SMOOTH",
"322 858 OFFCURVE",
"295 885 OFFCURVE",
"262 885 CURVE SMOOTH",
"228 885 OFFCURVE",
"202 858 OFFCURVE",
"202 825 CURVE SMOOTH",
"202 791 OFFCURVE",
"228 765 OFFCURVE",
"262 765 CURVE SMOOTH"
);
}
);
width = 524;
},
{
layerId = "C750DB68-0E3A-4F82-99EB-66CF08B4C668";
paths = (
{
closed = 1;
nodes = (
"429 704 LINE",
"85 704 LINE",
"85 0 LINE",
"429 0 LINE",
"429 18 LINE",
"105 18 LINE",
"105 343 LINE",
"399 343 LINE",
"399 361 LINE",
"105 361 LINE",
"105 686 LINE",
"429 686 LINE"
);
},
{
closed = 1;
nodes = (
"249 748 OFFCURVE",
"263 762 OFFCURVE",
"263 778 CURVE SMOOTH",
"263 794 OFFCURVE",
"249 808 OFFCURVE",
"233 808 CURVE SMOOTH",
"217 808 OFFCURVE",
"203 794 OFFCURVE",
"203 778 CURVE SMOOTH",
"203 762 OFFCURVE",
"217 748 OFFCURVE",
"233 748 CURVE SMOOTH"
);
}
);
width = 479;
}
);
unicode = 0116;
},
{
glyphname = Egrave;
layers = (
{
layerId = "BB8AC870-C874-407B-AC42-534954A140D1";
paths = (
{
closed = 1;
nodes = (
"522 708 LINE",
"50 708 LINE",
"50 0 LINE",
"522 0 LINE",
"522 177 LINE",
"272 177 LINE",
"272 277 LINE",
"492 277 LINE",
"492 444 LINE",
"272 444 LINE",
"272 531 LINE",
"522 531 LINE"
);
},
{
closed = 1;
nodes = (
"151 843 LINE",
"410 749 LINE",
"410 897 LINE",
"151 1007 LINE"
);
}
);
width = 556;
},
{
layerId = "9F449CCD-E345-45F6-B35A-9ED3AC8C514F";
paths = (
{
closed = 1;
nodes = (
"459 696 LINE",
"75 696 LINE",
"75 0 LINE",
"459 0 LINE",
"459 93 LINE",
"189 93 LINE",
"189 306 LINE",
"429 306 LINE",
"429 399 LINE",
"189 399 LINE",
"189 603 LINE",
"459 603 LINE"
);
},
{
closed = 1;
nodes = (
"144 844 LINE",
"365 735 LINE",
"365 819 LINE",
"144 941 LINE"
);
}
);
width = 524;
},
{
layerId = "C750DB68-0E3A-4F82-99EB-66CF08B4C668";
paths = (
{
closed = 1;
nodes = (
"429 704 LINE",
"85 704 LINE",
"85 0 LINE",
"429 0 LINE",
"429 18 LINE",
"105 18 LINE",
"105 343 LINE",
"399 343 LINE",
"399 361 LINE",
"105 361 LINE",
"105 686 LINE",
"429 686 LINE"
);
},
{
closed = 1;
nodes = (
"126 859 LINE",
"313 729 LINE",
"313 749 LINE",
"126 883 LINE"
);
}
);
width = 479;
}
);
unicode = 00C8;
},
{
glyphname = Emacron;
layers = (
{
layerId = "BB8AC870-C874-407B-AC42-534954A140D1";
paths = (
{
closed = 1;
nodes = (
"522 708 LINE",
"50 708 LINE",
"50 0 LINE",
"522 0 LINE",
"522 177 LINE",
"272 177 LINE",
"272 277 LINE",
"492 277 LINE",
"492 444 LINE",
"272 444 LINE",
"272 531 LINE",
"522 531 LINE"
);
},
{
closed = 1;
nodes = (
"67 769 LINE",
"498 769 LINE",
"498 916 LINE",
"67 916 LINE"
);
}
);
width = 556;
},
{
layerId = "9F449CCD-E345-45F6-B35A-9ED3AC8C514F";
paths = (
{
closed = 1;
nodes = (
"459 696 LINE",
"75 696 LINE",
"75 0 LINE",
"459 0 LINE",
"459 93 LINE",
"189 93 LINE",
"189 306 LINE",
"429 306 LINE",
"429 399 LINE",
"189 399 LINE",
"189 603 LINE",
"459 603 LINE"
);
},
{
closed = 1;
nodes = (
"79 780 LINE",
"445 780 LINE",
"445 865 LINE",
"79 865 LINE"
);
}
);
width = 524;
},
{
layerId = "C750DB68-0E3A-4F82-99EB-66CF08B4C668";
paths = (
{
closed = 1;
nodes = (
"429 704 LINE",
"85 704 LINE",
"85 0 LINE",
"429 0 LINE",
"429 18 LINE",
"105 18 LINE",
"105 343 LINE",
"399 343 LINE",
"399 361 LINE",
"105 361 LINE",
"105 686 LINE",
"429 686 LINE"
);
},
{
closed = 1;
nodes = (
"78 802 LINE",
"387 802 LINE",
"387 820 LINE",
"78 820 LINE"
);
}
);
width = 479;
}
);
unicode = 0112;
},
{
glyphname = Eogonek;
layers = (
{
layerId = "BB8AC870-C874-407B-AC42-534954A140D1";
paths = (
{
closed = 1;
nodes = (
"522 708 LINE",
"50 708 LINE",
"50 0 LINE",
"522 0 LINE",
"522 177 LINE",
"272 177 LINE",
"272 277 LINE",
"492 277 LINE",
"492 444 LINE",
"272 444 LINE",
"272 531 LINE",
"522 531 LINE"
);
},
{
closed = 1;
nodes = (
"443 79 LINE SMOOTH",
"287 16 OFFCURVE",
"248 -37 OFFCURVE",
"248 -103 CURVE SMOOTH",
"248 -177 OFFCURVE",
"308 -223 OFFCURVE",
"409 -223 CURVE SMOOTH",
"451 -223 OFFCURVE",
"489 -217 OFFCURVE",
"522 -207 CURVE",
"522 -91 LINE",
"489 -102 OFFCURVE",
"460 -107 OFFCURVE",
"437 -107 CURVE SMOOTH",
"415 -107 OFFCURVE",
"403 -98 OFFCURVE",
"403 -86 CURVE SMOOTH",
"403 -66 OFFCURVE",
"424 -48 OFFCURVE",
"479 -21 CURVE SMOOTH",
"522 0 LINE",
"480 94 LINE"
);
}
);
width = 556;
},
{
layerId = "9F449CCD-E345-45F6-B35A-9ED3AC8C514F";
paths = (
{
closed = 1;
nodes = (
"459 696 LINE",
"75 696 LINE",
"75 0 LINE",
"459 0 LINE",
"459 93 LINE",
"189 93 LINE",
"189 306 LINE",
"429 306 LINE",
"429 399 LINE",
"189 399 LINE",
"189 603 LINE",
"459 603 LINE"
);
},
{
closed = 1;
nodes = (
"387 39 LINE SMOOTH",
"293 -4 OFFCURVE",
"260 -52 OFFCURVE",
"260 -103 CURVE SMOOTH",
"260 -183 OFFCURVE",
"330 -211 OFFCURVE",
"393 -211 CURVE SMOOTH",
"422 -211 OFFCURVE",
"451 -205 OFFCURVE",
"474 -196 CURVE",
"474 -123 LINE",
"451 -132 OFFCURVE",
"427 -137 OFFCURVE",
"408 -137 CURVE SMOOTH",
"374 -137 OFFCURVE",
"353 -119 OFFCURVE",
"353 -91 CURVE SMOOTH",
"353 -67 OFFCURVE",
"367 -47 OFFCURVE",
"410 -25 CURVE SMOOTH",
"459 0 LINE",
"429 58 LINE"
);
}
);
width = 524;
},
{
layerId = "C750DB68-0E3A-4F82-99EB-66CF08B4C668";
paths = (
{
closed = 1;
nodes = (
"429 704 LINE",
"85 704 LINE",
"85 0 LINE",
"429 0 LINE",
"429 18 LINE",
"105 18 LINE",
"105 343 LINE",
"399 343 LINE",
"399 361 LINE",
"105 361 LINE",
"105 686 LINE",
"429 686 LINE"
);
},
{
closed = 1;
nodes = (
"353 -16 LINE SMOOTH",
"291 -44 OFFCURVE",
"267 -78 OFFCURVE",
"267 -116 CURVE SMOOTH",
"267 -167 OFFCURVE",
"306 -190 OFFCURVE",
"356 -190 CURVE SMOOTH",
"376 -190 OFFCURVE",
"398 -186 OFFCURVE",
"419 -178 CURVE",
"419 -158 LINE",
"398 -166 OFFCURVE",
"376 -171 OFFCURVE",
"356 -171 CURVE SMOOTH",
"317 -171 OFFCURVE",
"287 -154 OFFCURVE",
"287 -115 CURVE SMOOTH",
"287 -86 OFFCURVE",
"305 -57 OFFCURVE",
"357 -33 CURVE SMOOTH",
"429 0 LINE",
"422 15 LINE"
);
}
);
width = 479;
}
);
unicode = 0118;
},
{
glyphname = Etilde;
layers = (
{
layerId = "BB8AC870-C874-407B-AC42-534954A140D1";
paths = (
{
closed = 1;
nodes = (
"522 708 LINE",
"50 708 LINE",
"50 0 LINE",
"522 0 LINE",
"522 177 LINE",
"272 177 LINE",
"272 277 LINE",
"492 277 LINE",
"492 444 LINE",
"272 444 LINE",
"272 531 LINE",
"522 531 LINE"
);
},
{
closed = 1;
nodes = (
"156 749 LINE",
"162 782 OFFCURVE",
"177 796 OFFCURVE",
"201 796 CURVE SMOOTH",
"241 796 OFFCURVE",
"280 751 OFFCURVE",
"345 751 CURVE SMOOTH",
"427 751 OFFCURVE",
"484 798 OFFCURVE",
"506 926 CURVE",
"397 926 LINE",
"392 894 OFFCURVE",
"377 879 OFFCURVE",
"353 879 CURVE SMOOTH",
"313 879 OFFCURVE",
"274 925 OFFCURVE",
"209 925 CURVE SMOOTH",
"127 925 OFFCURVE",
"70 877 OFFCURVE",
"48 749 CURVE"
);
}
);
width = 556;
},
{
layerId = "9F449CCD-E345-45F6-B35A-9ED3AC8C514F";
paths = (
{
closed = 1;
nodes = (
"459 696 LINE",
"75 696 LINE",
"75 0 LINE",
"459 0 LINE",
"459 93 LINE",
"189 93 LINE",
"189 306 LINE",
"429 306 LINE",
"429 399 LINE",
"189 399 LINE",
"189 603 LINE",
"459 603 LINE"
);
},
{
closed = 1;
nodes = (
"163 753 LINE",
"167 782 OFFCURVE",
"184 796 OFFCURVE",
"206 796 CURVE SMOOTH",
"246 796 OFFCURVE",
"268 751 OFFCURVE",
"322 751 CURVE SMOOTH",
"380 751 OFFCURVE",
"424 789 OFFCURVE",
"435 868 CURVE",
"371 868 LINE",
"367 839 OFFCURVE",
"350 826 OFFCURVE",
"328 826 CURVE SMOOTH",
"288 826 OFFCURVE",
"266 870 OFFCURVE",
"212 870 CURVE SMOOTH",
"154 870 OFFCURVE",
"110 832 OFFCURVE",
"99 753 CURVE"
);
}
);
width = 524;
},
{
layerId = "C750DB68-0E3A-4F82-99EB-66CF08B4C668";
paths = (
{
closed = 1;
nodes = (
"429 704 LINE",
"85 704 LINE",
"85 0 LINE",
"429 0 LINE",
"429 18 LINE",
"105 18 LINE",
"105 343 LINE",
"399 343 LINE",
"399 361 LINE",
"105 361 LINE",
"105 686 LINE",
"429 686 LINE"
);
},
{
closed = 1;
nodes = (
"155 747 LINE",
"159 780 OFFCURVE",
"174 795 OFFCURVE",
"197 795 CURVE SMOOTH",
"239 795 OFFCURVE",
"253 745 OFFCURVE",
"305 745 CURVE SMOOTH",
"339 745 OFFCURVE",
"365 774 OFFCURVE",
"367 810 CURVE",
"349 810 LINE",
"345 779 OFFCURVE",
"326 763 OFFCURVE",
"305 763 CURVE SMOOTH",
"258 763 OFFCURVE",
"247 813 OFFCURVE",
"197 813 CURVE SMOOTH",
"163 813 OFFCURVE",
"142 787 OFFCURVE",
"137 747 CURVE"
);
}
);
width = 479;
}
);
unicode = 1EBC;
},
{
glyphname = F;
layers = (
{
layerId = "BB8AC870-C874-407B-AC42-534954A140D1";
paths = (
{
closed = 1;
nodes = (
"50 0 LINE",
"272 0 LINE",
"272 267 LINE",
"472 267 LINE",
"472 434 LINE",
"272 434 LINE",
"272 532 LINE",
"550 532 LINE",
"550 708 LINE",
"50 708 LINE"
);
}
);
width = 575;
},
{
layerId = "9F449CCD-E345-45F6-B35A-9ED3AC8C514F";
paths = (
{
closed = 1;
nodes = (
"75 0 LINE",
"189 0 LINE",
"189 304 LINE",
"419 304 LINE",
"419 397 LINE",
"189 397 LINE",
"189 602 LINE",
"484 602 LINE",
"484 695 LINE",
"75 695 LINE"
);
}
);
width = 515;
},
{
layerId = "C750DB68-0E3A-4F82-99EB-66CF08B4C668";
paths = (
{
closed = 1;
nodes = (
"85 0 LINE",
"105 0 LINE",
"105 343 LINE",
"399 343 LINE",
"399 361 LINE",
"105 361 LINE",
"105 686 LINE",
"429 686 LINE",
"429 704 LINE",
"85 704 LINE"
);
}
);
width = 469;
}
);
unicode = 0046;
},
{
glyphname = G;
layers = (
{
layerId = "4DB8C1DB-135D-4124-8C04-65EC99FCBCEB";
name = public.background;
paths = (
{
closed = 1;
nodes = (
"10 140 OFFCURVE",
"143 -6 OFFCURVE",
"339 -6 CURVE SMOOTH",
"526 -6 OFFCURVE",
"686 131 OFFCURVE",
"736 292 CURVE",
"752 381 LINE",
"369 381 LINE",
"353 292 LINE",
"614 292 LINE",
"577 174 OFFCURVE",
"483 97 OFFCURVE",
"357 97 CURVE SMOOTH",
"219 97 OFFCURVE",
"137 196 OFFCURVE",
"164 349 CURVE SMOOTH",
"191 502 OFFCURVE",
"308 600 OFFCURVE",
"446 600 CURVE SMOOTH",
"529 600 OFFCURVE",
"589 565 OFFCURVE",
"614 495 CURVE",
"751 495 LINE",
"722 631 OFFCURVE",
"609 704 OFFCURVE",
"464 704 CURVE SMOOTH",
"268 704 OFFCURVE",
"84 557 OFFCURVE",
"47 349 CURVE SMOOTH"
);
}
);
width = 792;
},
{
anchors = (
{
name = bottom;
position = "{377, 0}";
},
{
name = top;
position = "{377, 711}";
}
);
layerId = "BB8AC870-C874-407B-AC42-534954A140D1";
paths = (
{
closed = 1;
nodes = (
"718 466 LINE",
"697 617 OFFCURVE",
"576 715 OFFCURVE",
"388 715 CURVE SMOOTH",
"166 715 OFFCURVE",
"30 566 OFFCURVE",
"30 355 CURVE SMOOTH",
"30 144 OFFCURVE",
"167 -5 OFFCURVE",
"390 -5 CURVE SMOOTH",
"573 -5 OFFCURVE",
"673 102 OFFCURVE",
"722 187 CURVE",
"722 409 LINE",
"361 409 LINE",
"361 252 LINE",
"538 252 LINE",
"505 208 OFFCURVE",
"464 190 OFFCURVE",
"414 190 CURVE SMOOTH",
"305 190 OFFCURVE",
"255 245 OFFCURVE",
"255 355 CURVE SMOOTH",
"255 449 OFFCURVE",
"303 510 OFFCURVE",
"389 510 CURVE SMOOTH",
"435 510 OFFCURVE",
"467 493 OFFCURVE",
"484 466 CURVE"
);
}
);
width = 752;
},
{
anchors = (
{
name = bottom;
position = "{386, 0}";
},
{
name = top;
position = "{386, 696}";
}
);
layerId = "9F449CCD-E345-45F6-B35A-9ED3AC8C514F";
paths = (
{
closed = 1;
nodes = (
"715 495 LINE",
"662 631 OFFCURVE",
"537 704 OFFCURVE",
"392 704 CURVE SMOOTH",
"196 704 OFFCURVE",
"37 557 OFFCURVE",
"37 349 CURVE SMOOTH",
"37 140 OFFCURVE",
"196 -6 OFFCURVE",
"392 -6 CURVE SMOOTH",
"579 -6 OFFCURVE",
"715 131 OFFCURVE",
"736 292 CURVE",
"736 381 LINE",
"353 381 LINE",
"353 290 LINE",
"614 290 LINE",
"597 173 OFFCURVE",
"518 97 OFFCURVE",
"392 97 CURVE SMOOTH",
"254 97 OFFCURVE",
"154 196 OFFCURVE",
"154 349 CURVE SMOOTH",
"154 502 OFFCURVE",
"254 600 OFFCURVE",
"392 600 CURVE SMOOTH",
"475 600 OFFCURVE",
"541 565 OFFCURVE",
"578 495 CURVE"
);
}
);
width = 773;
},
{
anchors = (
{
name = bottom;
position = "{411, 0}";
},
{
name = top;
position = "{411, 683}";
}
);
layerId = "C750DB68-0E3A-4F82-99EB-66CF08B4C668";
paths = (
{
closed = 1;
nodes = (
"709 495 LINE",
"661 624 OFFCURVE",
"551 710 OFFCURVE",
"396 710 CURVE SMOOTH",
"200 710 OFFCURVE",
"60 562 OFFCURVE",
"60 351 CURVE SMOOTH",
"60 140 OFFCURVE",
"200 -8 OFFCURVE",
"396 -8 CURVE SMOOTH",
"592 -8 OFFCURVE",
"732 140 OFFCURVE",
"732 351 CURVE SMOOTH",
"732 359 LINE",
"381 359 LINE",
"381 341 LINE",
"713 341 LINE",
"708 135 OFFCURVE",
"568 10 OFFCURVE",
"396 10 CURVE SMOOTH",
"221 10 OFFCURVE",
"81 139 OFFCURVE",
"81 351 CURVE SMOOTH",
"81 563 OFFCURVE",
"221 692 OFFCURVE",
"396 692 CURVE SMOOTH",
"542 692 OFFCURVE",
"648 608 OFFCURVE",
"689 495 CURVE"
);
}
);
width = 792;
}
);
unicode = 0047;
},
{
glyphname = Gbreve;
layers = (
{
layerId = "BB8AC870-C874-407B-AC42-534954A140D1";
paths = (
{
closed = 1;
nodes = (
"718 466 LINE",
"697 617 OFFCURVE",
"576 715 OFFCURVE",
"388 715 CURVE SMOOTH",
"166 715 OFFCURVE",
"30 566 OFFCURVE",
"30 355 CURVE SMOOTH",
"30 144 OFFCURVE",
"167 -5 OFFCURVE",
"390 -5 CURVE SMOOTH",
"573 -5 OFFCURVE",
"673 102 OFFCURVE",
"722 187 CURVE",
"722 409 LINE",
"361 409 LINE",
"361 252 LINE",
"538 252 LINE",
"505 208 OFFCURVE",
"464 190 OFFCURVE",
"414 190 CURVE SMOOTH",
"305 190 OFFCURVE",
"255 245 OFFCURVE",
"255 355 CURVE SMOOTH",
"255 449 OFFCURVE",
"303 510 OFFCURVE",
"389 510 CURVE SMOOTH",
"435 510 OFFCURVE",
"467 493 OFFCURVE",
"484 466 CURVE"
);
},
{
closed = 1;
nodes = (
"565 967 LINE",
"462 967 LINE",
"462 928 OFFCURVE",
"442 905 OFFCURVE",
"377 905 CURVE SMOOTH",
"312 905 OFFCURVE",
"292 928 OFFCURVE",
"292 967 CURVE",
"189 967 LINE",
"189 950 LINE SMOOTH",
"189 812 OFFCURVE",
"272 747 OFFCURVE",
"377 747 CURVE SMOOTH",
"482 747 OFFCURVE",
"565 812 OFFCURVE",
"565 950 CURVE SMOOTH"
);
}
);
width = 752;
},
{
layerId = "9F449CCD-E345-45F6-B35A-9ED3AC8C514F";
paths = (
{
closed = 1;
nodes = (
"715 495 LINE",
"662 631 OFFCURVE",
"537 704 OFFCURVE",
"392 704 CURVE SMOOTH",
"196 704 OFFCURVE",
"37 557 OFFCURVE",
"37 349 CURVE SMOOTH",
"37 140 OFFCURVE",
"196 -6 OFFCURVE",
"392 -6 CURVE SMOOTH",
"579 -6 OFFCURVE",
"715 131 OFFCURVE",
"736 292 CURVE",
"736 381 LINE",
"353 381 LINE",
"353 290 LINE",
"614 290 LINE",
"597 173 OFFCURVE",
"518 97 OFFCURVE",
"392 97 CURVE SMOOTH",
"254 97 OFFCURVE",
"154 196 OFFCURVE",
"154 349 CURVE SMOOTH",
"154 502 OFFCURVE",
"254 600 OFFCURVE",
"392 600 CURVE SMOOTH",
"475 600 OFFCURVE",
"541 565 OFFCURVE",
"578 495 CURVE"
);
},
{
closed = 1;
nodes = (
"537 903 LINE",
"471 903 LINE",
"471 858 OFFCURVE",
"451 831 OFFCURVE",
"386 831 CURVE SMOOTH",
"321 831 OFFCURVE",
"301 858 OFFCURVE",
"301 903 CURVE",
"236 903 LINE",
"236 882 LINE SMOOTH",
"236 799 OFFCURVE",
"292 742 OFFCURVE",
"386 742 CURVE SMOOTH",
"481 742 OFFCURVE",
"537 798 OFFCURVE",
"537 881 CURVE SMOOTH"
);
}
);
width = 773;
},
{
layerId = "C750DB68-0E3A-4F82-99EB-66CF08B4C668";
paths = (
{
closed = 1;
nodes = (
"709 495 LINE",
"661 624 OFFCURVE",
"551 710 OFFCURVE",
"396 710 CURVE SMOOTH",
"200 710 OFFCURVE",
"60 562 OFFCURVE",
"60 351 CURVE SMOOTH",
"60 140 OFFCURVE",
"200 -8 OFFCURVE",
"396 -8 CURVE SMOOTH",
"592 -8 OFFCURVE",
"732 140 OFFCURVE",
"732 351 CURVE SMOOTH",
"732 359 LINE",
"381 359 LINE",
"381 341 LINE",
"713 341 LINE",
"708 135 OFFCURVE",
"568 10 OFFCURVE",
"396 10 CURVE SMOOTH",
"221 10 OFFCURVE",
"81 139 OFFCURVE",
"81 351 CURVE SMOOTH",
"81 563 OFFCURVE",
"221 692 OFFCURVE",
"396 692 CURVE SMOOTH",
"542 692 OFFCURVE",
"648 608 OFFCURVE",
"689 495 CURVE"
);
},
{
closed = 1;
nodes = (
"529 867 LINE",
"509 867 LINE",
"509 810 OFFCURVE",
"473 777 OFFCURVE",
"411 777 CURVE SMOOTH",
"349 777 OFFCURVE",
"313 810 OFFCURVE",
"313 867 CURVE",
"293 867 LINE",
"293 863 LINE SMOOTH",
"293 815 OFFCURVE",
"326 759 OFFCURVE",
"411 759 CURVE SMOOTH",
"496 759 OFFCURVE",
"529 815 OFFCURVE",
"529 863 CURVE SMOOTH"
);
}
);
width = 792;
}
);
unicode = 011E;
},
{
glyphname = Gcommaaccent;
layers = (
{
anchors = (
{
name = _bottom;
position = "{378, 0}";
}
);
layerId = "BB8AC870-C874-407B-AC42-534954A140D1";
paths = (
{
closed = 1;
nodes = (
"298 -35 LINE",
"298 -182 LINE",
"370 -182 LINE",
"370 -193 LINE SMOOTH",
"370 -245 OFFCURVE",
"350 -268 OFFCURVE",
"315 -268 CURVE",
"315 -346 LINE",
"429 -346 OFFCURVE",
"480 -266 OFFCURVE",
"480 -170 CURVE SMOOTH",
"480 -128 OFFCURVE",
"472 -82 OFFCURVE",
"454 -35 CURVE"
);
},
{
closed = 1;
nodes = (
"718 466 LINE",
"697 617 OFFCURVE",
"576 715 OFFCURVE",
"388 715 CURVE SMOOTH",
"166 715 OFFCURVE",
"30 566 OFFCURVE",
"30 355 CURVE SMOOTH",
"30 144 OFFCURVE",
"167 -5 OFFCURVE",
"390 -5 CURVE SMOOTH",
"573 -5 OFFCURVE",
"673 102 OFFCURVE",
"722 187 CURVE",
"722 409 LINE",
"361 409 LINE",
"361 252 LINE",
"538 252 LINE",
"505 208 OFFCURVE",
"464 190 OFFCURVE",
"414 190 CURVE SMOOTH",
"305 190 OFFCURVE",
"255 245 OFFCURVE",
"255 355 CURVE SMOOTH",
"255 449 OFFCURVE",
"303 510 OFFCURVE",
"389 510 CURVE SMOOTH",
"435 510 OFFCURVE",
"467 493 OFFCURVE",
"484 466 CURVE"
);
}
);
width = 756;
},
{
anchors = (
{
name = _bottom;
position = "{386, 0}";
}
);
layerId = "9F449CCD-E345-45F6-B35A-9ED3AC8C514F";
paths = (
{
closed = 1;
nodes = (
"332 -46 LINE",
"332 -142 LINE",
"385 -142 LINE",
"385 -163 LINE SMOOTH",
"385 -201 OFFCURVE",
"370 -220 OFFCURVE",
"336 -220 CURVE",
"336 -270 LINE",
"410 -270 OFFCURVE",
"449 -228 OFFCURVE",
"449 -145 CURVE SMOOTH",
"449 -116 OFFCURVE",
"444 -83 OFFCURVE",
"435 -46 CURVE"
);
},
{
closed = 1;
nodes = (
"715 495 LINE",
"662 631 OFFCURVE",
"537 704 OFFCURVE",
"392 704 CURVE SMOOTH",
"196 704 OFFCURVE",
"37 557 OFFCURVE",
"37 349 CURVE SMOOTH",
"37 140 OFFCURVE",
"196 -6 OFFCURVE",
"392 -6 CURVE SMOOTH",
"579 -6 OFFCURVE",
"715 131 OFFCURVE",
"736 292 CURVE",
"736 381 LINE",
"353 381 LINE",
"353 290 LINE",
"614 290 LINE",
"597 173 OFFCURVE",
"518 97 OFFCURVE",
"392 97 CURVE SMOOTH",
"254 97 OFFCURVE",
"154 196 OFFCURVE",
"154 349 CURVE SMOOTH",
"154 502 OFFCURVE",
"254 600 OFFCURVE",
"392 600 CURVE SMOOTH",
"475 600 OFFCURVE",
"541 565 OFFCURVE",
"578 495 CURVE"
);
}
);
width = 773;
},
{
anchors = (
{
name = _bottom;
position = "{396, -8}";
}
);
layerId = "C750DB68-0E3A-4F82-99EB-66CF08B4C668";
paths = (
{
closed = 1;
nodes = (
"377 -59 LINE",
"377 -97 LINE",
"408 -97 LINE",
"408 -104 LINE SMOOTH",
"408 -137 OFFCURVE",
"397 -158 OFFCURVE",
"365 -158 CURVE",
"365 -176 LINE",
"401 -176 OFFCURVE",
"430 -161 OFFCURVE",
"430 -90 CURVE SMOOTH",
"430 -81 OFFCURVE",
"429 -68 OFFCURVE",
"428 -59 CURVE"
);
},
{
closed = 1;
nodes = (
"709 495 LINE",
"661 624 OFFCURVE",
"551 710 OFFCURVE",
"396 710 CURVE SMOOTH",
"200 710 OFFCURVE",
"60 562 OFFCURVE",
"60 351 CURVE SMOOTH",
"60 140 OFFCURVE",
"200 -8 OFFCURVE",
"396 -8 CURVE SMOOTH",
"592 -8 OFFCURVE",
"732 140 OFFCURVE",
"732 351 CURVE SMOOTH",
"732 359 LINE",
"381 359 LINE",
"381 341 LINE",
"713 341 LINE",
"708 135 OFFCURVE",
"568 10 OFFCURVE",
"396 10 CURVE SMOOTH",
"221 10 OFFCURVE",
"81 139 OFFCURVE",
"81 351 CURVE SMOOTH",
"81 563 OFFCURVE",
"221 692 OFFCURVE",
"396 692 CURVE SMOOTH",
"542 692 OFFCURVE",
"648 608 OFFCURVE",
"689 495 CURVE"
);
}
);
width = 792;
}
);
unicode = 0122;
},
{
glyphname = Gdotaccent;
layers = (
{
layerId = "BB8AC870-C874-407B-AC42-534954A140D1";
paths = (
{
closed = 1;
nodes = (
"718 466 LINE",
"697 617 OFFCURVE",
"576 715 OFFCURVE",
"388 715 CURVE SMOOTH",
"166 715 OFFCURVE",
"30 566 OFFCURVE",
"30 355 CURVE SMOOTH",
"30 144 OFFCURVE",
"167 -5 OFFCURVE",
"390 -5 CURVE SMOOTH",
"573 -5 OFFCURVE",
"673 102 OFFCURVE",
"722 187 CURVE",
"722 409 LINE",
"361 409 LINE",
"361 252 LINE",
"538 252 LINE",
"505 208 OFFCURVE",
"464 190 OFFCURVE",
"414 190 CURVE SMOOTH",
"305 190 OFFCURVE",
"255 245 OFFCURVE",
"255 355 CURVE SMOOTH",
"255 449 OFFCURVE",
"303 510 OFFCURVE",
"389 510 CURVE SMOOTH",
"435 510 OFFCURVE",
"467 493 OFFCURVE",
"484 466 CURVE"
);
},
{
closed = 1;
nodes = (
"425 767 OFFCURVE",
"462 804 OFFCURVE",
"462 852 CURVE SMOOTH",
"462 902 OFFCURVE",
"425 939 OFFCURVE",
"375 939 CURVE SMOOTH",
"327 939 OFFCURVE",
"290 902 OFFCURVE",
"290 852 CURVE SMOOTH",
"290 804 OFFCURVE",
"327 767 OFFCURVE",
"375 767 CURVE SMOOTH"
);
}
);
width = 752;
},
{
layerId = "9F449CCD-E345-45F6-B35A-9ED3AC8C514F";
paths = (
{
closed = 1;
nodes = (
"715 495 LINE",
"662 631 OFFCURVE",
"537 704 OFFCURVE",
"392 704 CURVE SMOOTH",
"196 704 OFFCURVE",
"37 557 OFFCURVE",
"37 349 CURVE SMOOTH",
"37 140 OFFCURVE",
"196 -6 OFFCURVE",
"392 -6 CURVE SMOOTH",
"579 -6 OFFCURVE",
"715 131 OFFCURVE",
"736 292 CURVE",
"736 381 LINE",
"353 381 LINE",
"353 290 LINE",
"614 290 LINE",
"597 173 OFFCURVE",
"518 97 OFFCURVE",
"392 97 CURVE SMOOTH",
"254 97 OFFCURVE",
"154 196 OFFCURVE",
"154 349 CURVE SMOOTH",
"154 502 OFFCURVE",
"254 600 OFFCURVE",
"392 600 CURVE SMOOTH",
"475 600 OFFCURVE",
"541 565 OFFCURVE",
"578 495 CURVE"
);
},
{
closed = 1;
nodes = (
"419 765 OFFCURVE",
"446 791 OFFCURVE",
"446 825 CURVE SMOOTH",
"446 858 OFFCURVE",
"419 885 OFFCURVE",
"386 885 CURVE SMOOTH",
"352 885 OFFCURVE",
"326 858 OFFCURVE",
"326 825 CURVE SMOOTH",
"326 791 OFFCURVE",
"352 765 OFFCURVE",
"386 765 CURVE SMOOTH"
);
}
);
width = 773;
},
{
layerId = "C750DB68-0E3A-4F82-99EB-66CF08B4C668";
paths = (
{
closed = 1;
nodes = (
"709 495 LINE",
"661 624 OFFCURVE",
"551 710 OFFCURVE",
"396 710 CURVE SMOOTH",
"200 710 OFFCURVE",
"60 562 OFFCURVE",
"60 351 CURVE SMOOTH",
"60 140 OFFCURVE",
"200 -8 OFFCURVE",
"396 -8 CURVE SMOOTH",
"592 -8 OFFCURVE",
"732 140 OFFCURVE",
"732 351 CURVE SMOOTH",
"732 359 LINE",
"381 359 LINE",
"381 341 LINE",
"713 341 LINE",
"708 135 OFFCURVE",
"568 10 OFFCURVE",
"396 10 CURVE SMOOTH",
"221 10 OFFCURVE",
"81 139 OFFCURVE",
"81 351 CURVE SMOOTH",
"81 563 OFFCURVE",
"221 692 OFFCURVE",
"396 692 CURVE SMOOTH",
"542 692 OFFCURVE",
"648 608 OFFCURVE",
"689 495 CURVE"
);
},
{
closed = 1;
nodes = (
"427 748 OFFCURVE",
"441 762 OFFCURVE",
"441 778 CURVE SMOOTH",
"441 794 OFFCURVE",
"427 808 OFFCURVE",
"411 808 CURVE SMOOTH",
"395 808 OFFCURVE",
"381 794 OFFCURVE",
"381 778 CURVE SMOOTH",
"381 762 OFFCURVE",
"395 748 OFFCURVE",
"411 748 CURVE SMOOTH"
);
}
);
width = 792;
}
);
unicode = 0120;
},
{
glyphname = H;
layers = (
{
layerId = "BB8AC870-C874-407B-AC42-534954A140D1";
paths = (
{
closed = 1;
nodes = (
"50 0 LINE",
"272 0 LINE",
"272 708 LINE",
"50 708 LINE"
);
},
{
closed = 1;
nodes = (
"483 0 LINE",
"705 0 LINE",
"705 708 LINE",
"483 708 LINE"
);
},
{
closed = 1;
nodes = (
"252 276 LINE",
"505 276 LINE",
"505 453 LINE",
"252 453 LINE"
);
}
);
width = 755;
},
{
guideLines = (
{
position = "{0, 695}";
}
);
layerId = "9F449CCD-E345-45F6-B35A-9ED3AC8C514F";
paths = (
{
closed = 1;
nodes = (
"75 0 LINE",
"189 0 LINE",
"189 695 LINE",
"75 695 LINE"
);
},
{
closed = 1;
nodes = (
"516 0 LINE",
"630 0 LINE",
"630 695 LINE",
"516 695 LINE"
);
},
{
closed = 1;
nodes = (
"169 304 LINE",
"543 304 LINE",
"543 397 LINE",
"169 397 LINE"
);
}
);
width = 705;
},
{
layerId = "C750DB68-0E3A-4F82-99EB-66CF08B4C668";
paths = (
{
closed = 1;
nodes = (
"85 0 LINE",
"105 0 LINE",
"105 704 LINE",
"85 704 LINE"
);
},
{
closed = 1;
nodes = (
"544 0 LINE",
"564 0 LINE",
"564 704 LINE",
"544 704 LINE"
);
},
{
closed = 1;
nodes = (
"95 353 LINE",
"556 353 LINE",
"556 371 LINE",
"95 371 LINE"
);
}
);
width = 650;
}
);
unicode = 0048;
},
{
glyphname = I;
layers = (
{
anchors = (
{
name = ogonek;
position = "{272, 0}";
},
{
name = top;
position = "{162, 711}";
}
);
layerId = "BB8AC870-C874-407B-AC42-534954A140D1";
paths = (
{
closed = 1;
nodes = (
"50 0 LINE",
"272 0 LINE",
"272 708 LINE",
"50 708 LINE"
);
}
);
width = 322;
},
{
anchors = (
{
name = ogonek;
position = "{189, 1}";
},
{
name = top;
position = "{132, 696}";
}
);
layerId = "9F449CCD-E345-45F6-B35A-9ED3AC8C514F";
paths = (
{
closed = 1;
nodes = (
"75 0 LINE",
"189 0 LINE",
"189 695 LINE",
"75 695 LINE"
);
}
);
width = 264;
},
{
anchors = (
{
name = ogonek;
position = "{105, 0}";
},
{
name = top;
position = "{95, 683}";
}
);
layerId = "C750DB68-0E3A-4F82-99EB-66CF08B4C668";
paths = (
{
closed = 1;
nodes = (
"85 0 LINE",
"105 0 LINE",
"105 704 LINE",
"85 704 LINE"
);
}
);
width = 190;
}
);
unicode = 0049;
},
{
glyphname = Iacute;
layers = (
{
layerId = "BB8AC870-C874-407B-AC42-534954A140D1";
paths = (
{
closed = 1;
nodes = (
"50 0 LINE",
"272 0 LINE",
"272 708 LINE",
"50 708 LINE"
);
},
{
closed = 1;
nodes = (
"31 897 LINE",
"31 749 LINE",
"290 843 LINE",
"290 1007 LINE"
);
}
);
width = 322;
},
{
layerId = "9F449CCD-E345-45F6-B35A-9ED3AC8C514F";
paths = (
{
closed = 1;
nodes = (
"75 0 LINE",
"189 0 LINE",
"189 695 LINE",
"75 695 LINE"
);
},
{
closed = 1;
nodes = (
"14 819 LINE",
"14 735 LINE",
"235 844 LINE",
"235 941 LINE"
);
}
);
width = 264;
},
{
layerId = "C750DB68-0E3A-4F82-99EB-66CF08B4C668";
paths = (
{
closed = 1;
nodes = (
"85 0 LINE",
"105 0 LINE",
"105 704 LINE",
"85 704 LINE"
);
},
{
closed = 1;
nodes = (
"-12 749 LINE",
"-12 729 LINE",
"175 859 LINE",
"175 883 LINE"
);
}
);
width = 190;
}
);
unicode = 00CD;
},
{
glyphname = Ibreve;
layers = (
{
layerId = "BB8AC870-C874-407B-AC42-534954A140D1";
paths = (
{
closed = 1;
nodes = (
"50 0 LINE",
"272 0 LINE",
"272 708 LINE",
"50 708 LINE"
);
},
{
closed = 1;
nodes = (
"350 967 LINE",
"247 967 LINE",
"247 928 OFFCURVE",
"227 905 OFFCURVE",
"162 905 CURVE SMOOTH",
"97 905 OFFCURVE",
"77 928 OFFCURVE",
"77 967 CURVE",
"-26 967 LINE",
"-26 950 LINE SMOOTH",
"-26 812 OFFCURVE",
"57 747 OFFCURVE",
"162 747 CURVE SMOOTH",
"267 747 OFFCURVE",
"350 812 OFFCURVE",
"350 950 CURVE SMOOTH"
);
}
);
width = 322;
},
{
layerId = "9F449CCD-E345-45F6-B35A-9ED3AC8C514F";
paths = (
{
closed = 1;
nodes = (
"75 0 LINE",
"189 0 LINE",
"189 695 LINE",
"75 695 LINE"
);
},
{
closed = 1;
nodes = (
"283 903 LINE",
"217 903 LINE",
"217 858 OFFCURVE",
"197 831 OFFCURVE",
"132 831 CURVE SMOOTH",
"67 831 OFFCURVE",
"47 858 OFFCURVE",
"47 903 CURVE",
"-18 903 LINE",
"-18 882 LINE SMOOTH",
"-18 799 OFFCURVE",
"38 742 OFFCURVE",
"132 742 CURVE SMOOTH",
"227 742 OFFCURVE",
"283 798 OFFCURVE",
"283 881 CURVE SMOOTH"
);
}
);
width = 264;
},
{
layerId = "C750DB68-0E3A-4F82-99EB-66CF08B4C668";
paths = (
{
closed = 1;
nodes = (
"85 0 LINE",
"105 0 LINE",
"105 704 LINE",
"85 704 LINE"
);
},
{
closed = 1;
nodes = (
"213 867 LINE",
"193 867 LINE",
"193 810 OFFCURVE",
"157 777 OFFCURVE",
"95 777 CURVE SMOOTH",
"33 777 OFFCURVE",
"-3 810 OFFCURVE",
"-3 867 CURVE",
"-23 867 LINE",
"-23 863 LINE SMOOTH",
"-23 815 OFFCURVE",
"10 759 OFFCURVE",
"95 759 CURVE SMOOTH",
"180 759 OFFCURVE",
"213 815 OFFCURVE",
"213 863 CURVE SMOOTH"
);
}
);
width = 190;
}
);
unicode = 012C;
},
{
glyphname = Icircumflex;
layers = (
{
layerId = "BB8AC870-C874-407B-AC42-534954A140D1";
paths = (
{
closed = 1;
nodes = (
"50 0 LINE",
"272 0 LINE",
"272 708 LINE",
"50 708 LINE"
);
},
{
closed = 1;
nodes = (
"327 893 LINE",
"162 968 LINE",
"-4 893 LINE",
"-4 749 LINE",
"162 827 LINE",
"327 749 LINE"
);
}
);
width = 322;
},
{
layerId = "9F449CCD-E345-45F6-B35A-9ED3AC8C514F";
paths = (
{
closed = 1;
nodes = (
"75 0 LINE",
"189 0 LINE",
"189 695 LINE",
"75 695 LINE"
);
},
{
closed = 1;
nodes = (
"275 824 LINE",
"132 907 LINE",
"-11 824 LINE",
"-11 735 LINE",
"132 821 LINE",
"275 735 LINE"
);
}
);
width = 264;
},
{
layerId = "C750DB68-0E3A-4F82-99EB-66CF08B4C668";
paths = (
{
closed = 1;
nodes = (
"85 0 LINE",
"105 0 LINE",
"105 704 LINE",
"85 704 LINE"
);
},
{
closed = 1;
nodes = (
"218 783 LINE",
"95 864 LINE",
"-29 783 LINE",
"-29 763 LINE",
"95 844 LINE",
"218 763 LINE"
);
}
);
width = 190;
}
);
unicode = 00CE;
},
{
glyphname = Idieresis;
layers = (
{
layerId = "BB8AC870-C874-407B-AC42-534954A140D1";
paths = (
{
closed = 1;
nodes = (
"50 0 LINE",
"272 0 LINE",
"272 708 LINE",
"50 708 LINE"
);
},
{
closed = 1;
nodes = (
"98 767 OFFCURVE",
"135 804 OFFCURVE",
"135 852 CURVE SMOOTH",
"135 902 OFFCURVE",
"98 939 OFFCURVE",
"48 939 CURVE SMOOTH",
"0 939 OFFCURVE",
"-37 902 OFFCURVE",
"-37 852 CURVE SMOOTH",
"-37 804 OFFCURVE",
"0 767 OFFCURVE",
"48 767 CURVE SMOOTH"
);
},
{
closed = 1;
nodes = (
"323 767 OFFCURVE",
"360 804 OFFCURVE",
"360 852 CURVE SMOOTH",
"360 902 OFFCURVE",
"323 939 OFFCURVE",
"273 939 CURVE SMOOTH",
"225 939 OFFCURVE",
"188 902 OFFCURVE",
"188 852 CURVE SMOOTH",
"188 804 OFFCURVE",
"225 767 OFFCURVE",
"273 767 CURVE SMOOTH"
);
}
);
width = 322;
},
{
layerId = "9F449CCD-E345-45F6-B35A-9ED3AC8C514F";
paths = (
{
closed = 1;
nodes = (
"75 0 LINE",
"189 0 LINE",
"189 695 LINE",
"75 695 LINE"
);
},
{
closed = 1;
nodes = (
"79 765 OFFCURVE",
"106 791 OFFCURVE",
"106 825 CURVE SMOOTH",
"106 858 OFFCURVE",
"79 885 OFFCURVE",
"46 885 CURVE SMOOTH",
"12 885 OFFCURVE",
"-14 858 OFFCURVE",
"-14 825 CURVE SMOOTH",
"-14 791 OFFCURVE",
"12 765 OFFCURVE",
"46 765 CURVE SMOOTH"
);
},
{
closed = 1;
nodes = (
"251 765 OFFCURVE",
"278 791 OFFCURVE",
"278 825 CURVE SMOOTH",
"278 858 OFFCURVE",
"251 885 OFFCURVE",
"218 885 CURVE SMOOTH",
"184 885 OFFCURVE",
"158 858 OFFCURVE",
"158 825 CURVE SMOOTH",
"158 791 OFFCURVE",
"184 765 OFFCURVE",
"218 765 CURVE SMOOTH"
);
}
);
width = 264;
},
{
layerId = "C750DB68-0E3A-4F82-99EB-66CF08B4C668";
paths = (
{
closed = 1;
nodes = (
"85 0 LINE",
"105 0 LINE",
"105 704 LINE",
"85 704 LINE"
);
},
{
closed = 1;
nodes = (
"45 770 OFFCURVE",
"59 784 OFFCURVE",
"59 800 CURVE SMOOTH",
"59 816 OFFCURVE",
"45 830 OFFCURVE",
"29 830 CURVE SMOOTH",
"12 830 OFFCURVE",
"-1 816 OFFCURVE",
"-1 800 CURVE SMOOTH",
"-1 784 OFFCURVE",
"12 770 OFFCURVE",
"29 770 CURVE SMOOTH"
);
},
{
closed = 1;
nodes = (
"179 770 OFFCURVE",
"192 784 OFFCURVE",
"192 800 CURVE SMOOTH",
"192 816 OFFCURVE",
"179 830 OFFCURVE",
"163 830 CURVE SMOOTH",
"146 830 OFFCURVE",
"133 816 OFFCURVE",
"133 800 CURVE SMOOTH",
"133 784 OFFCURVE",
"146 770 OFFCURVE",
"163 770 CURVE SMOOTH"
);
}
);
width = 190;
}
);
unicode = 00CF;
},
{
glyphname = Idotaccent;
layers = (
{
layerId = "BB8AC870-C874-407B-AC42-534954A140D1";
paths = (
{
closed = 1;
nodes = (
"50 0 LINE",
"272 0 LINE",
"272 708 LINE",
"50 708 LINE"
);
},
{
closed = 1;
nodes = (
"210 767 OFFCURVE",
"247 804 OFFCURVE",
"247 852 CURVE SMOOTH",
"247 902 OFFCURVE",
"210 939 OFFCURVE",
"160 939 CURVE SMOOTH",
"112 939 OFFCURVE",
"75 902 OFFCURVE",
"75 852 CURVE SMOOTH",
"75 804 OFFCURVE",
"112 767 OFFCURVE",
"160 767 CURVE SMOOTH"
);
}
);
width = 322;
},
{
layerId = "9F449CCD-E345-45F6-B35A-9ED3AC8C514F";
paths = (
{
closed = 1;
nodes = (
"75 0 LINE",
"189 0 LINE",
"189 695 LINE",
"75 695 LINE"
);
},
{
closed = 1;
nodes = (
"165 765 OFFCURVE",
"192 791 OFFCURVE",
"192 825 CURVE SMOOTH",
"192 858 OFFCURVE",
"165 885 OFFCURVE",
"132 885 CURVE SMOOTH",
"98 885 OFFCURVE",
"72 858 OFFCURVE",
"72 825 CURVE SMOOTH",
"72 791 OFFCURVE",
"98 765 OFFCURVE",
"132 765 CURVE SMOOTH"
);
}
);
width = 264;
},
{
layerId = "C750DB68-0E3A-4F82-99EB-66CF08B4C668";
paths = (
{
closed = 1;
nodes = (
"85 0 LINE",
"105 0 LINE",
"105 704 LINE",
"85 704 LINE"
);
},
{
closed = 1;
nodes = (
"111 748 OFFCURVE",
"125 762 OFFCURVE",
"125 778 CURVE SMOOTH",
"125 794 OFFCURVE",
"111 808 OFFCURVE",
"95 808 CURVE SMOOTH",
"79 808 OFFCURVE",
"65 794 OFFCURVE",
"65 778 CURVE SMOOTH",
"65 762 OFFCURVE",
"79 748 OFFCURVE",
"95 748 CURVE SMOOTH"
);
}
);
width = 190;
}
);
unicode = 0130;
},
{
glyphname = Igrave;
layers = (
{
layerId = "BB8AC870-C874-407B-AC42-534954A140D1";
paths = (
{
closed = 1;
nodes = (
"50 0 LINE",
"272 0 LINE",
"272 708 LINE",
"50 708 LINE"
);
},
{
closed = 1;
nodes = (
"31 843 LINE",
"290 749 LINE",
"290 897 LINE",
"31 1007 LINE"
);
}
);
width = 322;
},
{
layerId = "9F449CCD-E345-45F6-B35A-9ED3AC8C514F";
paths = (
{
closed = 1;
nodes = (
"75 0 LINE",
"189 0 LINE",
"189 695 LINE",
"75 695 LINE"
);
},
{
closed = 1;
nodes = (
"14 844 LINE",
"235 735 LINE",
"235 819 LINE",
"14 941 LINE"
);
}
);
width = 264;
},
{
layerId = "C750DB68-0E3A-4F82-99EB-66CF08B4C668";
paths = (
{
closed = 1;
nodes = (
"85 0 LINE",
"105 0 LINE",
"105 704 LINE",
"85 704 LINE"
);
},
{
closed = 1;
nodes = (
"-12 859 LINE",
"175 729 LINE",
"175 749 LINE",
"-12 883 LINE"
);
}
);
width = 190;
}
);
unicode = 00CC;
},
{
glyphname = Imacron;
layers = (
{
layerId = "BB8AC870-C874-407B-AC42-534954A140D1";
paths = (
{
closed = 1;
nodes = (
"50 0 LINE",
"272 0 LINE",
"272 708 LINE",
"50 708 LINE"
);
},
{
closed = 1;
nodes = (
"-53 769 LINE",
"378 769 LINE",
"378 916 LINE",
"-53 916 LINE"
);
}
);
width = 322;
},
{
layerId = "9F449CCD-E345-45F6-B35A-9ED3AC8C514F";
paths = (
{
closed = 1;
nodes = (
"75 0 LINE",
"189 0 LINE",
"189 695 LINE",
"75 695 LINE"
);
},
{
closed = 1;
nodes = (
"-51 780 LINE",
"315 780 LINE",
"315 865 LINE",
"-51 865 LINE"
);
}
);
width = 264;
},
{
layerId = "C750DB68-0E3A-4F82-99EB-66CF08B4C668";
paths = (
{
closed = 1;
nodes = (
"85 0 LINE",
"105 0 LINE",
"105 704 LINE",
"85 704 LINE"
);
},
{
closed = 1;
nodes = (
"-60 802 LINE",
"249 802 LINE",
"249 820 LINE",
"-60 820 LINE"
);
}
);
width = 190;
}
);
unicode = 012A;
},
{
glyphname = Iogonek;
layers = (
{
layerId = "BB8AC870-C874-407B-AC42-534954A140D1";
paths = (
{
closed = 1;
nodes = (
"50 0 LINE",
"272 0 LINE",
"272 708 LINE",
"50 708 LINE"
);
},
{
closed = 1;
nodes = (
"193 79 LINE SMOOTH",
"37 16 OFFCURVE",
"-2 -37 OFFCURVE",
"-2 -103 CURVE SMOOTH",
"-2 -177 OFFCURVE",
"58 -223 OFFCURVE",
"159 -223 CURVE SMOOTH",
"201 -223 OFFCURVE",
"239 -217 OFFCURVE",
"272 -207 CURVE",
"272 -91 LINE",
"239 -102 OFFCURVE",
"210 -107 OFFCURVE",
"187 -107 CURVE SMOOTH",
"165 -107 OFFCURVE",
"153 -98 OFFCURVE",
"153 -86 CURVE SMOOTH",
"153 -66 OFFCURVE",
"174 -48 OFFCURVE",
"229 -21 CURVE SMOOTH",
"272 0 LINE",
"230 94 LINE"
);
}
);
width = 322;
},
{
layerId = "9F449CCD-E345-45F6-B35A-9ED3AC8C514F";
paths = (
{
closed = 1;
nodes = (
"75 0 LINE",
"189 0 LINE",
"189 695 LINE",
"75 695 LINE"
);
},
{
closed = 1;
nodes = (
"117 40 LINE SMOOTH",
"23 -3 OFFCURVE",
"-10 -51 OFFCURVE",
"-10 -102 CURVE SMOOTH",
"-10 -182 OFFCURVE",
"60 -210 OFFCURVE",
"123 -210 CURVE SMOOTH",
"152 -210 OFFCURVE",
"181 -204 OFFCURVE",
"204 -195 CURVE",
"204 -122 LINE",
"181 -131 OFFCURVE",
"157 -136 OFFCURVE",
"138 -136 CURVE SMOOTH",
"104 -136 OFFCURVE",
"83 -118 OFFCURVE",
"83 -90 CURVE SMOOTH",
"83 -66 OFFCURVE",
"97 -46 OFFCURVE",
"140 -24 CURVE SMOOTH",
"189 1 LINE",
"159 59 LINE"
);
}
);
width = 264;
},
{
layerId = "C750DB68-0E3A-4F82-99EB-66CF08B4C668";
paths = (
{
closed = 1;
nodes = (
"85 0 LINE",
"105 0 LINE",
"105 704 LINE",
"85 704 LINE"
);
},
{
closed = 1;
nodes = (
"29 -16 LINE SMOOTH",
"-33 -44 OFFCURVE",
"-57 -78 OFFCURVE",
"-57 -116 CURVE SMOOTH",
"-57 -167 OFFCURVE",
"-18 -190 OFFCURVE",
"32 -190 CURVE SMOOTH",
"52 -190 OFFCURVE",
"74 -186 OFFCURVE",
"95 -178 CURVE",
"95 -158 LINE",
"74 -166 OFFCURVE",
"52 -171 OFFCURVE",
"32 -171 CURVE SMOOTH",
"-7 -171 OFFCURVE",
"-37 -154 OFFCURVE",
"-37 -115 CURVE SMOOTH",
"-37 -86 OFFCURVE",
"-19 -57 OFFCURVE",
"33 -33 CURVE SMOOTH",
"105 0 LINE",
"98 15 LINE"
);
}
);
width = 190;
}
);
unicode = 012E;
},
{
glyphname = Itilde;
layers = (
{
layerId = "BB8AC870-C874-407B-AC42-534954A140D1";
paths = (
{
closed = 1;
nodes = (
"50 0 LINE",
"272 0 LINE",
"272 708 LINE",
"50 708 LINE"
);
},
{
closed = 1;
nodes = (
"36 749 LINE",
"42 782 OFFCURVE",
"57 796 OFFCURVE",
"81 796 CURVE SMOOTH",
"121 796 OFFCURVE",
"160 751 OFFCURVE",
"225 751 CURVE SMOOTH",
"307 751 OFFCURVE",
"364 798 OFFCURVE",
"386 926 CURVE",
"277 926 LINE",
"272 894 OFFCURVE",
"257 879 OFFCURVE",
"233 879 CURVE SMOOTH",
"193 879 OFFCURVE",
"154 925 OFFCURVE",
"89 925 CURVE SMOOTH",
"7 925 OFFCURVE",
"-50 877 OFFCURVE",
"-72 749 CURVE"
);
}
);
width = 322;
},
{
layerId = "9F449CCD-E345-45F6-B35A-9ED3AC8C514F";
paths = (
{
closed = 1;
nodes = (
"75 0 LINE",
"189 0 LINE",
"189 695 LINE",
"75 695 LINE"
);
},
{
closed = 1;
nodes = (
"33 753 LINE",
"37 782 OFFCURVE",
"54 796 OFFCURVE",
"76 796 CURVE SMOOTH",
"116 796 OFFCURVE",
"138 751 OFFCURVE",
"192 751 CURVE SMOOTH",
"250 751 OFFCURVE",
"294 789 OFFCURVE",
"305 868 CURVE",
"241 868 LINE",
"237 839 OFFCURVE",
"220 826 OFFCURVE",
"198 826 CURVE SMOOTH",
"158 826 OFFCURVE",
"136 870 OFFCURVE",
"82 870 CURVE SMOOTH",
"24 870 OFFCURVE",
"-20 832 OFFCURVE",
"-31 753 CURVE"
);
}
);
width = 264;
},
{
layerId = "C750DB68-0E3A-4F82-99EB-66CF08B4C668";
paths = (
{
closed = 1;
nodes = (
"85 0 LINE",
"105 0 LINE",
"105 704 LINE",
"85 704 LINE"
);
},
{
closed = 1;
nodes = (
"17 747 LINE",
"21 780 OFFCURVE",
"36 795 OFFCURVE",
"59 795 CURVE SMOOTH",
"101 795 OFFCURVE",
"115 745 OFFCURVE",
"167 745 CURVE SMOOTH",
"201 745 OFFCURVE",
"227 774 OFFCURVE",
"229 810 CURVE",
"211 810 LINE",
"207 779 OFFCURVE",
"188 763 OFFCURVE",
"167 763 CURVE SMOOTH",
"120 763 OFFCURVE",
"109 813 OFFCURVE",
"59 813 CURVE SMOOTH",
"25 813 OFFCURVE",
"4 787 OFFCURVE",
"-1 747 CURVE"
);
}
);
width = 190;
}
);
unicode = 0128;
},
{
glyphname = J;
layers = (
{
layerId = "BB8AC870-C874-407B-AC42-534954A140D1";
paths = (
{
closed = 1;
nodes = (
"323 251 LINE SMOOTH",
"323 205 OFFCURVE",
"305 193 OFFCURVE",
"281 193 CURVE SMOOTH",
"252 193 OFFCURVE",
"229 209 OFFCURVE",
"229 271 CURVE",
"10 271 LINE",
"10 85 OFFCURVE",
"125 -7 OFFCURVE",
"291 -7 CURVE SMOOTH",
"447 -7 OFFCURVE",
"544 78 OFFCURVE",
"544 251 CURVE SMOOTH",
"544 708 LINE",
"323 708 LINE"
);
}
);
width = 590;
},
{
layerId = "9F449CCD-E345-45F6-B35A-9ED3AC8C514F";
paths = (
{
closed = 1;
nodes = (
"339 194 LINE SMOOTH",
"339 136 OFFCURVE",
"310 94 OFFCURVE",
"249 94 CURVE SMOOTH",
"188 94 OFFCURVE",
"160 136 OFFCURVE",
"159 194 CURVE",
"44 194 LINE",
"44 68 OFFCURVE",
"129 -7 OFFCURVE",
"249 -7 CURVE SMOOTH",
"369 -7 OFFCURVE",
"454 68 OFFCURVE",
"454 194 CURVE SMOOTH",
"454 695 LINE",
"339 695 LINE"
);
}
);
width = 564;
},
{
layerId = "C750DB68-0E3A-4F82-99EB-66CF08B4C668";
paths = (
{
closed = 1;
nodes = (
"326 143 LINE SMOOTH",
"326 85 OFFCURVE",
"298 11 OFFCURVE",
"193 11 CURVE SMOOTH",
"86 11 OFFCURVE",
"50 89 OFFCURVE",
"50 173 CURVE",
"30 173 LINE",
"30 63 OFFCURVE",
"88 -7 OFFCURVE",
"193 -7 CURVE SMOOTH",
"292 -7 OFFCURVE",
"346 60 OFFCURVE",
"346 143 CURVE SMOOTH",
"346 704 LINE",
"326 704 LINE"
);
}
);
width = 426;
}
);
unicode = 004A;
},
{
glyphname = K;
layers = (
{
anchors = (
{
name = bottom;
position = "{374, 0}";
},
{
name = top;
position = "{374, 711}";
}
);
layerId = "BB8AC870-C874-407B-AC42-534954A140D1";
paths = (
{
closed = 1;
nodes = (
"50 0 LINE",
"272 0 LINE",
"272 708 LINE",
"50 708 LINE"
);
},
{
closed = 1;
nodes = (
"237 359 LINE",
"478 0 LINE",
"742 0 LINE",
"477 375 LINE",
"453 329 LINE",
"726 708 LINE",
"475 708 LINE"
);
}
);
width = 755;
},
{
anchors = (
{
name = bottom;
position = "{317, 0}";
},
{
name = top;
position = "{317, 696}";
}
);
layerId = "9F449CCD-E345-45F6-B35A-9ED3AC8C514F";
paths = (
{
closed = 1;
nodes = (
"75 0 LINE",
"189 0 LINE",
"189 695 LINE",
"75 695 LINE"
);
},
{
closed = 1;
nodes = (
"160 344 LINE",
"458 0 LINE",
"607 0 LINE",
"288 360 LINE",
"277 321 LINE",
"602 695 LINE",
"459 695 LINE"
);
}
);
width = 633;
},
{
anchors = (
{
name = bottom;
position = "{255, 0}";
},
{
name = top;
position = "{255, 683}";
}
);
layerId = "C750DB68-0E3A-4F82-99EB-66CF08B4C668";
paths = (
{
closed = 1;
nodes = (
"85 0 LINE",
"105 0 LINE",
"105 704 LINE",
"85 704 LINE"
);
},
{
closed = 1;
nodes = (
"90 351 LINE",
"447 0 LINE",
"474 0 LINE",
"110 359 LINE",
"113 348 LINE",
"474 704 LINE",
"447 704 LINE"
);
}
);
width = 494;
}
);
unicode = 004B;
},
{
glyphname = Kcommaaccent;
layers = (
{
anchors = (
{
name = _bottom;
position = "{399, 0}";
}
);
layerId = "BB8AC870-C874-407B-AC42-534954A140D1";
paths = (
{
closed = 1;
nodes = (
"319 -35 LINE",
"319 -182 LINE",
"391 -182 LINE",
"391 -193 LINE SMOOTH",
"391 -245 OFFCURVE",
"370 -268 OFFCURVE",
"336 -268 CURVE",
"336 -346 LINE",
"449 -346 OFFCURVE",
"500 -266 OFFCURVE",
"500 -170 CURVE SMOOTH",
"500 -128 OFFCURVE",
"493 -82 OFFCURVE",
"475 -35 CURVE"
);
},
{
closed = 1;
nodes = (
"50 0 LINE",
"272 0 LINE",
"272 708 LINE",
"50 708 LINE"
);
},
{
closed = 1;
nodes = (
"237 359 LINE",
"478 0 LINE",
"742 0 LINE",
"477 375 LINE",
"453 329 LINE",
"726 708 LINE",
"475 708 LINE"
);
}
);
width = 798;
},
{
anchors = (
{
name = _bottom;
position = "{317, 0}";
}
);
layerId = "9F449CCD-E345-45F6-B35A-9ED3AC8C514F";
paths = (
{
closed = 1;
nodes = (
"262 -46 LINE",
"262 -142 LINE",
"315 -142 LINE",
"315 -163 LINE SMOOTH",
"315 -201 OFFCURVE",
"300 -220 OFFCURVE",
"267 -220 CURVE",
"267 -270 LINE",
"341 -270 OFFCURVE",
"379 -228 OFFCURVE",
"379 -145 CURVE SMOOTH",
"379 -116 OFFCURVE",
"375 -83 OFFCURVE",
"365 -46 CURVE"
);
},
{
closed = 1;
nodes = (
"75 0 LINE",
"189 0 LINE",
"189 695 LINE",
"75 695 LINE"
);
},
{
closed = 1;
nodes = (
"160 344 LINE",
"458 0 LINE",
"607 0 LINE",
"288 360 LINE",
"277 321 LINE",
"602 695 LINE",
"459 695 LINE"
);
}
);
width = 633;
},
{
anchors = (
{
name = _bottom;
position = "{241, 0}";
}
);
layerId = "C750DB68-0E3A-4F82-99EB-66CF08B4C668";
paths = (
{
closed = 1;
nodes = (
"217 -59 LINE",
"217 -97 LINE",
"248 -97 LINE",
"248 -104 LINE SMOOTH",
"248 -137 OFFCURVE",
"237 -158 OFFCURVE",
"205 -158 CURVE",
"205 -176 LINE",
"241 -176 OFFCURVE",
"270 -161 OFFCURVE",
"270 -90 CURVE SMOOTH",
"270 -81 OFFCURVE",
"269 -68 OFFCURVE",
"268 -59 CURVE"
);
},
{
closed = 1;
nodes = (
"85 0 LINE",
"105 0 LINE",
"105 704 LINE",
"85 704 LINE"
);
},
{
closed = 1;
nodes = (
"90 351 LINE",
"447 0 LINE",
"474 0 LINE",
"110 359 LINE",
"113 348 LINE",
"474 704 LINE",
"447 704 LINE"
);
}
);
width = 494;
}
);
unicode = 0136;
},
{
glyphname = L;
layers = (
{
anchors = (
{
name = bottom;
position = "{265, 0}";
},
{
name = commaaccent;
position = "{265, 10}";
},
{
name = top;
position = "{231, 711}";
},
{
name = topright;
position = "{466, 711}";
}
);
layerId = "BB8AC870-C874-407B-AC42-534954A140D1";
paths = (
{
closed = 1;
nodes = (
"50 708 LINE",
"50 0 LINE",
"486 0 LINE",
"486 168 LINE",
"272 168 LINE",
"272 708 LINE"
);
}
);
width = 506;
},
{
anchors = (
{
name = bottom;
position = "{248, 0}";
},
{
name = commaaccent;
position = "{248, 10}";
},
{
name = top;
position = "{222, 696}";
},
{
name = topright;
position = "{424, 696}";
}
);
layerId = "9F449CCD-E345-45F6-B35A-9ED3AC8C514F";
paths = (
{
closed = 1;
nodes = (
"75 695 LINE",
"75 0 LINE",
"424 0 LINE",
"424 92 LINE",
"189 92 LINE",
"189 695 LINE"
);
}
);
width = 444;
},
{
anchors = (
{
name = bottom;
position = "{220, 0}";
},
{
name = commaaccent;
position = "{220, 10}";
},
{
name = top;
position = "{202, 683}";
},
{
name = topright;
position = "{375, 683}";
}
);
layerId = "C750DB68-0E3A-4F82-99EB-66CF08B4C668";
paths = (
{
closed = 1;
nodes = (
"85 704 LINE",
"85 0 LINE",
"375 0 LINE",
"375 18 LINE",
"105 18 LINE",
"105 704 LINE"
);
}
);
width = 395;
}
);
unicode = 004C;
},
{
glyphname = Lacute;
layers = (
{
layerId = "BB8AC870-C874-407B-AC42-534954A140D1";
paths = (
{
closed = 1;
nodes = (
"50 708 LINE",
"50 0 LINE",
"486 0 LINE",
"486 168 LINE",
"272 168 LINE",
"272 708 LINE"
);
},
{
closed = 1;
nodes = (
"100 897 LINE",
"100 749 LINE",
"359 843 LINE",
"359 1007 LINE"
);
}
);
width = 506;
},
{
layerId = "9F449CCD-E345-45F6-B35A-9ED3AC8C514F";
paths = (
{
closed = 1;
nodes = (
"75 695 LINE",
"75 0 LINE",
"424 0 LINE",
"424 92 LINE",
"189 92 LINE",
"189 695 LINE"
);
},
{
closed = 1;
nodes = (
"104 819 LINE",
"104 735 LINE",
"325 844 LINE",
"325 941 LINE"
);
}
);
width = 444;
},
{
layerId = "C750DB68-0E3A-4F82-99EB-66CF08B4C668";
paths = (
{
closed = 1;
nodes = (
"85 704 LINE",
"85 0 LINE",
"375 0 LINE",
"375 18 LINE",
"105 18 LINE",
"105 704 LINE"
);
},
{
closed = 1;
nodes = (
"95 749 LINE",
"95 729 LINE",
"282 859 LINE",
"282 883 LINE"
);
}
);
width = 395;
}
);
unicode = 0139;
},
{
glyphname = Lcaron;
layers = (
{
anchors = (
{
name = _bottom;
position = "{449, 743}";
}
);
layerId = "BB8AC870-C874-407B-AC42-534954A140D1";
paths = (
{
closed = 1;
nodes = (
"369 708 LINE",
"369 562 LINE",
"441 562 LINE",
"441 550 LINE SMOOTH",
"441 499 OFFCURVE",
"420 476 OFFCURVE",
"386 476 CURVE",
"386 397 LINE",
"499 397 OFFCURVE",
"550 477 OFFCURVE",
"550 574 CURVE SMOOTH",
"550 616 OFFCURVE",
"543 662 OFFCURVE",
"525 708 CURVE"
);
},
{
closed = 1;
nodes = (
"50 708 LINE",
"50 0 LINE",
"486 0 LINE",
"486 168 LINE",
"272 168 LINE",
"272 708 LINE"
);
}
);
width = 577;
},
{
anchors = (
{
name = _bottom;
position = "{352, 741}";
}
);
layerId = "9F449CCD-E345-45F6-B35A-9ED3AC8C514F";
paths = (
{
closed = 1;
nodes = (
"297 695 LINE",
"297 599 LINE",
"350 599 LINE",
"350 578 LINE SMOOTH",
"350 540 OFFCURVE",
"335 521 OFFCURVE",
"302 521 CURVE",
"302 471 LINE",
"376 471 OFFCURVE",
"414 513 OFFCURVE",
"414 596 CURVE SMOOTH",
"414 625 OFFCURVE",
"410 658 OFFCURVE",
"400 695 CURVE"
);
},
{
closed = 1;
nodes = (
"75 695 LINE",
"75 0 LINE",
"424 0 LINE",
"424 92 LINE",
"189 92 LINE",
"189 695 LINE"
);
}
);
width = 463;
},
{
anchors = (
{
name = _bottom;
position = "{259, 740}";
}
);
layerId = "C750DB68-0E3A-4F82-99EB-66CF08B4C668";
paths = (
{
closed = 1;
nodes = (
"232 704 LINE",
"232 651 LINE",
"270 651 LINE",
"270 622 LINE SMOOTH",
"270 593 OFFCURVE",
"260 577 OFFCURVE",
"225 577 CURVE",
"225 557 LINE",
"265 557 OFFCURVE",
"292 572 OFFCURVE",
"292 635 CURVE SMOOTH",
"292 653 OFFCURVE",
"291 675 OFFCURVE",
"288 704 CURVE"
);
},
{
closed = 1;
nodes = (
"85 704 LINE",
"85 0 LINE",
"375 0 LINE",
"375 18 LINE",
"105 18 LINE",
"105 704 LINE"
);
}
);
width = 395;
}
);
unicode = 013D;
},
{
glyphname = Lcommaaccent;
layers = (
{
anchors = (
{
name = _commaaccent;
position = "{290, 10}";
}
);
layerId = "BB8AC870-C874-407B-AC42-534954A140D1";
paths = (
{
closed = 1;
nodes = (
"210 -35 LINE",
"210 -182 LINE",
"282 -182 LINE",
"282 -193 LINE SMOOTH",
"282 -245 OFFCURVE",
"262 -268 OFFCURVE",
"227 -268 CURVE",
"227 -346 LINE",
"341 -346 OFFCURVE",
"392 -266 OFFCURVE",
"392 -170 CURVE SMOOTH",
"392 -128 OFFCURVE",
"384 -82 OFFCURVE",
"366 -35 CURVE"
);
},
{
closed = 1;
nodes = (
"50 708 LINE",
"50 0 LINE",
"486 0 LINE",
"486 168 LINE",
"272 168 LINE",
"272 708 LINE"
);
}
);
width = 511;
},
{
anchors = (
{
name = _commaaccent;
position = "{248, 0}";
}
);
layerId = "9F449CCD-E345-45F6-B35A-9ED3AC8C514F";
paths = (
{
closed = 1;
nodes = (
"193 -46 LINE",
"193 -142 LINE",
"246 -142 LINE",
"246 -163 LINE SMOOTH",
"246 -201 OFFCURVE",
"231 -220 OFFCURVE",
"197 -220 CURVE",
"197 -270 LINE",
"272 -270 OFFCURVE",
"310 -228 OFFCURVE",
"310 -145 CURVE SMOOTH",
"310 -116 OFFCURVE",
"306 -83 OFFCURVE",
"296 -46 CURVE"
);
},
{
closed = 1;
nodes = (
"75 695 LINE",
"75 0 LINE",
"424 0 LINE",
"424 92 LINE",
"189 92 LINE",
"189 695 LINE"
);
}
);
width = 444;
},
{
anchors = (
{
name = _commaaccent;
position = "{231, 0}";
}
);
layerId = "C750DB68-0E3A-4F82-99EB-66CF08B4C668";
paths = (
{
closed = 1;
nodes = (
"207 -59 LINE",
"207 -97 LINE",
"238 -97 LINE",
"238 -104 LINE SMOOTH",
"238 -137 OFFCURVE",
"227 -158 OFFCURVE",
"195 -158 CURVE",
"195 -176 LINE",
"231 -176 OFFCURVE",
"260 -161 OFFCURVE",
"260 -90 CURVE SMOOTH",
"260 -81 OFFCURVE",
"259 -68 OFFCURVE",
"258 -59 CURVE"
);
},
{
closed = 1;
nodes = (
"85 704 LINE",
"85 0 LINE",
"375 0 LINE",
"375 18 LINE",
"105 18 LINE",
"105 704 LINE"
);
}
);
width = 395;
}
);
unicode = 013B;
},
{
color = 4;
glyphname = Ldot;
layers = (
{
layerId = "BB8AC870-C874-407B-AC42-534954A140D1";
paths = (
{
closed = 1;
nodes = (
"486 0 LINE",
"486 168 LINE",
"272 168 LINE",
"272 708 LINE",
"50 708 LINE",
"50 0 LINE"
);
},
{
closed = 1;
nodes = (
"464 327 OFFCURVE",
"501 364 OFFCURVE",
"501 412 CURVE SMOOTH",
"501 462 OFFCURVE",
"464 499 OFFCURVE",
"414 499 CURVE SMOOTH",
"366 499 OFFCURVE",
"329 462 OFFCURVE",
"329 412 CURVE SMOOTH",
"329 364 OFFCURVE",
"366 327 OFFCURVE",
"414 327 CURVE SMOOTH"
);
}
);
width = 506;
},
{
layerId = "9F449CCD-E345-45F6-B35A-9ED3AC8C514F";
paths = (
{
closed = 1;
nodes = (
"424 0 LINE",
"424 92 LINE",
"189 92 LINE",
"189 695 LINE",
"75 695 LINE",
"75 0 LINE"
);
},
{
closed = 1;
nodes = (
"385 315 OFFCURVE",
"412 341 OFFCURVE",
"412 375 CURVE SMOOTH",
"412 408 OFFCURVE",
"385 435 OFFCURVE",
"352 435 CURVE SMOOTH",
"318 435 OFFCURVE",
"292 408 OFFCURVE",
"292 375 CURVE SMOOTH",
"292 341 OFFCURVE",
"318 315 OFFCURVE",
"352 315 CURVE SMOOTH"
);
}
);
width = 444;
},
{
layerId = "C750DB68-0E3A-4F82-99EB-66CF08B4C668";
paths = (
{
closed = 1;
nodes = (
"375 0 LINE",
"375 18 LINE",
"105 18 LINE",
"105 704 LINE",
"85 704 LINE",
"85 0 LINE"
);
},
{
closed = 1;
nodes = (
"338 348 OFFCURVE",
"352 362 OFFCURVE",
"352 378 CURVE SMOOTH",
"352 394 OFFCURVE",
"338 408 OFFCURVE",
"322 408 CURVE SMOOTH",
"306 408 OFFCURVE",
"292 394 OFFCURVE",
"292 378 CURVE SMOOTH",
"292 362 OFFCURVE",
"306 348 OFFCURVE",
"322 348 CURVE SMOOTH"
);
}
);
width = 395;
}
);
unicode = 013F;
},
{
glyphname = Lslash;
layers = (
{
layerId = "BB8AC870-C874-407B-AC42-534954A140D1";
paths = (
{
closed = 1;
nodes = (
"10 241 LINE",
"362 338 LINE",
"362 534 LINE",
"10 437 LINE"
);
},
{
closed = 1;
nodes = (
"65 708 LINE",
"65 0 LINE",
"501 0 LINE",
"501 168 LINE",
"287 168 LINE",
"287 708 LINE"
);
}
);
width = 521;
},
{
layerId = "9F449CCD-E345-45F6-B35A-9ED3AC8C514F";
paths = (
{
closed = 1;
nodes = (
"9 267 LINE",
"293 359 LINE",
"293 446 LINE",
"9 353 LINE"
);
},
{
closed = 1;
nodes = (
"86 695 LINE",
"86 0 LINE",
"435 0 LINE",
"435 87 LINE",
"201 87 LINE",
"201 695 LINE"
);
}
);
width = 444;
},
{
layerId = "C750DB68-0E3A-4F82-99EB-66CF08B4C668";
paths = (
{
closed = 1;
nodes = (
"10 314 LINE",
"286 444 LINE",
"286 464 LINE",
"10 334 LINE"
);
},
{
closed = 1;
nodes = (
"105 704 LINE",
"105 0 LINE",
"395 0 LINE",
"395 18 LINE",
"125 18 LINE",
"125 704 LINE"
);
}
);
width = 415;
}
);
unicode = 0141;
},
{
glyphname = M;
layers = (
{
layerId = "BB8AC870-C874-407B-AC42-534954A140D1";
paths = (
{
closed = 1;
nodes = (
"50 0 LINE",
"272 0 LINE",
"272 579 LINE",
"207 564 LINE",
"381 0 LINE",
"571 0 LINE",
"745 564 LINE",
"680 579 LINE",
"680 0 LINE",
"901 0 LINE",
"901 708 LINE",
"630 708 LINE",
"427 139 LINE",
"524 159 LINE",
"322 708 LINE",
"50 708 LINE"
);
}
);
width = 951;
},
{
layerId = "9F449CCD-E345-45F6-B35A-9ED3AC8C514F";
paths = (
{
closed = 1;
nodes = (
"75 0 LINE",
"189 0 LINE",
"189 584 LINE",
"143 579 LINE",
"402 0 LINE",
"481 0 LINE",
"739 579 LINE",
"693 584 LINE",
"693 0 LINE",
"807 0 LINE",
"807 695 LINE",
"685 695 LINE",
"421 104 LINE",
"462 104 LINE",
"198 695 LINE",
"75 695 LINE"
);
}
);
width = 882;
},
{
guideLines = (
{
angle = 245.99;
position = "{563, 350}";
}
);
layerId = "C750DB68-0E3A-4F82-99EB-66CF08B4C668";
paths = (
{
closed = 1;
nodes = (
"85 0 LINE",
"105 0 LINE",
"105 639 LINE",
"101 644 LINE",
"389 0 LINE",
"409 0 LINE",
"696 644 LINE",
"692 639 LINE",
"692 0 LINE",
"712 0 LINE",
"712 684 LINE",
"692 684 LINE",
"394 15 LINE",
"404 15 LINE",
"105 684 LINE",
"85 684 LINE"
);
}
);
width = 797;
}
);
unicode = 004D;
},
{
glyphname = N;
layers = (
{
anchors = (
{
name = bottom;
position = "{389, 0}";
},
{
name = top;
position = "{389, 711}";
}
);
layerId = "BB8AC870-C874-407B-AC42-534954A140D1";
paths = (
{
closed = 1;
nodes = (
"507 708 LINE",
"507 346 LINE",
"272 708 LINE",
"50 708 LINE",
"50 0 LINE",
"272 0 LINE",
"272 356 LINE",
"507 0 LINE",
"729 0 LINE",
"729 708 LINE"
);
}
);
width = 779;
},
{
anchors = (
{
name = bottom;
position = "{361, 0}";
},
{
name = top;
position = "{361, 696}";
}
);
layerId = "9F449CCD-E345-45F6-B35A-9ED3AC8C514F";
paths = (
{
closed = 1;
nodes = (
"532 696 LINE",
"532 178 LINE",
"189 696 LINE",
"75 696 LINE",
"75 0 LINE",
"189 0 LINE",
"189 519 LINE",
"532 0 LINE",
"646 0 LINE",
"646 696 LINE"
);
}
);
width = 721;
},
{
anchors = (
{
name = bottom;
position = "{324, 0}";
},
{
name = top;
position = "{324, 683}";
}
);
layerId = "C750DB68-0E3A-4F82-99EB-66CF08B4C668";
paths = (
{
closed = 1;
nodes = (
"542 703 LINE",
"542 37 LINE",
"105 703 LINE",
"85 703 LINE",
"85 0 LINE",
"105 0 LINE",
"105 667 LINE",
"542 0 LINE",
"562 0 LINE",
"562 703 LINE"
);
}
);
width = 647;
}
);
unicode = 004E;
},
{
glyphname = Nacute;
layers = (
{
layerId = "BB8AC870-C874-407B-AC42-534954A140D1";
paths = (
{
closed = 1;
nodes = (
"507 708 LINE",
"507 346 LINE",
"272 708 LINE",
"50 708 LINE",
"50 0 LINE",
"272 0 LINE",
"272 356 LINE",
"507 0 LINE",
"729 0 LINE",
"729 708 LINE"
);
},
{
closed = 1;
nodes = (
"258 897 LINE",
"258 749 LINE",
"517 843 LINE",
"517 1007 LINE"
);
}
);
width = 779;
},
{
layerId = "9F449CCD-E345-45F6-B35A-9ED3AC8C514F";
paths = (
{
closed = 1;
nodes = (
"532 696 LINE",
"532 178 LINE",
"189 696 LINE",
"75 696 LINE",
"75 0 LINE",
"189 0 LINE",
"189 519 LINE",
"532 0 LINE",
"646 0 LINE",
"646 696 LINE"
);
},
{
closed = 1;
nodes = (
"243 819 LINE",
"243 735 LINE",
"464 844 LINE",
"464 941 LINE"
);
}
);
width = 721;
},
{
layerId = "C750DB68-0E3A-4F82-99EB-66CF08B4C668";
paths = (
{
closed = 1;
nodes = (
"542 703 LINE",
"542 37 LINE",
"105 703 LINE",
"85 703 LINE",
"85 0 LINE",
"105 0 LINE",
"105 667 LINE",
"542 0 LINE",
"562 0 LINE",
"562 703 LINE"
);
},
{
closed = 1;
nodes = (
"217 749 LINE",
"217 729 LINE",
"404 859 LINE",
"404 883 LINE"
);
}
);
width = 647;
}
);
unicode = 0143;
},
{
glyphname = Ncaron;
layers = (
{
layerId = "BB8AC870-C874-407B-AC42-534954A140D1";
paths = (
{
closed = 1;
nodes = (
"507 708 LINE",
"507 346 LINE",
"272 708 LINE",
"50 708 LINE",
"50 0 LINE",
"272 0 LINE",
"272 356 LINE",
"507 0 LINE",
"729 0 LINE",
"729 708 LINE"
);
},
{
closed = 1;
nodes = (
"389 880 LINE",
"223 968 LINE",
"223 824 LINE",
"389 749 LINE",
"554 824 LINE",
"554 968 LINE"
);
}
);
width = 779;
},
{
layerId = "9F449CCD-E345-45F6-B35A-9ED3AC8C514F";
paths = (
{
closed = 1;
nodes = (
"532 696 LINE",
"532 178 LINE",
"189 696 LINE",
"75 696 LINE",
"75 0 LINE",
"189 0 LINE",
"189 519 LINE",
"532 0 LINE",
"646 0 LINE",
"646 696 LINE"
);
},
{
closed = 1;
nodes = (
"361 821 LINE",
"218 907 LINE",
"218 818 LINE",
"361 735 LINE",
"504 818 LINE",
"504 907 LINE"
);
}
);
width = 721;
},
{
layerId = "C750DB68-0E3A-4F82-99EB-66CF08B4C668";
paths = (
{
closed = 1;
nodes = (
"542 703 LINE",
"542 37 LINE",
"105 703 LINE",
"85 703 LINE",
"85 0 LINE",
"105 0 LINE",
"105 667 LINE",
"542 0 LINE",
"562 0 LINE",
"562 703 LINE"
);
},
{
closed = 1;
nodes = (
"324 780 LINE",
"200 861 LINE",
"200 841 LINE",
"324 760 LINE",
"447 841 LINE",
"447 861 LINE"
);
}
);
width = 647;
}
);
unicode = 0147;
},
{
glyphname = Ncommaaccent;
layers = (
{
anchors = (
{
name = _bottom;
position = "{414, 0}";
}
);
layerId = "BB8AC870-C874-407B-AC42-534954A140D1";
paths = (
{
closed = 1;
nodes = (
"334 -35 LINE",
"334 -182 LINE",
"406 -182 LINE",
"406 -193 LINE SMOOTH",
"406 -245 OFFCURVE",
"386 -268 OFFCURVE",
"351 -268 CURVE",
"351 -346 LINE",
"465 -346 OFFCURVE",
"516 -266 OFFCURVE",
"516 -170 CURVE SMOOTH",
"516 -128 OFFCURVE",
"508 -82 OFFCURVE",
"490 -35 CURVE"
);
},
{
closed = 1;
nodes = (
"507 708 LINE",
"507 346 LINE",
"272 708 LINE",
"50 708 LINE",
"50 0 LINE",
"272 0 LINE",
"272 356 LINE",
"507 0 LINE",
"729 0 LINE",
"729 708 LINE"
);
}
);
width = 829;
},
{
anchors = (
{
name = _bottom;
position = "{361, 0}";
}
);
layerId = "9F449CCD-E345-45F6-B35A-9ED3AC8C514F";
paths = (
{
closed = 1;
nodes = (
"306 -46 LINE",
"306 -142 LINE",
"359 -142 LINE",
"359 -163 LINE SMOOTH",
"359 -201 OFFCURVE",
"344 -220 OFFCURVE",
"311 -220 CURVE",
"311 -270 LINE",
"385 -270 OFFCURVE",
"423 -228 OFFCURVE",
"423 -145 CURVE SMOOTH",
"423 -116 OFFCURVE",
"419 -83 OFFCURVE",
"409 -46 CURVE"
);
},
{
closed = 1;
nodes = (
"532 696 LINE",
"532 178 LINE",
"189 696 LINE",
"75 696 LINE",
"75 0 LINE",
"189 0 LINE",
"189 519 LINE",
"532 0 LINE",
"646 0 LINE",
"646 696 LINE"
);
}
);
width = 721;
},
{
anchors = (
{
name = _bottom;
position = "{323, 0}";
}
);
layerId = "C750DB68-0E3A-4F82-99EB-66CF08B4C668";
paths = (
{
closed = 1;
nodes = (
"297 -59 LINE",
"297 -97 LINE",
"328 -97 LINE",
"328 -104 LINE SMOOTH",
"328 -137 OFFCURVE",
"317 -158 OFFCURVE",
"285 -158 CURVE",
"285 -176 LINE",
"321 -176 OFFCURVE",
"350 -161 OFFCURVE",
"350 -90 CURVE SMOOTH",
"350 -81 OFFCURVE",
"349 -68 OFFCURVE",
"348 -59 CURVE"
);
},
{
closed = 1;
nodes = (
"542 703 LINE",
"542 37 LINE",
"105 703 LINE",
"85 703 LINE",
"85 0 LINE",
"105 0 LINE",
"105 667 LINE",
"542 0 LINE",
"562 0 LINE",
"562 703 LINE"
);
}
);
width = 647;
}
);
unicode = 0145;
},
{
glyphname = Ntilde;
layers = (
{
layerId = "BB8AC870-C874-407B-AC42-534954A140D1";
paths = (
{
closed = 1;
nodes = (
"507 708 LINE",
"507 346 LINE",
"272 708 LINE",
"50 708 LINE",
"50 0 LINE",
"272 0 LINE",
"272 356 LINE",
"507 0 LINE",
"729 0 LINE",
"729 708 LINE"
);
},
{
closed = 1;
nodes = (
"263 749 LINE",
"269 782 OFFCURVE",
"284 796 OFFCURVE",
"308 796 CURVE SMOOTH",
"348 796 OFFCURVE",
"387 751 OFFCURVE",
"452 751 CURVE SMOOTH",
"534 751 OFFCURVE",
"591 798 OFFCURVE",
"613 926 CURVE",
"504 926 LINE",
"499 894 OFFCURVE",
"484 879 OFFCURVE",
"460 879 CURVE SMOOTH",
"420 879 OFFCURVE",
"381 925 OFFCURVE",
"316 925 CURVE SMOOTH",
"234 925 OFFCURVE",
"177 877 OFFCURVE",
"155 749 CURVE"
);
}
);
width = 779;
},
{
layerId = "9F449CCD-E345-45F6-B35A-9ED3AC8C514F";
paths = (
{
closed = 1;
nodes = (
"532 696 LINE",
"532 178 LINE",
"189 696 LINE",
"75 696 LINE",
"75 0 LINE",
"189 0 LINE",
"189 519 LINE",
"532 0 LINE",
"646 0 LINE",
"646 696 LINE"
);
},
{
closed = 1;
nodes = (
"262 753 LINE",
"266 782 OFFCURVE",
"283 796 OFFCURVE",
"305 796 CURVE SMOOTH",
"345 796 OFFCURVE",
"367 751 OFFCURVE",
"421 751 CURVE SMOOTH",
"479 751 OFFCURVE",
"523 789 OFFCURVE",
"534 868 CURVE",
"470 868 LINE",
"466 839 OFFCURVE",
"449 826 OFFCURVE",
"427 826 CURVE SMOOTH",
"387 826 OFFCURVE",
"365 870 OFFCURVE",
"311 870 CURVE SMOOTH",
"253 870 OFFCURVE",
"209 832 OFFCURVE",
"198 753 CURVE"
);
}
);
width = 721;
},
{
layerId = "C750DB68-0E3A-4F82-99EB-66CF08B4C668";
paths = (
{
closed = 1;
nodes = (
"542 703 LINE",
"542 37 LINE",
"105 703 LINE",
"85 703 LINE",
"85 0 LINE",
"105 0 LINE",
"105 667 LINE",
"542 0 LINE",
"562 0 LINE",
"562 703 LINE"
);
},
{
closed = 1;
nodes = (
"246 747 LINE",
"250 780 OFFCURVE",
"265 795 OFFCURVE",
"288 795 CURVE SMOOTH",
"330 795 OFFCURVE",
"344 745 OFFCURVE",
"396 745 CURVE SMOOTH",
"430 745 OFFCURVE",
"456 774 OFFCURVE",
"458 810 CURVE",
"440 810 LINE",
"436 779 OFFCURVE",
"417 763 OFFCURVE",
"396 763 CURVE SMOOTH",
"349 763 OFFCURVE",
"338 813 OFFCURVE",
"288 813 CURVE SMOOTH",
"254 813 OFFCURVE",
"233 787 OFFCURVE",
"228 747 CURVE"
);
}
);
width = 647;
}
);
unicode = 00D1;
},
{
glyphname = O;
layers = (
{
layerId = "4DB8C1DB-135D-4124-8C04-65EC99FCBCEB";
name = public.background;
paths = (
{
closed = 1;
nodes = (
"10 140 OFFCURVE",
"143 -7 OFFCURVE",
"339 -7 CURVE SMOOTH",
"537 -7 OFFCURVE",
"720 140 OFFCURVE",
"757 349 CURVE SMOOTH",
"794 557 OFFCURVE",
"662 704 OFFCURVE",
"464 704 CURVE SMOOTH",
"268 704 OFFCURVE",
"84 557 OFFCURVE",
"47 349 CURVE SMOOTH"
);
},
{
closed = 1;
nodes = (
"613 196 OFFCURVE",
"495 96 OFFCURVE",
"357 96 CURVE SMOOTH",
"219 96 OFFCURVE",
"137 196 OFFCURVE",
"164 349 CURVE SMOOTH",
"191 502 OFFCURVE",
"308 600 OFFCURVE",
"446 600 CURVE SMOOTH",
"584 600 OFFCURVE",
"667 502 OFFCURVE",
"640 349 CURVE SMOOTH"
);
}
);
width = 792;
},
{
layerId = "4DB8C1DB-135D-4124-8C04-65EC99FCBCEB";
name = public.background;
paths = (
{
closed = 1;
nodes = (
"11 161 OFFCURVE",
"129 -7 OFFCURVE",
"374 -7 CURVE SMOOTH",
"583 -7 OFFCURVE",
"728 127 OFFCURVE",
"761 317 CURVE SMOOTH",
"802 553 OFFCURVE",
"678 720 OFFCURVE",
"442 720 CURVE SMOOTH",
"232 720 OFFCURVE",
"87 587 OFFCURVE",
"53 397 CURVE SMOOTH"
);
},
{
closed = 1;
nodes = (
"530 259 OFFCURVE",
"474 200 OFFCURVE",
"390 200 CURVE SMOOTH",
"291 200 OFFCURVE",
"252 267 OFFCURVE",
"269 367 CURVE SMOOTH",
"284 457 OFFCURVE",
"341 515 OFFCURVE",
"426 515 CURVE SMOOTH",
"523 515 OFFCURVE",
"565 449 OFFCURVE",
"546 347 CURVE SMOOTH"
);
}
);
width = 792;
},
{
anchors = (
{
name = top;
position = "{395, 711}";
}
);
layerId = "BB8AC870-C874-407B-AC42-534954A140D1";
paths = (
{
closed = 1;
nodes = (
"595 -7 OFFCURVE",
"758 144 OFFCURVE",
"758 357 CURVE SMOOTH",
"758 570 OFFCURVE",
"597 720 OFFCURVE",
"395 720 CURVE SMOOTH",
"194 720 OFFCURVE",
"30 570 OFFCURVE",
"30 357 CURVE SMOOTH",
"30 144 OFFCURVE",
"194 -7 OFFCURVE",
"395 -7 CURVE SMOOTH"
);
},
{
closed = 1;
nodes = (
"304 200 OFFCURVE",
"256 263 OFFCURVE",
"256 357 CURVE SMOOTH",
"256 453 OFFCURVE",
"304 515 OFFCURVE",
"395 515 CURVE SMOOTH",
"484 515 OFFCURVE",
"533 453 OFFCURVE",
"533 357 CURVE SMOOTH",
"533 263 OFFCURVE",
"484 200 OFFCURVE",
"395 200 CURVE SMOOTH"
);
}
);
width = 788;
},
{
anchors = (
{
name = top;
position = "{392, 696}";
}
);
layerId = "9F449CCD-E345-45F6-B35A-9ED3AC8C514F";
paths = (
{
closed = 1;
nodes = (
"590 -7 OFFCURVE",
"747 140 OFFCURVE",
"747 349 CURVE SMOOTH",
"747 557 OFFCURVE",
"590 704 OFFCURVE",
"392 704 CURVE SMOOTH",
"196 704 OFFCURVE",
"37 557 OFFCURVE",
"37 349 CURVE SMOOTH",
"37 140 OFFCURVE",
"196 -7 OFFCURVE",
"392 -7 CURVE SMOOTH"
);
},
{
closed = 1;
nodes = (
"254 92 OFFCURVE",
"154 192 OFFCURVE",
"154 349 CURVE SMOOTH",
"154 506 OFFCURVE",
"254 604 OFFCURVE",
"392 604 CURVE SMOOTH",
"530 604 OFFCURVE",
"630 506 OFFCURVE",
"630 349 CURVE SMOOTH",
"630 192 OFFCURVE",
"530 92 OFFCURVE",
"392 92 CURVE SMOOTH"
);
}
);
width = 784;
},
{
anchors = (
{
name = top;
position = "{407, 683}";
}
);
layerId = "C750DB68-0E3A-4F82-99EB-66CF08B4C668";
paths = (
{
closed = 1;
nodes = (
"592 -8 OFFCURVE",
"732 140 OFFCURVE",
"732 351 CURVE SMOOTH",
"732 562 OFFCURVE",
"592 710 OFFCURVE",
"396 710 CURVE SMOOTH",
"200 710 OFFCURVE",
"60 562 OFFCURVE",
"60 351 CURVE SMOOTH",
"60 140 OFFCURVE",
"200 -8 OFFCURVE",
"396 -8 CURVE SMOOTH"
);
},
{
closed = 1;
nodes = (
"221 10 OFFCURVE",
"81 139 OFFCURVE",
"81 351 CURVE SMOOTH",
"81 563 OFFCURVE",
"221 692 OFFCURVE",
"396 692 CURVE SMOOTH",
"571 692 OFFCURVE",
"711 563 OFFCURVE",
"711 351 CURVE SMOOTH",
"711 139 OFFCURVE",
"571 10 OFFCURVE",
"396 10 CURVE SMOOTH"
);
}
);
width = 792;
}
);
unicode = 004F;
},
{
glyphname = Oacute;
layers = (
{
layerId = "BB8AC870-C874-407B-AC42-534954A140D1";
paths = (
{
closed = 1;
nodes = (
"595 -7 OFFCURVE",
"758 144 OFFCURVE",
"758 357 CURVE SMOOTH",
"758 570 OFFCURVE",
"597 720 OFFCURVE",
"395 720 CURVE SMOOTH",
"194 720 OFFCURVE",
"30 570 OFFCURVE",
"30 357 CURVE SMOOTH",
"30 144 OFFCURVE",
"194 -7 OFFCURVE",
"395 -7 CURVE SMOOTH"
);
},
{
closed = 1;
nodes = (
"304 200 OFFCURVE",
"256 263 OFFCURVE",
"256 357 CURVE SMOOTH",
"256 453 OFFCURVE",
"304 515 OFFCURVE",
"395 515 CURVE SMOOTH",
"484 515 OFFCURVE",
"533 453 OFFCURVE",
"533 357 CURVE SMOOTH",
"533 263 OFFCURVE",
"484 200 OFFCURVE",
"395 200 CURVE SMOOTH"
);
},
{
closed = 1;
nodes = (
"264 897 LINE",
"264 749 LINE",
"523 843 LINE",
"523 1007 LINE"
);
}
);
width = 788;
},
{
layerId = "9F449CCD-E345-45F6-B35A-9ED3AC8C514F";
paths = (
{
closed = 1;
nodes = (
"590 -7 OFFCURVE",
"747 140 OFFCURVE",
"747 349 CURVE SMOOTH",
"747 557 OFFCURVE",
"590 704 OFFCURVE",
"392 704 CURVE SMOOTH",
"196 704 OFFCURVE",
"37 557 OFFCURVE",
"37 349 CURVE SMOOTH",
"37 140 OFFCURVE",
"196 -7 OFFCURVE",
"392 -7 CURVE SMOOTH"
);
},
{
closed = 1;
nodes = (
"254 92 OFFCURVE",
"154 192 OFFCURVE",
"154 349 CURVE SMOOTH",
"154 506 OFFCURVE",
"254 604 OFFCURVE",
"392 604 CURVE SMOOTH",
"530 604 OFFCURVE",
"630 506 OFFCURVE",
"630 349 CURVE SMOOTH",
"630 192 OFFCURVE",
"530 92 OFFCURVE",
"392 92 CURVE SMOOTH"
);
},
{
closed = 1;
nodes = (
"274 819 LINE",
"274 735 LINE",
"495 844 LINE",
"495 941 LINE"
);
}
);
width = 784;
},
{
layerId = "C750DB68-0E3A-4F82-99EB-66CF08B4C668";
paths = (
{
closed = 1;
nodes = (
"592 -8 OFFCURVE",
"732 140 OFFCURVE",
"732 351 CURVE SMOOTH",
"732 562 OFFCURVE",
"592 710 OFFCURVE",
"396 710 CURVE SMOOTH",
"200 710 OFFCURVE",
"60 562 OFFCURVE",
"60 351 CURVE SMOOTH",
"60 140 OFFCURVE",
"200 -8 OFFCURVE",
"396 -8 CURVE SMOOTH"
);
},
{
closed = 1;
nodes = (
"221 10 OFFCURVE",
"81 139 OFFCURVE",
"81 351 CURVE SMOOTH",
"81 563 OFFCURVE",
"221 692 OFFCURVE",
"396 692 CURVE SMOOTH",
"571 692 OFFCURVE",
"711 563 OFFCURVE",
"711 351 CURVE SMOOTH",
"711 139 OFFCURVE",
"571 10 OFFCURVE",
"396 10 CURVE SMOOTH"
);
},
{
closed = 1;
nodes = (
"300 749 LINE",
"300 729 LINE",
"487 859 LINE",
"487 883 LINE"
);
}
);
width = 792;
}
);
unicode = 00D3;
},
{
glyphname = Obreve;
layers = (
{
layerId = "BB8AC870-C874-407B-AC42-534954A140D1";
paths = (
{
closed = 1;
nodes = (
"595 -7 OFFCURVE",
"758 144 OFFCURVE",
"758 357 CURVE SMOOTH",
"758 570 OFFCURVE",
"597 720 OFFCURVE",
"395 720 CURVE SMOOTH",
"194 720 OFFCURVE",
"30 570 OFFCURVE",
"30 357 CURVE SMOOTH",
"30 144 OFFCURVE",
"194 -7 OFFCURVE",
"395 -7 CURVE SMOOTH"
);
},
{
closed = 1;
nodes = (
"304 200 OFFCURVE",
"256 263 OFFCURVE",
"256 357 CURVE SMOOTH",
"256 453 OFFCURVE",
"304 515 OFFCURVE",
"395 515 CURVE SMOOTH",
"484 515 OFFCURVE",
"533 453 OFFCURVE",
"533 357 CURVE SMOOTH",
"533 263 OFFCURVE",
"484 200 OFFCURVE",
"395 200 CURVE SMOOTH"
);
},
{
closed = 1;
nodes = (
"583 967 LINE",
"480 967 LINE",
"480 928 OFFCURVE",
"460 905 OFFCURVE",
"395 905 CURVE SMOOTH",
"330 905 OFFCURVE",
"310 928 OFFCURVE",
"310 967 CURVE",
"207 967 LINE",
"207 950 LINE SMOOTH",
"207 812 OFFCURVE",
"290 747 OFFCURVE",
"395 747 CURVE SMOOTH",
"500 747 OFFCURVE",
"583 812 OFFCURVE",
"583 950 CURVE SMOOTH"
);
}
);
width = 788;
},
{
layerId = "9F449CCD-E345-45F6-B35A-9ED3AC8C514F";
paths = (
{
closed = 1;
nodes = (
"590 -7 OFFCURVE",
"747 140 OFFCURVE",
"747 349 CURVE SMOOTH",
"747 557 OFFCURVE",
"590 704 OFFCURVE",
"392 704 CURVE SMOOTH",
"196 704 OFFCURVE",
"37 557 OFFCURVE",
"37 349 CURVE SMOOTH",
"37 140 OFFCURVE",
"196 -7 OFFCURVE",
"392 -7 CURVE SMOOTH"
);
},
{
closed = 1;
nodes = (
"254 92 OFFCURVE",
"154 192 OFFCURVE",
"154 349 CURVE SMOOTH",
"154 506 OFFCURVE",
"254 604 OFFCURVE",
"392 604 CURVE SMOOTH",
"530 604 OFFCURVE",
"630 506 OFFCURVE",
"630 349 CURVE SMOOTH",
"630 192 OFFCURVE",
"530 92 OFFCURVE",
"392 92 CURVE SMOOTH"
);
},
{
closed = 1;
nodes = (
"543 903 LINE",
"477 903 LINE",
"477 858 OFFCURVE",
"457 831 OFFCURVE",
"392 831 CURVE SMOOTH",
"327 831 OFFCURVE",
"307 858 OFFCURVE",
"307 903 CURVE",
"242 903 LINE",
"242 882 LINE SMOOTH",
"242 799 OFFCURVE",
"298 742 OFFCURVE",
"392 742 CURVE SMOOTH",
"487 742 OFFCURVE",
"543 798 OFFCURVE",
"543 881 CURVE SMOOTH"
);
}
);
width = 784;
},
{
layerId = "C750DB68-0E3A-4F82-99EB-66CF08B4C668";
paths = (
{
closed = 1;
nodes = (
"592 -8 OFFCURVE",
"732 140 OFFCURVE",
"732 351 CURVE SMOOTH",
"732 562 OFFCURVE",
"592 710 OFFCURVE",
"396 710 CURVE SMOOTH",
"200 710 OFFCURVE",
"60 562 OFFCURVE",
"60 351 CURVE SMOOTH",
"60 140 OFFCURVE",
"200 -8 OFFCURVE",
"396 -8 CURVE SMOOTH"
);
},
{
closed = 1;
nodes = (
"221 10 OFFCURVE",
"81 139 OFFCURVE",
"81 351 CURVE SMOOTH",
"81 563 OFFCURVE",
"221 692 OFFCURVE",
"396 692 CURVE SMOOTH",
"571 692 OFFCURVE",
"711 563 OFFCURVE",
"711 351 CURVE SMOOTH",
"711 139 OFFCURVE",
"571 10 OFFCURVE",
"396 10 CURVE SMOOTH"
);
},
{
closed = 1;
nodes = (
"525 867 LINE",
"505 867 LINE",
"505 810 OFFCURVE",
"469 777 OFFCURVE",
"407 777 CURVE SMOOTH",
"345 777 OFFCURVE",
"309 810 OFFCURVE",
"309 867 CURVE",
"289 867 LINE",
"289 863 LINE SMOOTH",
"289 815 OFFCURVE",
"322 759 OFFCURVE",
"407 759 CURVE SMOOTH",
"492 759 OFFCURVE",
"525 815 OFFCURVE",
"525 863 CURVE SMOOTH"
);
}
);
width = 792;
}
);
unicode = 014E;
},
{
glyphname = Ocircumflex;
layers = (
{
layerId = "BB8AC870-C874-407B-AC42-534954A140D1";
paths = (
{
closed = 1;
nodes = (
"595 -7 OFFCURVE",
"758 144 OFFCURVE",
"758 357 CURVE SMOOTH",
"758 570 OFFCURVE",
"597 720 OFFCURVE",
"395 720 CURVE SMOOTH",
"194 720 OFFCURVE",
"30 570 OFFCURVE",
"30 357 CURVE SMOOTH",
"30 144 OFFCURVE",
"194 -7 OFFCURVE",
"395 -7 CURVE SMOOTH"
);
},
{
closed = 1;
nodes = (
"304 200 OFFCURVE",
"256 263 OFFCURVE",
"256 357 CURVE SMOOTH",
"256 453 OFFCURVE",
"304 515 OFFCURVE",
"395 515 CURVE SMOOTH",
"484 515 OFFCURVE",
"533 453 OFFCURVE",
"533 357 CURVE SMOOTH",
"533 263 OFFCURVE",
"484 200 OFFCURVE",
"395 200 CURVE SMOOTH"
);
},
{
closed = 1;
nodes = (
"560 893 LINE",
"395 968 LINE",
"229 893 LINE",
"229 749 LINE",
"395 827 LINE",
"560 749 LINE"
);
}
);
width = 788;
},
{
layerId = "9F449CCD-E345-45F6-B35A-9ED3AC8C514F";
paths = (
{
closed = 1;
nodes = (
"590 -7 OFFCURVE",
"747 140 OFFCURVE",
"747 349 CURVE SMOOTH",
"747 557 OFFCURVE",
"590 704 OFFCURVE",
"392 704 CURVE SMOOTH",
"196 704 OFFCURVE",
"37 557 OFFCURVE",
"37 349 CURVE SMOOTH",
"37 140 OFFCURVE",
"196 -7 OFFCURVE",
"392 -7 CURVE SMOOTH"
);
},
{
closed = 1;
nodes = (
"254 92 OFFCURVE",
"154 192 OFFCURVE",
"154 349 CURVE SMOOTH",
"154 506 OFFCURVE",
"254 604 OFFCURVE",
"392 604 CURVE SMOOTH",
"530 604 OFFCURVE",
"630 506 OFFCURVE",
"630 349 CURVE SMOOTH",
"630 192 OFFCURVE",
"530 92 OFFCURVE",
"392 92 CURVE SMOOTH"
);
},
{
closed = 1;
nodes = (
"535 824 LINE",
"392 907 LINE",
"249 824 LINE",
"249 735 LINE",
"392 821 LINE",
"535 735 LINE"
);
}
);
width = 784;
},
{
layerId = "C750DB68-0E3A-4F82-99EB-66CF08B4C668";
paths = (
{
closed = 1;
nodes = (
"592 -8 OFFCURVE",
"732 140 OFFCURVE",
"732 351 CURVE SMOOTH",
"732 562 OFFCURVE",
"592 710 OFFCURVE",
"396 710 CURVE SMOOTH",
"200 710 OFFCURVE",
"60 562 OFFCURVE",
"60 351 CURVE SMOOTH",
"60 140 OFFCURVE",
"200 -8 OFFCURVE",
"396 -8 CURVE SMOOTH"
);
},
{
closed = 1;
nodes = (
"221 10 OFFCURVE",
"81 139 OFFCURVE",
"81 351 CURVE SMOOTH",
"81 563 OFFCURVE",
"221 692 OFFCURVE",
"396 692 CURVE SMOOTH",
"571 692 OFFCURVE",
"711 563 OFFCURVE",
"711 351 CURVE SMOOTH",
"711 139 OFFCURVE",
"571 10 OFFCURVE",
"396 10 CURVE SMOOTH"
);
},
{
closed = 1;
nodes = (
"530 783 LINE",
"407 864 LINE",
"283 783 LINE",
"283 763 LINE",
"407 844 LINE",
"530 763 LINE"
);
}
);
width = 792;
}
);
unicode = 00D4;
},
{
glyphname = Odieresis;
layers = (
{
layerId = "BB8AC870-C874-407B-AC42-534954A140D1";
paths = (
{
closed = 1;
nodes = (
"595 -7 OFFCURVE",
"758 144 OFFCURVE",
"758 357 CURVE SMOOTH",
"758 570 OFFCURVE",
"597 720 OFFCURVE",
"395 720 CURVE SMOOTH",
"194 720 OFFCURVE",
"30 570 OFFCURVE",
"30 357 CURVE SMOOTH",
"30 144 OFFCURVE",
"194 -7 OFFCURVE",
"395 -7 CURVE SMOOTH"
);
},
{
closed = 1;
nodes = (
"304 200 OFFCURVE",
"256 263 OFFCURVE",
"256 357 CURVE SMOOTH",
"256 453 OFFCURVE",
"304 515 OFFCURVE",
"395 515 CURVE SMOOTH",
"484 515 OFFCURVE",
"533 453 OFFCURVE",
"533 357 CURVE SMOOTH",
"533 263 OFFCURVE",
"484 200 OFFCURVE",
"395 200 CURVE SMOOTH"
);
},
{
closed = 1;
nodes = (
"331 767 OFFCURVE",
"368 804 OFFCURVE",
"368 852 CURVE SMOOTH",
"368 902 OFFCURVE",
"331 939 OFFCURVE",
"281 939 CURVE SMOOTH",
"233 939 OFFCURVE",
"196 902 OFFCURVE",
"196 852 CURVE SMOOTH",
"196 804 OFFCURVE",
"233 767 OFFCURVE",
"281 767 CURVE SMOOTH"
);
},
{
closed = 1;
nodes = (
"556 767 OFFCURVE",
"593 804 OFFCURVE",
"593 852 CURVE SMOOTH",
"593 902 OFFCURVE",
"556 939 OFFCURVE",
"506 939 CURVE SMOOTH",
"458 939 OFFCURVE",
"421 902 OFFCURVE",
"421 852 CURVE SMOOTH",
"421 804 OFFCURVE",
"458 767 OFFCURVE",
"506 767 CURVE SMOOTH"
);
}
);
width = 788;
},
{
layerId = "9F449CCD-E345-45F6-B35A-9ED3AC8C514F";
paths = (
{
closed = 1;
nodes = (
"590 -7 OFFCURVE",
"747 140 OFFCURVE",
"747 349 CURVE SMOOTH",
"747 557 OFFCURVE",
"590 704 OFFCURVE",
"392 704 CURVE SMOOTH",
"196 704 OFFCURVE",
"37 557 OFFCURVE",
"37 349 CURVE SMOOTH",
"37 140 OFFCURVE",
"196 -7 OFFCURVE",
"392 -7 CURVE SMOOTH"
);
},
{
closed = 1;
nodes = (
"254 92 OFFCURVE",
"154 192 OFFCURVE",
"154 349 CURVE SMOOTH",
"154 506 OFFCURVE",
"254 604 OFFCURVE",
"392 604 CURVE SMOOTH",
"530 604 OFFCURVE",
"630 506 OFFCURVE",
"630 349 CURVE SMOOTH",
"630 192 OFFCURVE",
"530 92 OFFCURVE",
"392 92 CURVE SMOOTH"
);
},
{
closed = 1;
nodes = (
"339 765 OFFCURVE",
"366 791 OFFCURVE",
"366 825 CURVE SMOOTH",
"366 858 OFFCURVE",
"339 885 OFFCURVE",
"306 885 CURVE SMOOTH",
"272 885 OFFCURVE",
"246 858 OFFCURVE",
"246 825 CURVE SMOOTH",
"246 791 OFFCURVE",
"272 765 OFFCURVE",
"306 765 CURVE SMOOTH"
);
},
{
closed = 1;
nodes = (
"511 765 OFFCURVE",
"538 791 OFFCURVE",
"538 825 CURVE SMOOTH",
"538 858 OFFCURVE",
"511 885 OFFCURVE",
"478 885 CURVE SMOOTH",
"444 885 OFFCURVE",
"418 858 OFFCURVE",
"418 825 CURVE SMOOTH",
"418 791 OFFCURVE",
"444 765 OFFCURVE",
"478 765 CURVE SMOOTH"
);
}
);
width = 784;
},
{
layerId = "C750DB68-0E3A-4F82-99EB-66CF08B4C668";
paths = (
{
closed = 1;
nodes = (
"592 -8 OFFCURVE",
"732 140 OFFCURVE",
"732 351 CURVE SMOOTH",
"732 562 OFFCURVE",
"592 710 OFFCURVE",
"396 710 CURVE SMOOTH",
"200 710 OFFCURVE",
"60 562 OFFCURVE",
"60 351 CURVE SMOOTH",
"60 140 OFFCURVE",
"200 -8 OFFCURVE",
"396 -8 CURVE SMOOTH"
);
},
{
closed = 1;
nodes = (
"221 10 OFFCURVE",
"81 139 OFFCURVE",
"81 351 CURVE SMOOTH",
"81 563 OFFCURVE",
"221 692 OFFCURVE",
"396 692 CURVE SMOOTH",
"571 692 OFFCURVE",
"711 563 OFFCURVE",
"711 351 CURVE SMOOTH",
"711 139 OFFCURVE",
"571 10 OFFCURVE",
"396 10 CURVE SMOOTH"
);
},
{
closed = 1;
nodes = (
"357 770 OFFCURVE",
"371 784 OFFCURVE",
"371 800 CURVE SMOOTH",
"371 816 OFFCURVE",
"357 830 OFFCURVE",
"341 830 CURVE SMOOTH",
"324 830 OFFCURVE",
"311 816 OFFCURVE",
"311 800 CURVE SMOOTH",
"311 784 OFFCURVE",
"324 770 OFFCURVE",
"341 770 CURVE SMOOTH"
);
},
{
closed = 1;
nodes = (
"491 770 OFFCURVE",
"504 784 OFFCURVE",
"504 800 CURVE SMOOTH",
"504 816 OFFCURVE",
"491 830 OFFCURVE",
"475 830 CURVE SMOOTH",
"458 830 OFFCURVE",
"445 816 OFFCURVE",
"445 800 CURVE SMOOTH",
"445 784 OFFCURVE",
"458 770 OFFCURVE",
"475 770 CURVE SMOOTH"
);
}
);
width = 792;
}
);
unicode = 00D6;
},
{
glyphname = Ograve;
layers = (
{
layerId = "BB8AC870-C874-407B-AC42-534954A140D1";
paths = (
{
closed = 1;
nodes = (
"595 -7 OFFCURVE",
"758 144 OFFCURVE",
"758 357 CURVE SMOOTH",
"758 570 OFFCURVE",
"597 720 OFFCURVE",
"395 720 CURVE SMOOTH",
"194 720 OFFCURVE",
"30 570 OFFCURVE",
"30 357 CURVE SMOOTH",
"30 144 OFFCURVE",
"194 -7 OFFCURVE",
"395 -7 CURVE SMOOTH"
);
},
{
closed = 1;
nodes = (
"304 200 OFFCURVE",
"256 263 OFFCURVE",
"256 357 CURVE SMOOTH",
"256 453 OFFCURVE",
"304 515 OFFCURVE",
"395 515 CURVE SMOOTH",
"484 515 OFFCURVE",
"533 453 OFFCURVE",
"533 357 CURVE SMOOTH",
"533 263 OFFCURVE",
"484 200 OFFCURVE",
"395 200 CURVE SMOOTH"
);
},
{
closed = 1;
nodes = (
"264 843 LINE",
"523 749 LINE",
"523 897 LINE",
"264 1007 LINE"
);
}
);
width = 788;
},
{
layerId = "9F449CCD-E345-45F6-B35A-9ED3AC8C514F";
paths = (
{
closed = 1;
nodes = (
"590 -7 OFFCURVE",
"747 140 OFFCURVE",
"747 349 CURVE SMOOTH",
"747 557 OFFCURVE",
"590 704 OFFCURVE",
"392 704 CURVE SMOOTH",
"196 704 OFFCURVE",
"37 557 OFFCURVE",
"37 349 CURVE SMOOTH",
"37 140 OFFCURVE",
"196 -7 OFFCURVE",
"392 -7 CURVE SMOOTH"
);
},
{
closed = 1;
nodes = (
"254 92 OFFCURVE",
"154 192 OFFCURVE",
"154 349 CURVE SMOOTH",
"154 506 OFFCURVE",
"254 604 OFFCURVE",
"392 604 CURVE SMOOTH",
"530 604 OFFCURVE",
"630 506 OFFCURVE",
"630 349 CURVE SMOOTH",
"630 192 OFFCURVE",
"530 92 OFFCURVE",
"392 92 CURVE SMOOTH"
);
},
{
closed = 1;
nodes = (
"274 844 LINE",
"495 735 LINE",
"495 819 LINE",
"274 941 LINE"
);
}
);
width = 784;
},
{
layerId = "C750DB68-0E3A-4F82-99EB-66CF08B4C668";
paths = (
{
closed = 1;
nodes = (
"592 -8 OFFCURVE",
"732 140 OFFCURVE",
"732 351 CURVE SMOOTH",
"732 562 OFFCURVE",
"592 710 OFFCURVE",
"396 710 CURVE SMOOTH",
"200 710 OFFCURVE",
"60 562 OFFCURVE",
"60 351 CURVE SMOOTH",
"60 140 OFFCURVE",
"200 -8 OFFCURVE",
"396 -8 CURVE SMOOTH"
);
},
{
closed = 1;
nodes = (
"221 10 OFFCURVE",
"81 139 OFFCURVE",
"81 351 CURVE SMOOTH",
"81 563 OFFCURVE",
"221 692 OFFCURVE",
"396 692 CURVE SMOOTH",
"571 692 OFFCURVE",
"711 563 OFFCURVE",
"711 351 CURVE SMOOTH",
"711 139 OFFCURVE",
"571 10 OFFCURVE",
"396 10 CURVE SMOOTH"
);
},
{
closed = 1;
nodes = (
"300 859 LINE",
"487 729 LINE",
"487 749 LINE",
"300 883 LINE"
);
}
);
width = 792;
}
);
unicode = 00D2;
},
{
glyphname = Ohungarumlaut;
layers = (
{
layerId = "BB8AC870-C874-407B-AC42-534954A140D1";
paths = (
{
closed = 1;
nodes = (
"595 -7 OFFCURVE",
"758 144 OFFCURVE",
"758 357 CURVE SMOOTH",
"758 570 OFFCURVE",
"597 720 OFFCURVE",
"395 720 CURVE SMOOTH",
"194 720 OFFCURVE",
"30 570 OFFCURVE",
"30 357 CURVE SMOOTH",
"30 144 OFFCURVE",
"194 -7 OFFCURVE",
"395 -7 CURVE SMOOTH"
);
},
{
closed = 1;
nodes = (
"304 200 OFFCURVE",
"256 263 OFFCURVE",
"256 357 CURVE SMOOTH",
"256 453 OFFCURVE",
"304 515 OFFCURVE",
"395 515 CURVE SMOOTH",
"484 515 OFFCURVE",
"533 453 OFFCURVE",
"533 357 CURVE SMOOTH",
"533 263 OFFCURVE",
"484 200 OFFCURVE",
"395 200 CURVE SMOOTH"
);
},
{
closed = 1;
nodes = (
"283 992 LINE",
"203 748 LINE",
"336 748 LINE",
"451 992 LINE"
);
},
{
closed = 1;
nodes = (
"529 992 LINE",
"426 748 LINE",
"559 748 LINE",
"697 992 LINE"
);
}
);
width = 788;
},
{
layerId = "9F449CCD-E345-45F6-B35A-9ED3AC8C514F";
paths = (
{
closed = 1;
nodes = (
"590 -7 OFFCURVE",
"747 140 OFFCURVE",
"747 349 CURVE SMOOTH",
"747 557 OFFCURVE",
"590 704 OFFCURVE",
"392 704 CURVE SMOOTH",
"196 704 OFFCURVE",
"37 557 OFFCURVE",
"37 349 CURVE SMOOTH",
"37 140 OFFCURVE",
"196 -7 OFFCURVE",
"392 -7 CURVE SMOOTH"
);
},
{
closed = 1;
nodes = (
"254 92 OFFCURVE",
"154 192 OFFCURVE",
"154 349 CURVE SMOOTH",
"154 506 OFFCURVE",
"254 604 OFFCURVE",
"392 604 CURVE SMOOTH",
"530 604 OFFCURVE",
"630 506 OFFCURVE",
"630 349 CURVE SMOOTH",
"630 192 OFFCURVE",
"530 92 OFFCURVE",
"392 92 CURVE SMOOTH"
);
},
{
closed = 1;
nodes = (
"333 916 LINE",
"264 746 LINE",
"338 746 LINE",
"432 916 LINE"
);
},
{
closed = 1;
nodes = (
"499 916 LINE",
"424 746 LINE",
"498 746 LINE",
"598 916 LINE"
);
}
);
width = 784;
},
{
layerId = "C750DB68-0E3A-4F82-99EB-66CF08B4C668";
paths = (
{
closed = 1;
nodes = (
"592 -8 OFFCURVE",
"732 140 OFFCURVE",
"732 351 CURVE SMOOTH",
"732 562 OFFCURVE",
"592 710 OFFCURVE",
"396 710 CURVE SMOOTH",
"200 710 OFFCURVE",
"60 562 OFFCURVE",
"60 351 CURVE SMOOTH",
"60 140 OFFCURVE",
"200 -8 OFFCURVE",
"396 -8 CURVE SMOOTH"
);
},
{
closed = 1;
nodes = (
"221 10 OFFCURVE",
"81 139 OFFCURVE",
"81 351 CURVE SMOOTH",
"81 563 OFFCURVE",
"221 692 OFFCURVE",
"396 692 CURVE SMOOTH",
"571 692 OFFCURVE",
"711 563 OFFCURVE",
"711 351 CURVE SMOOTH",
"711 139 OFFCURVE",
"571 10 OFFCURVE",
"396 10 CURVE SMOOTH"
);
},
{
closed = 1;
nodes = (
"395 848 LINE",
"335 744 LINE",
"355 744 LINE",
"418 848 LINE"
);
},
{
closed = 1;
nodes = (
"510 848 LINE",
"447 744 LINE",
"467 744 LINE",
"533 848 LINE"
);
}
);
width = 792;
}
);
unicode = 0150;
},
{
glyphname = Omacron;
layers = (
{
layerId = "BB8AC870-C874-407B-AC42-534954A140D1";
paths = (
{
closed = 1;
nodes = (
"595 -7 OFFCURVE",
"758 144 OFFCURVE",
"758 357 CURVE SMOOTH",
"758 570 OFFCURVE",
"597 720 OFFCURVE",
"395 720 CURVE SMOOTH",
"194 720 OFFCURVE",
"30 570 OFFCURVE",
"30 357 CURVE SMOOTH",
"30 144 OFFCURVE",
"194 -7 OFFCURVE",
"395 -7 CURVE SMOOTH"
);
},
{
closed = 1;
nodes = (
"304 200 OFFCURVE",
"256 263 OFFCURVE",
"256 357 CURVE SMOOTH",
"256 453 OFFCURVE",
"304 515 OFFCURVE",
"395 515 CURVE SMOOTH",
"484 515 OFFCURVE",
"533 453 OFFCURVE",
"533 357 CURVE SMOOTH",
"533 263 OFFCURVE",
"484 200 OFFCURVE",
"395 200 CURVE SMOOTH"
);
},
{
closed = 1;
nodes = (
"180 769 LINE",
"611 769 LINE",
"611 916 LINE",
"180 916 LINE"
);
}
);
width = 788;
},
{
layerId = "9F449CCD-E345-45F6-B35A-9ED3AC8C514F";
paths = (
{
closed = 1;
nodes = (
"590 -7 OFFCURVE",
"747 140 OFFCURVE",
"747 349 CURVE SMOOTH",
"747 557 OFFCURVE",
"590 704 OFFCURVE",
"392 704 CURVE SMOOTH",
"196 704 OFFCURVE",
"37 557 OFFCURVE",
"37 349 CURVE SMOOTH",
"37 140 OFFCURVE",
"196 -7 OFFCURVE",
"392 -7 CURVE SMOOTH"
);
},
{
closed = 1;
nodes = (
"254 92 OFFCURVE",
"154 192 OFFCURVE",
"154 349 CURVE SMOOTH",
"154 506 OFFCURVE",
"254 604 OFFCURVE",
"392 604 CURVE SMOOTH",
"530 604 OFFCURVE",
"630 506 OFFCURVE",
"630 349 CURVE SMOOTH",
"630 192 OFFCURVE",
"530 92 OFFCURVE",
"392 92 CURVE SMOOTH"
);
},
{
closed = 1;
nodes = (
"209 780 LINE",
"575 780 LINE",
"575 865 LINE",
"209 865 LINE"
);
}
);
width = 784;
},
{
layerId = "C750DB68-0E3A-4F82-99EB-66CF08B4C668";
paths = (
{
closed = 1;
nodes = (
"592 -8 OFFCURVE",
"732 140 OFFCURVE",
"732 351 CURVE SMOOTH",
"732 562 OFFCURVE",
"592 710 OFFCURVE",
"396 710 CURVE SMOOTH",
"200 710 OFFCURVE",
"60 562 OFFCURVE",
"60 351 CURVE SMOOTH",
"60 140 OFFCURVE",
"200 -8 OFFCURVE",
"396 -8 CURVE SMOOTH"
);
},
{
closed = 1;
nodes = (
"221 10 OFFCURVE",
"81 139 OFFCURVE",
"81 351 CURVE SMOOTH",
"81 563 OFFCURVE",
"221 692 OFFCURVE",
"396 692 CURVE SMOOTH",
"571 692 OFFCURVE",
"711 563 OFFCURVE",
"711 351 CURVE SMOOTH",
"711 139 OFFCURVE",
"571 10 OFFCURVE",
"396 10 CURVE SMOOTH"
);
},
{
closed = 1;
nodes = (
"252 802 LINE",
"561 802 LINE",
"561 820 LINE",
"252 820 LINE"
);
}
);
width = 792;
}
);
unicode = 014C;
},
{
glyphname = Oslash;
layers = (
{
layerId = "BB8AC870-C874-407B-AC42-534954A140D1";
paths = (
{
closed = 1;
nodes = (
"18 1 LINE",
"134 1 LINE",
"769 712 LINE",
"654 712 LINE"
);
},
{
closed = 1;
nodes = (
"594 -7 OFFCURVE",
"757 144 OFFCURVE",
"757 357 CURVE SMOOTH",
"757 570 OFFCURVE",
"596 720 OFFCURVE",
"394 720 CURVE SMOOTH",
"193 720 OFFCURVE",
"29 570 OFFCURVE",
"29 357 CURVE SMOOTH",
"29 144 OFFCURVE",
"193 -7 OFFCURVE",
"394 -7 CURVE SMOOTH"
);
},
{
closed = 1;
nodes = (
"303 200 OFFCURVE",
"255 263 OFFCURVE",
"255 357 CURVE SMOOTH",
"255 453 OFFCURVE",
"303 515 OFFCURVE",
"394 515 CURVE SMOOTH",
"483 515 OFFCURVE",
"532 453 OFFCURVE",
"532 357 CURVE SMOOTH",
"532 263 OFFCURVE",
"483 200 OFFCURVE",
"394 200 CURVE SMOOTH"
);
}
);
width = 788;
},
{
layerId = "9F449CCD-E345-45F6-B35A-9ED3AC8C514F";
paths = (
{
closed = 1;
nodes = (
"26 0 LINE",
"117 0 LINE",
"758 696 LINE",
"667 696 LINE"
);
},
{
closed = 1;
nodes = (
"590 -7 OFFCURVE",
"747 140 OFFCURVE",
"747 349 CURVE SMOOTH",
"747 557 OFFCURVE",
"590 704 OFFCURVE",
"392 704 CURVE SMOOTH",
"196 704 OFFCURVE",
"37 557 OFFCURVE",
"37 349 CURVE SMOOTH",
"37 140 OFFCURVE",
"196 -7 OFFCURVE",
"392 -7 CURVE SMOOTH"
);
},
{
closed = 1;
nodes = (
"254 92 OFFCURVE",
"154 192 OFFCURVE",
"154 349 CURVE SMOOTH",
"154 506 OFFCURVE",
"254 604 OFFCURVE",
"392 604 CURVE SMOOTH",
"530 604 OFFCURVE",
"630 506 OFFCURVE",
"630 349 CURVE SMOOTH",
"630 192 OFFCURVE",
"530 92 OFFCURVE",
"392 92 CURVE SMOOTH"
);
}
);
width = 784;
},
{
layerId = "C750DB68-0E3A-4F82-99EB-66CF08B4C668";
paths = (
{
closed = 1;
nodes = (
"61 0 LINE",
"86 0 LINE",
"731 704 LINE",
"707 704 LINE"
);
},
{
closed = 1;
nodes = (
"592 -8 OFFCURVE",
"732 140 OFFCURVE",
"732 351 CURVE SMOOTH",
"732 562 OFFCURVE",
"592 710 OFFCURVE",
"396 710 CURVE SMOOTH",
"200 710 OFFCURVE",
"60 562 OFFCURVE",
"60 351 CURVE SMOOTH",
"60 140 OFFCURVE",
"200 -8 OFFCURVE",
"396 -8 CURVE SMOOTH"
);
},
{
closed = 1;
nodes = (
"221 10 OFFCURVE",
"81 139 OFFCURVE",
"81 351 CURVE SMOOTH",
"81 563 OFFCURVE",
"221 692 OFFCURVE",
"396 692 CURVE SMOOTH",
"571 692 OFFCURVE",
"711 563 OFFCURVE",
"711 351 CURVE SMOOTH",
"711 139 OFFCURVE",
"571 10 OFFCURVE",
"396 10 CURVE SMOOTH"
);
}
);
width = 792;
}
);
unicode = 00D8;
},
{
glyphname = Otilde;
layers = (
{
layerId = "BB8AC870-C874-407B-AC42-534954A140D1";
paths = (
{
closed = 1;
nodes = (
"595 -7 OFFCURVE",
"758 144 OFFCURVE",
"758 357 CURVE SMOOTH",
"758 570 OFFCURVE",
"597 720 OFFCURVE",
"395 720 CURVE SMOOTH",
"194 720 OFFCURVE",
"30 570 OFFCURVE",
"30 357 CURVE SMOOTH",
"30 144 OFFCURVE",
"194 -7 OFFCURVE",
"395 -7 CURVE SMOOTH"
);
},
{
closed = 1;
nodes = (
"304 200 OFFCURVE",
"256 263 OFFCURVE",
"256 357 CURVE SMOOTH",
"256 453 OFFCURVE",
"304 515 OFFCURVE",
"395 515 CURVE SMOOTH",
"484 515 OFFCURVE",
"533 453 OFFCURVE",
"533 357 CURVE SMOOTH",
"533 263 OFFCURVE",
"484 200 OFFCURVE",
"395 200 CURVE SMOOTH"
);
},
{
closed = 1;
nodes = (
"269 749 LINE",
"275 782 OFFCURVE",
"290 796 OFFCURVE",
"314 796 CURVE SMOOTH",
"354 796 OFFCURVE",
"393 751 OFFCURVE",
"458 751 CURVE SMOOTH",
"540 751 OFFCURVE",
"597 798 OFFCURVE",
"619 926 CURVE",
"510 926 LINE",
"505 894 OFFCURVE",
"490 879 OFFCURVE",
"466 879 CURVE SMOOTH",
"426 879 OFFCURVE",
"387 925 OFFCURVE",
"322 925 CURVE SMOOTH",
"240 925 OFFCURVE",
"183 877 OFFCURVE",
"161 749 CURVE"
);
}
);
width = 788;
},
{
layerId = "9F449CCD-E345-45F6-B35A-9ED3AC8C514F";
paths = (
{
closed = 1;
nodes = (
"590 -7 OFFCURVE",
"747 140 OFFCURVE",
"747 349 CURVE SMOOTH",
"747 557 OFFCURVE",
"590 704 OFFCURVE",
"392 704 CURVE SMOOTH",
"196 704 OFFCURVE",
"37 557 OFFCURVE",
"37 349 CURVE SMOOTH",
"37 140 OFFCURVE",
"196 -7 OFFCURVE",
"392 -7 CURVE SMOOTH"
);
},
{
closed = 1;
nodes = (
"254 92 OFFCURVE",
"154 192 OFFCURVE",
"154 349 CURVE SMOOTH",
"154 506 OFFCURVE",
"254 604 OFFCURVE",
"392 604 CURVE SMOOTH",
"530 604 OFFCURVE",
"630 506 OFFCURVE",
"630 349 CURVE SMOOTH",
"630 192 OFFCURVE",
"530 92 OFFCURVE",
"392 92 CURVE SMOOTH"
);
},
{
closed = 1;
nodes = (
"293 753 LINE",
"297 782 OFFCURVE",
"314 796 OFFCURVE",
"336 796 CURVE SMOOTH",
"376 796 OFFCURVE",
"398 751 OFFCURVE",
"452 751 CURVE SMOOTH",
"510 751 OFFCURVE",
"554 789 OFFCURVE",
"565 868 CURVE",
"501 868 LINE",
"497 839 OFFCURVE",
"480 826 OFFCURVE",
"458 826 CURVE SMOOTH",
"418 826 OFFCURVE",
"396 870 OFFCURVE",
"342 870 CURVE SMOOTH",
"284 870 OFFCURVE",
"240 832 OFFCURVE",
"229 753 CURVE"
);
}
);
width = 784;
},
{
layerId = "C750DB68-0E3A-4F82-99EB-66CF08B4C668";
paths = (
{
closed = 1;
nodes = (
"592 -8 OFFCURVE",
"732 140 OFFCURVE",
"732 351 CURVE SMOOTH",
"732 562 OFFCURVE",
"592 710 OFFCURVE",
"396 710 CURVE SMOOTH",
"200 710 OFFCURVE",
"60 562 OFFCURVE",
"60 351 CURVE SMOOTH",
"60 140 OFFCURVE",
"200 -8 OFFCURVE",
"396 -8 CURVE SMOOTH"
);
},
{
closed = 1;
nodes = (
"221 10 OFFCURVE",
"81 139 OFFCURVE",
"81 351 CURVE SMOOTH",
"81 563 OFFCURVE",
"221 692 OFFCURVE",
"396 692 CURVE SMOOTH",
"571 692 OFFCURVE",
"711 563 OFFCURVE",
"711 351 CURVE SMOOTH",
"711 139 OFFCURVE",
"571 10 OFFCURVE",
"396 10 CURVE SMOOTH"
);
},
{
closed = 1;
nodes = (
"329 747 LINE",
"333 780 OFFCURVE",
"348 795 OFFCURVE",
"371 795 CURVE SMOOTH",
"413 795 OFFCURVE",
"427 745 OFFCURVE",
"479 745 CURVE SMOOTH",
"513 745 OFFCURVE",
"539 774 OFFCURVE",
"541 810 CURVE",
"523 810 LINE",
"519 779 OFFCURVE",
"500 763 OFFCURVE",
"479 763 CURVE SMOOTH",
"432 763 OFFCURVE",
"421 813 OFFCURVE",
"371 813 CURVE SMOOTH",
"337 813 OFFCURVE",
"316 787 OFFCURVE",
"311 747 CURVE"
);
}
);
width = 792;
}
);
unicode = 00D5;
},
{
glyphname = OE;
layers = (
{
layerId = "BB8AC870-C874-407B-AC42-534954A140D1";
paths = (
{
closed = 1;
nodes = (
"1015 532 LINE",
"1015 708 LINE",
"543 708 LINE",
"543 671 LINE",
"499 704 OFFCURVE",
"437 720 OFFCURVE",
"378 720 CURVE SMOOTH",
"176 720 OFFCURVE",
"30 568.76 OFFCURVE",
"30 354 CURVE SMOOTH",
"30 139.24 OFFCURVE",
"176 -12 OFFCURVE",
"378 -12 CURVE",
"437 -9 OFFCURVE",
"499 4 OFFCURVE",
"543 37 CURVE",
"543 0 LINE",
"1015 0 LINE",
"1015 177 LINE",
"765 177 LINE",
"765 277 LINE",
"985 277 LINE",
"985 444 LINE",
"765 444 LINE",
"765 532 LINE"
);
},
{
closed = 1;
nodes = (
"256 451.823 OFFCURVE",
"304 515 OFFCURVE",
"395 515 CURVE SMOOTH",
"484 515 OFFCURVE",
"533 451.823 OFFCURVE",
"533 354 CURVE SMOOTH",
"533 256.177 OFFCURVE",
"484 193 OFFCURVE",
"395 193 CURVE SMOOTH",
"304 193 OFFCURVE",
"256 256.177 OFFCURVE",
"256 354 CURVE SMOOTH"
);
}
);
width = 1049;
},
{
layerId = "9F449CCD-E345-45F6-B35A-9ED3AC8C514F";
paths = (
{
closed = 1;
nodes = (
"1014 606 LINE",
"1014 695 LINE",
"630 695 LINE",
"630 589 LINE",
"572 665 OFFCURVE",
"487 704 OFFCURVE",
"382 704 CURVE SMOOTH",
"197 704 OFFCURVE",
"37 559 OFFCURVE",
"37 349 CURVE SMOOTH",
"37 140 OFFCURVE",
"196 -7 OFFCURVE",
"383 -7 CURVE SMOOTH",
"487 -7 OFFCURVE",
"572 32 OFFCURVE",
"630 111 CURVE",
"630 0 LINE",
"1014 0 LINE",
"1014 89 LINE",
"744 89 LINE",
"744 307 LINE",
"984 307 LINE",
"984 395 LINE",
"744 395 LINE",
"744 606 LINE"
);
},
{
closed = 1;
nodes = (
"154 502 OFFCURVE",
"254 600 OFFCURVE",
"392 600 CURVE SMOOTH",
"530 600 OFFCURVE",
"630 502 OFFCURVE",
"630 349 CURVE SMOOTH",
"630 196 OFFCURVE",
"530 96 OFFCURVE",
"392 96 CURVE SMOOTH",
"254 96 OFFCURVE",
"154 196 OFFCURVE",
"154 349 CURVE SMOOTH"
);
}
);
width = 1079;
},
{
layerId = "C750DB68-0E3A-4F82-99EB-66CF08B4C668";
paths = (
{
closed = 1;
nodes = (
"1056 686 LINE",
"1056 704 LINE",
"712 704 LINE",
"712 462 LINE",
"680 612 OFFCURVE",
"551 710 OFFCURVE",
"396 710 CURVE SMOOTH",
"200 710 OFFCURVE",
"60 562 OFFCURVE",
"60 351 CURVE SMOOTH",
"60 140 OFFCURVE",
"200 -8 OFFCURVE",
"396 -8 CURVE SMOOTH",
"551 -8 OFFCURVE",
"680 90 OFFCURVE",
"712 240 CURVE",
"712 0 LINE",
"1056 0 LINE",
"1056 18 LINE",
"732 18 LINE",
"732 343 LINE",
"1026 343 LINE",
"1026 361 LINE",
"732 361 LINE",
"732 686 LINE"
);
},
{
closed = 1;
nodes = (
"81 563 OFFCURVE",
"221 692 OFFCURVE",
"396 692 CURVE SMOOTH",
"571 692 OFFCURVE",
"711 563 OFFCURVE",
"711 351 CURVE SMOOTH",
"711 139 OFFCURVE",
"571 10 OFFCURVE",
"396 10 CURVE SMOOTH",
"221 10 OFFCURVE",
"81 139 OFFCURVE",
"81 351 CURVE SMOOTH"
);
}
);
width = 1106;
}
);
unicode = 0152;
},
{
glyphname = P;
layers = (
{
layerId = "BB8AC870-C874-407B-AC42-534954A140D1";
paths = (
{
closed = 1;
nodes = (
"272 400 LINE",
"272 530 LINE",
"335 530 LINE SMOOTH",
"385 530 OFFCURVE",
"404 504 OFFCURVE",
"404 465 CURVE SMOOTH",
"404 426 OFFCURVE",
"385 400 OFFCURVE",
"335 400 CURVE SMOOTH"
);
},
{
closed = 1;
nodes = (
"629 607.88 OFFCURVE",
"538 708 OFFCURVE",
"360 708 CURVE SMOOTH",
"50 708 LINE",
"50 0 LINE",
"272 0 LINE",
"272 225 LINE",
"360 225 LINE SMOOTH",
"538 225 OFFCURVE",
"629 334 OFFCURVE",
"629 465 CURVE SMOOTH"
);
}
);
width = 649;
},
{
layerId = "9F449CCD-E345-45F6-B35A-9ED3AC8C514F";
paths = (
{
closed = 1;
nodes = (
"189 375 LINE",
"189 602 LINE",
"315 602 LINE SMOOTH",
"404 602 OFFCURVE",
"444 560 OFFCURVE",
"444 488 CURVE SMOOTH",
"444 418 OFFCURVE",
"404 375 OFFCURVE",
"315 375 CURVE SMOOTH"
);
},
{
closed = 1;
nodes = (
"561 601 OFFCURVE",
"480 695 OFFCURVE",
"315 695 CURVE SMOOTH",
"75 695 LINE",
"75 0 LINE",
"189 0 LINE",
"189 282 LINE",
"315 282 LINE SMOOTH",
"496 282 OFFCURVE",
"561 389 OFFCURVE",
"561 488 CURVE SMOOTH"
);
}
);
width = 595;
},
{
layerId = "C750DB68-0E3A-4F82-99EB-66CF08B4C668";
paths = (
{
closed = 1;
nodes = (
"105 338 LINE",
"105 684 LINE",
"263 684 LINE SMOOTH",
"414 684 OFFCURVE",
"468 619 OFFCURVE",
"468 510 CURVE SMOOTH",
"468 406 OFFCURVE",
"414 338 OFFCURVE",
"263 338 CURVE SMOOTH"
);
},
{
closed = 1;
nodes = (
"488 627 OFFCURVE",
"423 704 OFFCURVE",
"263 704 CURVE SMOOTH",
"85 704 LINE",
"85 0 LINE",
"105 0 LINE",
"105 317 LINE",
"263 317 LINE SMOOTH",
"409 317 OFFCURVE",
"488 380 OFFCURVE",
"488 510 CURVE SMOOTH"
);
}
);
width = 528;
}
);
unicode = 0050;
},
{
glyphname = Thorn;
layers = (
{
layerId = "BB8AC870-C874-407B-AC42-534954A140D1";
paths = (
{
closed = 1;
nodes = (
"272 290 LINE",
"272 420 LINE",
"335 420 LINE SMOOTH",
"385 420 OFFCURVE",
"404 394 OFFCURVE",
"404 355 CURVE SMOOTH",
"404 316 OFFCURVE",
"385 290 OFFCURVE",
"335 290 CURVE SMOOTH"
);
},
{
closed = 1;
nodes = (
"629 492 OFFCURVE",
"538 588 OFFCURVE",
"360 588 CURVE SMOOTH",
"270 588 LINE",
"270 708 LINE",
"50 708 LINE",
"50 0 LINE",
"272 0 LINE",
"272 125 LINE",
"360 125 LINE SMOOTH",
"538 125 OFFCURVE",
"629 229 OFFCURVE",
"629 355 CURVE SMOOTH"
);
}
);
width = 649;
},
{
layerId = "9F449CCD-E345-45F6-B35A-9ED3AC8C514F";
paths = (
{
closed = 1;
nodes = (
"189 231 LINE",
"189 466 LINE",
"315 466 LINE SMOOTH",
"404 466 OFFCURVE",
"444 419 OFFCURVE",
"444 348 CURVE SMOOTH",
"444 278 OFFCURVE",
"404 231 OFFCURVE",
"315 231 CURVE SMOOTH"
);
},
{
closed = 1;
nodes = (
"561 461 OFFCURVE",
"480 555 OFFCURVE",
"315 555 CURVE SMOOTH",
"188 555 LINE",
"188 696 LINE",
"75 696 LINE",
"75 0 LINE",
"189 0 LINE",
"189 142 LINE",
"315 142 LINE SMOOTH",
"496 142 OFFCURVE",
"561 249 OFFCURVE",
"561 348 CURVE SMOOTH"
);
}
);
width = 595;
},
{
layerId = "C750DB68-0E3A-4F82-99EB-66CF08B4C668";
paths = (
{
closed = 1;
nodes = (
"105 180 LINE",
"105 526 LINE",
"263 526 LINE SMOOTH",
"414 526 OFFCURVE",
"468 461 OFFCURVE",
"468 352 CURVE SMOOTH",
"468 248 OFFCURVE",
"414 180 OFFCURVE",
"263 180 CURVE SMOOTH"
);
},
{
closed = 1;
nodes = (
"488 469 OFFCURVE",
"423 546 OFFCURVE",
"263 546 CURVE SMOOTH",
"105 546 LINE",
"105 704 LINE",
"85 704 LINE",
"85 0 LINE",
"105 0 LINE",
"105 159 LINE",
"263 159 LINE SMOOTH",
"409 159 OFFCURVE",
"488 222 OFFCURVE",
"488 352 CURVE SMOOTH"
);
}
);
width = 528;
}
);
unicode = 00DE;
},
{
glyphname = Q;
layers = (
{
layerId = "BB8AC870-C874-407B-AC42-534954A140D1";
paths = (
{
closed = 1;
nodes = (
"387 98 LINE",
"516 -115 LINE",
"778 -115 LINE",
"598 127 LINE"
);
},
{
closed = 1;
nodes = (
"595 -7 OFFCURVE",
"758 144 OFFCURVE",
"758 357 CURVE SMOOTH",
"758 570 OFFCURVE",
"597 720 OFFCURVE",
"395 720 CURVE SMOOTH",
"194 720 OFFCURVE",
"30 570 OFFCURVE",
"30 357 CURVE SMOOTH",
"30 144 OFFCURVE",
"194 -7 OFFCURVE",
"395 -7 CURVE SMOOTH"
);
},
{
closed = 1;
nodes = (
"304 200 OFFCURVE",
"256 263 OFFCURVE",
"256 357 CURVE SMOOTH",
"256 453 OFFCURVE",
"304 515 OFFCURVE",
"395 515 CURVE SMOOTH",
"484 515 OFFCURVE",
"533 453 OFFCURVE",
"533 357 CURVE SMOOTH",
"533 263 OFFCURVE",
"484 200 OFFCURVE",
"395 200 CURVE SMOOTH"
);
}
);
width = 788;
},
{
layerId = "9F449CCD-E345-45F6-B35A-9ED3AC8C514F";
paths = (
{
closed = 1;
nodes = (
"451 50 LINE",
"613 -126 LINE",
"758 -126 LINE",
"559 85 LINE"
);
},
{
closed = 1;
nodes = (
"590 -7 OFFCURVE",
"747 140 OFFCURVE",
"747 349 CURVE SMOOTH",
"747 557 OFFCURVE",
"590 704 OFFCURVE",
"392 704 CURVE SMOOTH",
"196 704 OFFCURVE",
"37 557 OFFCURVE",
"37 349 CURVE SMOOTH",
"37 140 OFFCURVE",
"196 -7 OFFCURVE",
"392 -7 CURVE SMOOTH"
);
},
{
closed = 1;
nodes = (
"254 92 OFFCURVE",
"154 192 OFFCURVE",
"154 349 CURVE SMOOTH",
"154 506 OFFCURVE",
"254 604 OFFCURVE",
"392 604 CURVE SMOOTH",
"530 604 OFFCURVE",
"630 506 OFFCURVE",
"630 349 CURVE SMOOTH",
"630 192 OFFCURVE",
"530 92 OFFCURVE",
"392 92 CURVE SMOOTH"
);
}
);
width = 787;
},
{
layerId = "C750DB68-0E3A-4F82-99EB-66CF08B4C668";
paths = (
{
closed = 1;
nodes = (
"500 14 LINE",
"708 -149 LINE",
"743 -149 LINE",
"515 30 LINE"
);
},
{
closed = 1;
nodes = (
"592 -8 OFFCURVE",
"732 140 OFFCURVE",
"732 351 CURVE SMOOTH",
"732 562 OFFCURVE",
"592 710 OFFCURVE",
"396 710 CURVE SMOOTH",
"200 710 OFFCURVE",
"60 562 OFFCURVE",
"60 351 CURVE SMOOTH",
"60 140 OFFCURVE",
"200 -8 OFFCURVE",
"396 -8 CURVE SMOOTH"
);
},
{
closed = 1;
nodes = (
"221 10 OFFCURVE",
"81 139 OFFCURVE",
"81 351 CURVE SMOOTH",
"81 563 OFFCURVE",
"221 692 OFFCURVE",
"396 692 CURVE SMOOTH",
"571 692 OFFCURVE",
"711 563 OFFCURVE",
"711 351 CURVE SMOOTH",
"711 139 OFFCURVE",
"571 10 OFFCURVE",
"396 10 CURVE SMOOTH"
);
}
);
width = 792;
}
);
unicode = 0051;
},
{
glyphname = R;
layers = (
{
anchors = (
{
name = bottom;
position = "{325, 0}";
},
{
name = top;
position = "{325, 711}";
}
);
layerId = "BB8AC870-C874-407B-AC42-534954A140D1";
paths = (
{
closed = 1;
nodes = (
"424 420 OFFCURVE",
"402 402 OFFCURVE",
"360 402 CURVE SMOOTH",
"272 402 LINE",
"272 522 LINE",
"360 522 LINE SMOOTH",
"402 522 OFFCURVE",
"424 498 OFFCURVE",
"424 462 CURVE SMOOTH"
);
},
{
closed = 1;
nodes = (
"50 708 LINE",
"50 0 LINE",
"272 0 LINE",
"272 254 LINE",
"380 254 LINE SMOOTH",
"558 254 OFFCURVE",
"649 352 OFFCURVE",
"649 476 CURVE SMOOTH",
"649 606 OFFCURVE",
"558 708 OFFCURVE",
"380 708 CURVE SMOOTH"
);
},
{
closed = 1;
nodes = (
"251 295 LINE",
"406 0 LINE",
"650 0 LINE",
"482 295 LINE"
);
}
);
width = 670;
},
{
anchors = (
{
name = bottom;
position = "{316, 0}";
},
{
name = top;
position = "{316, 696}";
}
);
layerId = "9F449CCD-E345-45F6-B35A-9ED3AC8C514F";
paths = (
{
closed = 1;
nodes = (
"444 418 OFFCURVE",
"404 369 OFFCURVE",
"315 369 CURVE SMOOTH",
"189 369 LINE",
"189 602 LINE",
"315 602 LINE SMOOTH",
"404 602 OFFCURVE",
"444 557 OFFCURVE",
"444 487 CURVE SMOOTH"
);
},
{
closed = 1;
nodes = (
"75 695 LINE",
"75 0 LINE",
"189 0 LINE",
"189 278 LINE",
"315 278 LINE SMOOTH",
"496 278 OFFCURVE",
"561 388 OFFCURVE",
"561 487 CURVE SMOOTH",
"561 600 OFFCURVE",
"480 695 OFFCURVE",
"315 695 CURVE SMOOTH"
);
},
{
closed = 1;
nodes = (
"255 315 LINE",
"436 0 LINE",
"572 0 LINE",
"384 315 LINE"
);
}
);
width = 632;
},
{
anchors = (
{
name = bottom;
position = "{296, 0}";
},
{
name = top;
position = "{296, 683}";
}
);
layerId = "C750DB68-0E3A-4F82-99EB-66CF08B4C668";
paths = (
{
closed = 1;
nodes = (
"469 403 OFFCURVE",
"407 326 OFFCURVE",
"263 326 CURVE SMOOTH",
"105 326 LINE",
"105 684 LINE",
"261 684 LINE SMOOTH",
"412 684 OFFCURVE",
"469 615 OFFCURVE",
"469 506 CURVE SMOOTH"
);
},
{
closed = 1;
nodes = (
"85 704 LINE",
"85 0 LINE",
"105 0 LINE",
"105 307 LINE",
"263 307 LINE SMOOTH",
"409 307 OFFCURVE",
"490 379 OFFCURVE",
"490 506 CURVE SMOOTH",
"490 623 OFFCURVE",
"421 704 OFFCURVE",
"261 704 CURVE SMOOTH"
);
},
{
closed = 1;
nodes = (
"277 315 LINE",
"470 0 LINE",
"495 0 LINE",
"301 315 LINE"
);
}
);
width = 535;
}
);
unicode = 0052;
},
{
glyphname = Racute;
layers = (
{
layerId = "BB8AC870-C874-407B-AC42-534954A140D1";
paths = (
{
closed = 1;
nodes = (
"424 420 OFFCURVE",
"402 402 OFFCURVE",
"360 402 CURVE SMOOTH",
"272 402 LINE",
"272 522 LINE",
"360 522 LINE SMOOTH",
"402 522 OFFCURVE",
"424 498 OFFCURVE",
"424 462 CURVE SMOOTH"
);
},
{
closed = 1;
nodes = (
"50 708 LINE",
"50 0 LINE",
"272 0 LINE",
"272 254 LINE",
"380 254 LINE SMOOTH",
"558 254 OFFCURVE",
"649 352 OFFCURVE",
"649 476 CURVE SMOOTH",
"649 606 OFFCURVE",
"558 708 OFFCURVE",
"380 708 CURVE SMOOTH"
);
},
{
closed = 1;
nodes = (
"251 295 LINE",
"406 0 LINE",
"650 0 LINE",
"482 295 LINE"
);
},
{
closed = 1;
nodes = (
"194 897 LINE",
"194 749 LINE",
"453 843 LINE",
"453 1007 LINE"
);
}
);
width = 670;
},
{
layerId = "9F449CCD-E345-45F6-B35A-9ED3AC8C514F";
paths = (
{
closed = 1;
nodes = (
"444 418 OFFCURVE",
"404 369 OFFCURVE",
"315 369 CURVE SMOOTH",
"189 369 LINE",
"189 602 LINE",
"315 602 LINE SMOOTH",
"404 602 OFFCURVE",
"444 557 OFFCURVE",
"444 487 CURVE SMOOTH"
);
},
{
closed = 1;
nodes = (
"75 695 LINE",
"75 0 LINE",
"189 0 LINE",
"189 278 LINE",
"315 278 LINE SMOOTH",
"496 278 OFFCURVE",
"561 388 OFFCURVE",
"561 487 CURVE SMOOTH",
"561 600 OFFCURVE",
"480 695 OFFCURVE",
"315 695 CURVE SMOOTH"
);
},
{
closed = 1;
nodes = (
"255 315 LINE",
"436 0 LINE",
"572 0 LINE",
"384 315 LINE"
);
},
{
closed = 1;
nodes = (
"198 819 LINE",
"198 735 LINE",
"419 844 LINE",
"419 941 LINE"
);
}
);
width = 632;
},
{
layerId = "C750DB68-0E3A-4F82-99EB-66CF08B4C668";
paths = (
{
closed = 1;
nodes = (
"469 403 OFFCURVE",
"407 326 OFFCURVE",
"263 326 CURVE SMOOTH",
"105 326 LINE",
"105 684 LINE",
"261 684 LINE SMOOTH",
"412 684 OFFCURVE",
"469 615 OFFCURVE",
"469 506 CURVE SMOOTH"
);
},
{
closed = 1;
nodes = (
"85 704 LINE",
"85 0 LINE",
"105 0 LINE",
"105 307 LINE",
"263 307 LINE SMOOTH",
"409 307 OFFCURVE",
"490 379 OFFCURVE",
"490 506 CURVE SMOOTH",
"490 623 OFFCURVE",
"421 704 OFFCURVE",
"261 704 CURVE SMOOTH"
);
},
{
closed = 1;
nodes = (
"277 315 LINE",
"470 0 LINE",
"495 0 LINE",
"301 315 LINE"
);
},
{
closed = 1;
nodes = (
"189 749 LINE",
"189 729 LINE",
"376 859 LINE",
"376 883 LINE"
);
}
);
width = 535;
}
);
unicode = 0154;
},
{
glyphname = Rcaron;
layers = (
{
layerId = "BB8AC870-C874-407B-AC42-534954A140D1";
paths = (
{
closed = 1;
nodes = (
"424 420 OFFCURVE",
"402 402 OFFCURVE",
"360 402 CURVE SMOOTH",
"272 402 LINE",
"272 522 LINE",
"360 522 LINE SMOOTH",
"402 522 OFFCURVE",
"424 498 OFFCURVE",
"424 462 CURVE SMOOTH"
);
},
{
closed = 1;
nodes = (
"50 708 LINE",
"50 0 LINE",
"272 0 LINE",
"272 254 LINE",
"380 254 LINE SMOOTH",
"558 254 OFFCURVE",
"649 352 OFFCURVE",
"649 476 CURVE SMOOTH",
"649 606 OFFCURVE",
"558 708 OFFCURVE",
"380 708 CURVE SMOOTH"
);
},
{
closed = 1;
nodes = (
"251 295 LINE",
"406 0 LINE",
"650 0 LINE",
"482 295 LINE"
);
},
{
closed = 1;
nodes = (
"325 880 LINE",
"159 968 LINE",
"159 824 LINE",
"325 749 LINE",
"490 824 LINE",
"490 968 LINE"
);
}
);
width = 670;
},
{
layerId = "9F449CCD-E345-45F6-B35A-9ED3AC8C514F";
paths = (
{
closed = 1;
nodes = (
"444 418 OFFCURVE",
"404 369 OFFCURVE",
"315 369 CURVE SMOOTH",
"189 369 LINE",
"189 602 LINE",
"315 602 LINE SMOOTH",
"404 602 OFFCURVE",
"444 557 OFFCURVE",
"444 487 CURVE SMOOTH"
);
},
{
closed = 1;
nodes = (
"75 695 LINE",
"75 0 LINE",
"189 0 LINE",
"189 278 LINE",
"315 278 LINE SMOOTH",
"496 278 OFFCURVE",
"561 388 OFFCURVE",
"561 487 CURVE SMOOTH",
"561 600 OFFCURVE",
"480 695 OFFCURVE",
"315 695 CURVE SMOOTH"
);
},
{
closed = 1;
nodes = (
"255 315 LINE",
"436 0 LINE",
"572 0 LINE",
"384 315 LINE"
);
},
{
closed = 1;
nodes = (
"316 821 LINE",
"173 907 LINE",
"173 818 LINE",
"316 735 LINE",
"459 818 LINE",
"459 907 LINE"
);
}
);
width = 632;
},
{
layerId = "C750DB68-0E3A-4F82-99EB-66CF08B4C668";
paths = (
{
closed = 1;
nodes = (
"469 403 OFFCURVE",
"407 326 OFFCURVE",
"263 326 CURVE SMOOTH",
"105 326 LINE",
"105 684 LINE",
"261 684 LINE SMOOTH",
"412 684 OFFCURVE",
"469 615 OFFCURVE",
"469 506 CURVE SMOOTH"
);
},
{
closed = 1;
nodes = (
"85 704 LINE",
"85 0 LINE",
"105 0 LINE",
"105 307 LINE",
"263 307 LINE SMOOTH",
"409 307 OFFCURVE",
"490 379 OFFCURVE",
"490 506 CURVE SMOOTH",
"490 623 OFFCURVE",
"421 704 OFFCURVE",
"261 704 CURVE SMOOTH"
);
},
{
closed = 1;
nodes = (
"277 315 LINE",
"470 0 LINE",
"495 0 LINE",
"301 315 LINE"
);
},
{
closed = 1;
nodes = (
"296 780 LINE",
"172 861 LINE",
"172 841 LINE",
"296 760 LINE",
"419 841 LINE",
"419 861 LINE"
);
}
);
width = 535;
}
);
unicode = 0158;
},
{
glyphname = Rcommaaccent;
layers = (
{
anchors = (
{
name = _bottom;
position = "{350, 0}";
}
);
layerId = "BB8AC870-C874-407B-AC42-534954A140D1";
paths = (
{
closed = 1;
nodes = (
"270 -35 LINE",
"270 -182 LINE",
"342 -182 LINE",
"342 -193 LINE SMOOTH",
"342 -245 OFFCURVE",
"322 -268 OFFCURVE",
"287 -268 CURVE",
"287 -346 LINE",
"401 -346 OFFCURVE",
"452 -266 OFFCURVE",
"452 -170 CURVE SMOOTH",
"452 -128 OFFCURVE",
"444 -82 OFFCURVE",
"426 -35 CURVE"
);
},
{
closed = 1;
nodes = (
"424 420 OFFCURVE",
"402 402 OFFCURVE",
"360 402 CURVE SMOOTH",
"272 402 LINE",
"272 522 LINE",
"360 522 LINE SMOOTH",
"402 522 OFFCURVE",
"424 498 OFFCURVE",
"424 462 CURVE SMOOTH"
);
},
{
closed = 1;
nodes = (
"50 708 LINE",
"50 0 LINE",
"272 0 LINE",
"272 254 LINE",
"380 254 LINE SMOOTH",
"558 254 OFFCURVE",
"649 352 OFFCURVE",
"649 476 CURVE SMOOTH",
"649 606 OFFCURVE",
"558 708 OFFCURVE",
"380 708 CURVE SMOOTH"
);
},
{
closed = 1;
nodes = (
"251 295 LINE",
"406 0 LINE",
"650 0 LINE",
"482 295 LINE"
);
}
);
width = 701;
},
{
anchors = (
{
name = _bottom;
position = "{316, 0}";
}
);
layerId = "9F449CCD-E345-45F6-B35A-9ED3AC8C514F";
paths = (
{
closed = 1;
nodes = (
"262 -46 LINE",
"262 -142 LINE",
"314 -142 LINE",
"314 -163 LINE SMOOTH",
"314 -201 OFFCURVE",
"299 -220 OFFCURVE",
"266 -220 CURVE",
"266 -270 LINE",
"340 -270 OFFCURVE",
"378 -228 OFFCURVE",
"378 -145 CURVE SMOOTH",
"378 -116 OFFCURVE",
"374 -83 OFFCURVE",
"365 -46 CURVE"
);
},
{
closed = 1;
nodes = (
"444 418 OFFCURVE",
"404 369 OFFCURVE",
"315 369 CURVE SMOOTH",
"189 369 LINE",
"189 602 LINE",
"315 602 LINE SMOOTH",
"404 602 OFFCURVE",
"444 557 OFFCURVE",
"444 487 CURVE SMOOTH"
);
},
{
closed = 1;
nodes = (
"75 695 LINE",
"75 0 LINE",
"189 0 LINE",
"189 278 LINE",
"315 278 LINE SMOOTH",
"496 278 OFFCURVE",
"561 388 OFFCURVE",
"561 487 CURVE SMOOTH",
"561 600 OFFCURVE",
"480 695 OFFCURVE",
"315 695 CURVE SMOOTH"
);
},
{
closed = 1;
nodes = (
"255 315 LINE",
"436 0 LINE",
"572 0 LINE",
"384 315 LINE"
);
}
);
width = 632;
},
{
anchors = (
{
name = _bottom;
position = "{262, 0}";
}
);
layerId = "C750DB68-0E3A-4F82-99EB-66CF08B4C668";
paths = (
{
closed = 1;
nodes = (
"237 -59 LINE",
"237 -97 LINE",
"268 -97 LINE",
"268 -104 LINE SMOOTH",
"268 -137 OFFCURVE",
"257 -158 OFFCURVE",
"225 -158 CURVE",
"225 -176 LINE",
"261 -176 OFFCURVE",
"290 -161 OFFCURVE",
"290 -90 CURVE SMOOTH",
"290 -81 OFFCURVE",
"289 -68 OFFCURVE",
"288 -59 CURVE"
);
},
{
closed = 1;
nodes = (
"469 403 OFFCURVE",
"407 326 OFFCURVE",
"263 326 CURVE SMOOTH",
"105 326 LINE",
"105 684 LINE",
"261 684 LINE SMOOTH",
"412 684 OFFCURVE",
"469 615 OFFCURVE",
"469 506 CURVE SMOOTH"
);
},
{
closed = 1;
nodes = (
"85 704 LINE",
"85 0 LINE",
"105 0 LINE",
"105 307 LINE",
"263 307 LINE SMOOTH",
"409 307 OFFCURVE",
"490 379 OFFCURVE",
"490 506 CURVE SMOOTH",
"490 623 OFFCURVE",
"421 704 OFFCURVE",
"261 704 CURVE SMOOTH"
);
},
{
closed = 1;
nodes = (
"277 315 LINE",
"470 0 LINE",
"495 0 LINE",
"301 315 LINE"
);
}
);
width = 535;
}
);
unicode = 0156;
},
{
glyphname = S;
layers = (
{
layerId = "4DB8C1DB-135D-4124-8C04-65EC99FCBCEB";
name = public.background;
paths = (
{
closed = 1;
nodes = (
"131 648 OFFCURVE",
"206 693 OFFCURVE",
"302 693 CURVE",
"435 693 OFFCURVE",
"474 609 OFFCURVE",
"478 559 CURVE",
"498 559 LINE",
"494 627 OFFCURVE",
"437 711 OFFCURVE",
"305 711 CURVE",
"184 711 OFFCURVE",
"110 645 OFFCURVE",
"96 563 CURVE SMOOTH",
"48 281 OFFCURVE",
"474 436 OFFCURVE",
"426 159 CURVE SMOOTH",
"412 79 OFFCURVE",
"347 11 OFFCURVE",
"237 11 CURVE SMOOTH",
"91 11 OFFCURVE",
"51 111 OFFCURVE",
"53 169 CURVE",
"33 169 LINE",
"29 86 OFFCURVE",
"96 -7 OFFCURVE",
"234 -7 CURVE SMOOTH",
"368 -7 OFFCURVE",
"433 82 OFFCURVE",
"446 159 CURVE SMOOTH",
"496 454 OFFCURVE",
"69 299 OFFCURVE",
"116 563 CURVE SMOOTH"
);
}
);
width = 536;
},
{
layerId = "4DB8C1DB-135D-4124-8C04-65EC99FCBCEB";
name = public.background;
paths = (
{
closed = 1;
nodes = (
"428 -7 OFFCURVE",
"530 76 OFFCURVE",
"530 193 CURVE SMOOTH",
"530 404 OFFCURVE",
"204 380 OFFCURVE",
"204 513 CURVE SMOOTH",
"204 574 OFFCURVE",
"255 611 OFFCURVE",
"331 611 CURVE SMOOTH",
"407 611 OFFCURVE",
"445 567 OFFCURVE",
"440 515 CURVE",
"560 515 LINE",
"566 629 OFFCURVE",
"480 704 OFFCURVE",
"336 704 CURVE SMOOTH",
"192 704 OFFCURVE",
"85 624 OFFCURVE",
"88 494 CURVE SMOOTH",
"93 283 OFFCURVE",
"412 322 OFFCURVE",
"412 184 CURVE SMOOTH",
"412 118 OFFCURVE",
"360 85 OFFCURVE",
"280 85 CURVE SMOOTH",
"201 85 OFFCURVE",
"159 133 OFFCURVE",
"164 192 CURVE",
"51 192 LINE",
"35 65 OFFCURVE",
"140 -7 OFFCURVE",
"275 -7 CURVE SMOOTH"
);
}
);
width = 536;
},
{
layerId = "4DB8C1DB-135D-4124-8C04-65EC99FCBCEB";
name = public.background;
paths = (
{
closed = 1;
nodes = (
"486 -7 OFFCURVE",
"592 92 OFFCURVE",
"592 221 CURVE SMOOTH",
"592 424 OFFCURVE",
"310 426 OFFCURVE",
"310 511 CURVE SMOOTH",
"310 533 OFFCURVE",
"327 547 OFFCURVE",
"349 547 CURVE SMOOTH",
"378 547 OFFCURVE",
"395 528 OFFCURVE",
"388 491 CURVE",
"627 491 LINE",
"628 499 OFFCURVE",
"628 507 OFFCURVE",
"628 514 CURVE SMOOTH",
"628 648 OFFCURVE",
"519 720 OFFCURVE",
"362 720 CURVE SMOOTH",
"191 720 OFFCURVE",
"67 634 OFFCURVE",
"67 480 CURVE SMOOTH",
"67 276 OFFCURVE",
"350 291 OFFCURVE",
"350 201 CURVE SMOOTH",
"350 178 OFFCURVE",
"331 166 OFFCURVE",
"308 166 CURVE SMOOTH",
"269 166 OFFCURVE",
"253 186 OFFCURVE",
"257 227 CURVE",
"21 227 LINE",
"20 218 OFFCURVE",
"20 209 OFFCURVE",
"20 200 CURVE SMOOTH",
"20 52 OFFCURVE",
"144 -7 OFFCURVE",
"304 -7 CURVE SMOOTH"
);
}
);
width = 536;
},
{
layerId = "4DB8C1DB-135D-4124-8C04-65EC99FCBCEB";
name = public.background;
paths = (
{
closed = 1;
nodes = (
"268 537 OFFCURVE",
"282 547 OFFCURVE",
"300 547 CURVE SMOOTH",
"321 547 OFFCURVE",
"342 536 OFFCURVE",
"346 491 CURVE",
"585 491 LINE",
"575 641 OFFCURVE",
"469 720 OFFCURVE",
"301 720 CURVE SMOOTH",
"150 720 OFFCURVE",
"30 646 OFFCURVE",
"30 504 CURVE",
"30 253 OFFCURVE",
"360 297 OFFCURVE",
"360 201 CURVE SMOOTH",
"360 177 OFFCURVE",
"344 166 OFFCURVE",
"322 166 CURVE SMOOTH",
"300 166 OFFCURVE",
"272 175 OFFCURVE",
"268 227 CURVE",
"32 227 LINE",
"42 68 OFFCURVE",
"169 -7 OFFCURVE",
"331 -7 CURVE SMOOTH",
"502 -7 OFFCURVE",
"597 89 OFFCURVE",
"597 209 CURVE SMOOTH",
"597 457 OFFCURVE",
"268 422 OFFCURVE",
"268 513 CURVE SMOOTH"
);
}
);
width = 536;
},
{
anchors = (
{
name = bottom;
position = "{313, 0}";
},
{
name = top;
position = "{313, 711}";
}
);
layerId = "BB8AC870-C874-407B-AC42-534954A140D1";
paths = (
{
closed = 1;
nodes = (
"498 -7 OFFCURVE",
"597 89 OFFCURVE",
"597 219 CURVE SMOOTH",
"597 437 OFFCURVE",
"268 422 OFFCURVE",
"268 511 CURVE SMOOTH",
"268 535 OFFCURVE",
"282 547 OFFCURVE",
"300 547 CURVE SMOOTH",
"324 547 OFFCURVE",
"347 534 OFFCURVE",
"349 491 CURVE",
"588 491 LINE",
"582 638 OFFCURVE",
"472 720 OFFCURVE",
"301 720 CURVE SMOOTH",
"150 720 OFFCURVE",
"30 646 OFFCURVE",
"30 504 CURVE",
"26 262 OFFCURVE",
"360 297 OFFCURVE",
"361 201 CURVE SMOOTH",
"361 176 OFFCURVE",
"340 166 OFFCURVE",
"318 166 CURVE SMOOTH",
"296 166 OFFCURVE",
"268 175 OFFCURVE",
"264 227 CURVE",
"28 227 LINE",
"38 68 OFFCURVE",
"165 -7 OFFCURVE",
"327 -7 CURVE SMOOTH"
);
}
);
width = 625;
},
{
anchors = (
{
name = bottom;
position = "{304, -7}";
},
{
name = top;
position = "{299, 704}";
}
);
layerId = "9F449CCD-E345-45F6-B35A-9ED3AC8C514F";
paths = (
{
closed = 1;
nodes = (
"459 -7 OFFCURVE",
"544 93 OFFCURVE",
"544 197 CURVE SMOOTH",
"544 451 OFFCURVE",
"176 353 OFFCURVE",
"176 510 CURVE SMOOTH",
"176 577 OFFCURVE",
"227 609 OFFCURVE",
"293 607 CURVE SMOOTH",
"365 605 OFFCURVE",
"406 562 OFFCURVE",
"410 515 CURVE",
"536 515 LINE",
"526 634 OFFCURVE",
"432 704 OFFCURVE",
"299 704 CURVE SMOOTH",
"157 704 OFFCURVE",
"60 628 OFFCURVE",
"60 506 CURVE SMOOTH",
"60 250 OFFCURVE",
"429 359 OFFCURVE",
"429 191 CURVE SMOOTH",
"429 132 OFFCURVE",
"384 89 OFFCURVE",
"304 89 CURVE SMOOTH",
"225 89 OFFCURVE",
"185 135 OFFCURVE",
"180 192 CURVE",
"58 192 LINE",
"58 69 OFFCURVE",
"165 -7 OFFCURVE",
"304 -7 CURVE SMOOTH"
);
}
);
width = 604;
},
{
anchors = (
{
name = bottom;
position = "{267, 0}";
},
{
name = top;
position = "{267, 683}";
}
);
layerId = "C750DB68-0E3A-4F82-99EB-66CF08B4C668";
paths = (
{
closed = 1;
nodes = (
"418 -7 OFFCURVE",
"486 85 OFFCURVE",
"486 170 CURVE SMOOTH",
"486 437 OFFCURVE",
"85 283 OFFCURVE",
"85 536 CURVE SMOOTH",
"85 633 OFFCURVE",
"171 693 OFFCURVE",
"272 693 CURVE SMOOTH",
"397 693 OFFCURVE",
"451 613 OFFCURVE",
"463 563 CURVE",
"483 563 LINE",
"468 631 OFFCURVE",
"404 711 OFFCURVE",
"272 711 CURVE SMOOTH",
"145 711 OFFCURVE",
"65 628 OFFCURVE",
"65 536 CURVE SMOOTH",
"65 265 OFFCURVE",
"466 419 OFFCURVE",
"466 170 CURVE SMOOTH",
"466 83 OFFCURVE",
"394 11 OFFCURVE",
"278 11 CURVE SMOOTH",
"127 11 OFFCURVE",
"81 108 OFFCURVE",
"73 166 CURVE",
"53 166 LINE",
"63 77 OFFCURVE",
"137 -7 OFFCURVE",
"278 -7 CURVE SMOOTH"
);
}
);
width = 536;
}
);
unicode = 0053;
},
{
glyphname = Sacute;
layers = (
{
layerId = "BB8AC870-C874-407B-AC42-534954A140D1";
paths = (
{
closed = 1;
nodes = (
"498 -7 OFFCURVE",
"597 89 OFFCURVE",
"597 219 CURVE SMOOTH",
"597 437 OFFCURVE",
"268 422 OFFCURVE",
"268 511 CURVE SMOOTH",
"268 535 OFFCURVE",
"282 547 OFFCURVE",
"300 547 CURVE SMOOTH",
"324 547 OFFCURVE",
"347 534 OFFCURVE",
"349 491 CURVE",
"588 491 LINE",
"582 638 OFFCURVE",
"472 720 OFFCURVE",
"301 720 CURVE SMOOTH",
"150 720 OFFCURVE",
"30 646 OFFCURVE",
"30 504 CURVE",
"26 262 OFFCURVE",
"360 297 OFFCURVE",
"361 201 CURVE SMOOTH",
"361 176 OFFCURVE",
"340 166 OFFCURVE",
"318 166 CURVE SMOOTH",
"296 166 OFFCURVE",
"268 175 OFFCURVE",
"264 227 CURVE",
"28 227 LINE",
"38 68 OFFCURVE",
"165 -7 OFFCURVE",
"327 -7 CURVE SMOOTH"
);
},
{
closed = 1;
nodes = (
"182 897 LINE",
"182 749 LINE",
"441 843 LINE",
"441 1007 LINE"
);
}
);
width = 625;
},
{
layerId = "9F449CCD-E345-45F6-B35A-9ED3AC8C514F";
paths = (
{
closed = 1;
nodes = (
"459 -7 OFFCURVE",
"544 93 OFFCURVE",
"544 197 CURVE SMOOTH",
"544 451 OFFCURVE",
"176 353 OFFCURVE",
"176 510 CURVE SMOOTH",
"176 577 OFFCURVE",
"227 609 OFFCURVE",
"293 607 CURVE SMOOTH",
"365 605 OFFCURVE",
"406 562 OFFCURVE",
"410 515 CURVE",
"536 515 LINE",
"526 634 OFFCURVE",
"432 704 OFFCURVE",
"299 704 CURVE SMOOTH",
"157 704 OFFCURVE",
"60 628 OFFCURVE",
"60 506 CURVE SMOOTH",
"60 250 OFFCURVE",
"429 359 OFFCURVE",
"429 191 CURVE SMOOTH",
"429 132 OFFCURVE",
"384 89 OFFCURVE",
"304 89 CURVE SMOOTH",
"225 89 OFFCURVE",
"185 135 OFFCURVE",
"180 192 CURVE",
"58 192 LINE",
"58 69 OFFCURVE",
"165 -7 OFFCURVE",
"304 -7 CURVE SMOOTH"
);
},
{
closed = 1;
nodes = (
"181 827 LINE",
"181 743 LINE",
"402 852 LINE",
"402 949 LINE"
);
}
);
width = 604;
},
{
layerId = "C750DB68-0E3A-4F82-99EB-66CF08B4C668";
paths = (
{
closed = 1;
nodes = (
"418 -7 OFFCURVE",
"486 85 OFFCURVE",
"486 170 CURVE SMOOTH",
"486 437 OFFCURVE",
"85 283 OFFCURVE",
"85 536 CURVE SMOOTH",
"85 633 OFFCURVE",
"171 693 OFFCURVE",
"272 693 CURVE SMOOTH",
"397 693 OFFCURVE",
"451 613 OFFCURVE",
"463 563 CURVE",
"483 563 LINE",
"468 631 OFFCURVE",
"404 711 OFFCURVE",
"272 711 CURVE SMOOTH",
"145 711 OFFCURVE",
"65 628 OFFCURVE",
"65 536 CURVE SMOOTH",
"65 265 OFFCURVE",
"466 419 OFFCURVE",
"466 170 CURVE SMOOTH",
"466 83 OFFCURVE",
"394 11 OFFCURVE",
"278 11 CURVE SMOOTH",
"127 11 OFFCURVE",
"81 108 OFFCURVE",
"73 166 CURVE",
"53 166 LINE",
"63 77 OFFCURVE",
"137 -7 OFFCURVE",
"278 -7 CURVE SMOOTH"
);
},
{
closed = 1;
nodes = (
"160 749 LINE",
"160 729 LINE",
"347 859 LINE",
"347 883 LINE"
);
}
);
width = 536;
}
);
unicode = 015A;
},
{
glyphname = Scaron;
layers = (
{
layerId = "BB8AC870-C874-407B-AC42-534954A140D1";
paths = (
{
closed = 1;
nodes = (
"498 -7 OFFCURVE",
"597 89 OFFCURVE",
"597 219 CURVE SMOOTH",
"597 437 OFFCURVE",
"268 422 OFFCURVE",
"268 511 CURVE SMOOTH",
"268 535 OFFCURVE",
"282 547 OFFCURVE",
"300 547 CURVE SMOOTH",
"324 547 OFFCURVE",
"347 534 OFFCURVE",
"349 491 CURVE",
"588 491 LINE",
"582 638 OFFCURVE",
"472 720 OFFCURVE",
"301 720 CURVE SMOOTH",
"150 720 OFFCURVE",
"30 646 OFFCURVE",
"30 504 CURVE",
"26 262 OFFCURVE",
"360 297 OFFCURVE",
"361 201 CURVE SMOOTH",
"361 176 OFFCURVE",
"340 166 OFFCURVE",
"318 166 CURVE SMOOTH",
"296 166 OFFCURVE",
"268 175 OFFCURVE",
"264 227 CURVE",
"28 227 LINE",
"38 68 OFFCURVE",
"165 -7 OFFCURVE",
"327 -7 CURVE SMOOTH"
);
},
{
closed = 1;
nodes = (
"313 880 LINE",
"147 968 LINE",
"147 824 LINE",
"313 749 LINE",
"478 824 LINE",
"478 968 LINE"
);
}
);
width = 625;
},
{
layerId = "9F449CCD-E345-45F6-B35A-9ED3AC8C514F";
paths = (
{
closed = 1;
nodes = (
"459 -7 OFFCURVE",
"544 93 OFFCURVE",
"544 197 CURVE SMOOTH",
"544 451 OFFCURVE",
"176 353 OFFCURVE",
"176 510 CURVE SMOOTH",
"176 577 OFFCURVE",
"227 609 OFFCURVE",
"293 607 CURVE SMOOTH",
"365 605 OFFCURVE",
"406 562 OFFCURVE",
"410 515 CURVE",
"536 515 LINE",
"526 634 OFFCURVE",
"432 704 OFFCURVE",
"299 704 CURVE SMOOTH",
"157 704 OFFCURVE",
"60 628 OFFCURVE",
"60 506 CURVE SMOOTH",
"60 250 OFFCURVE",
"429 359 OFFCURVE",
"429 191 CURVE SMOOTH",
"429 132 OFFCURVE",
"384 89 OFFCURVE",
"304 89 CURVE SMOOTH",
"225 89 OFFCURVE",
"185 135 OFFCURVE",
"180 192 CURVE",
"58 192 LINE",
"58 69 OFFCURVE",
"165 -7 OFFCURVE",
"304 -7 CURVE SMOOTH"
);
},
{
closed = 1;
nodes = (
"299 829 LINE",
"156 915 LINE",
"156 826 LINE",
"299 743 LINE",
"442 826 LINE",
"442 915 LINE"
);
}
);
width = 604;
},
{
layerId = "C750DB68-0E3A-4F82-99EB-66CF08B4C668";
paths = (
{
closed = 1;
nodes = (
"418 -7 OFFCURVE",
"486 85 OFFCURVE",
"486 170 CURVE SMOOTH",
"486 437 OFFCURVE",
"85 283 OFFCURVE",
"85 536 CURVE SMOOTH",
"85 633 OFFCURVE",
"171 693 OFFCURVE",
"272 693 CURVE SMOOTH",
"397 693 OFFCURVE",
"451 613 OFFCURVE",
"463 563 CURVE",
"483 563 LINE",
"468 631 OFFCURVE",
"404 711 OFFCURVE",
"272 711 CURVE SMOOTH",
"145 711 OFFCURVE",
"65 628 OFFCURVE",
"65 536 CURVE SMOOTH",
"65 265 OFFCURVE",
"466 419 OFFCURVE",
"466 170 CURVE SMOOTH",
"466 83 OFFCURVE",
"394 11 OFFCURVE",
"278 11 CURVE SMOOTH",
"127 11 OFFCURVE",
"81 108 OFFCURVE",
"73 166 CURVE",
"53 166 LINE",
"63 77 OFFCURVE",
"137 -7 OFFCURVE",
"278 -7 CURVE SMOOTH"
);
},
{
closed = 1;
nodes = (
"267 780 LINE",
"143 861 LINE",
"143 841 LINE",
"267 760 LINE",
"390 841 LINE",
"390 861 LINE"
);
}
);
width = 536;
}
);
unicode = 0160;
},
{
glyphname = Scedilla;
layers = (
{
layerId = "BB8AC870-C874-407B-AC42-534954A140D1";
paths = (
{
closed = 1;
nodes = (
"498 -7 OFFCURVE",
"597 89 OFFCURVE",
"597 219 CURVE SMOOTH",
"597 437 OFFCURVE",
"268 422 OFFCURVE",
"268 511 CURVE SMOOTH",
"268 535 OFFCURVE",
"282 547 OFFCURVE",
"300 547 CURVE SMOOTH",
"324 547 OFFCURVE",
"347 534 OFFCURVE",
"349 491 CURVE",
"588 491 LINE",
"582 638 OFFCURVE",
"472 720 OFFCURVE",
"301 720 CURVE SMOOTH",
"150 720 OFFCURVE",
"30 646 OFFCURVE",
"30 504 CURVE",
"26 262 OFFCURVE",
"360 297 OFFCURVE",
"361 201 CURVE SMOOTH",
"361 176 OFFCURVE",
"340 166 OFFCURVE",
"318 166 CURVE SMOOTH",
"296 166 OFFCURVE",
"268 175 OFFCURVE",
"264 227 CURVE",
"28 227 LINE",
"38 68 OFFCURVE",
"165 -7 OFFCURVE",
"327 -7 CURVE SMOOTH"
);
},
{
closed = 1;
nodes = (
"387 0 LINE",
"259 0 LINE",
"259 -134 LINE",
"344 -134 LINE SMOOTH",
"360 -134 OFFCURVE",
"370 -139 OFFCURVE",
"370 -149 CURVE SMOOTH",
"370 -159 OFFCURVE",
"360 -165 OFFCURVE",
"344 -165 CURVE SMOOTH",
"194 -165 LINE",
"194 -278 LINE",
"367 -278 LINE SMOOTH",
"434 -278 OFFCURVE",
"517 -251 OFFCURVE",
"517 -156 CURVE SMOOTH",
"517 -61 OFFCURVE",
"435 -34 OFFCURVE",
"387 -34 CURVE"
);
}
);
width = 625;
},
{
layerId = "9F449CCD-E345-45F6-B35A-9ED3AC8C514F";
paths = (
{
closed = 1;
nodes = (
"459 -7 OFFCURVE",
"544 93 OFFCURVE",
"544 197 CURVE SMOOTH",
"544 451 OFFCURVE",
"176 353 OFFCURVE",
"176 510 CURVE SMOOTH",
"176 577 OFFCURVE",
"227 609 OFFCURVE",
"293 607 CURVE SMOOTH",
"365 605 OFFCURVE",
"406 562 OFFCURVE",
"410 515 CURVE",
"536 515 LINE",
"526 634 OFFCURVE",
"432 704 OFFCURVE",
"299 704 CURVE SMOOTH",
"157 704 OFFCURVE",
"60 628 OFFCURVE",
"60 506 CURVE SMOOTH",
"60 250 OFFCURVE",
"429 359 OFFCURVE",
"429 191 CURVE SMOOTH",
"429 132 OFFCURVE",
"384 89 OFFCURVE",
"304 89 CURVE SMOOTH",
"225 89 OFFCURVE",
"185 135 OFFCURVE",
"180 192 CURVE",
"58 192 LINE",
"58 69 OFFCURVE",
"165 -7 OFFCURVE",
"304 -7 CURVE SMOOTH"
);
},
{
closed = 1;
nodes = (
"345 0 LINE",
"270 0 LINE",
"270 -123 LINE",
"325 -123 LINE SMOOTH",
"360 -123 OFFCURVE",
"381 -130 OFFCURVE",
"381 -160 CURVE SMOOTH",
"381 -190 OFFCURVE",
"360 -197 OFFCURVE",
"325 -197 CURVE SMOOTH",
"216 -197 LINE",
"216 -269 LINE",
"348 -269 LINE SMOOTH",
"419 -269 OFFCURVE",
"475 -228 OFFCURVE",
"475 -160 CURVE SMOOTH",
"475 -91 OFFCURVE",
"419 -55 OFFCURVE",
"345 -55 CURVE"
);
}
);
width = 604;
},
{
layerId = "C750DB68-0E3A-4F82-99EB-66CF08B4C668";
paths = (
{
closed = 1;
nodes = (
"418 -7 OFFCURVE",
"486 85 OFFCURVE",
"486 170 CURVE SMOOTH",
"486 437 OFFCURVE",
"85 283 OFFCURVE",
"85 536 CURVE SMOOTH",
"85 633 OFFCURVE",
"171 693 OFFCURVE",
"272 693 CURVE SMOOTH",
"397 693 OFFCURVE",
"451 613 OFFCURVE",
"463 563 CURVE",
"483 563 LINE",
"468 631 OFFCURVE",
"404 711 OFFCURVE",
"272 711 CURVE SMOOTH",
"145 711 OFFCURVE",
"65 628 OFFCURVE",
"65 536 CURVE SMOOTH",
"65 265 OFFCURVE",
"466 419 OFFCURVE",
"466 170 CURVE SMOOTH",
"466 83 OFFCURVE",
"394 11 OFFCURVE",
"278 11 CURVE SMOOTH",
"127 11 OFFCURVE",
"81 108 OFFCURVE",
"73 166 CURVE",
"53 166 LINE",
"63 77 OFFCURVE",
"137 -7 OFFCURVE",
"278 -7 CURVE SMOOTH"
);
},
{
closed = 1;
nodes = (
"279 7 LINE",
"259 7 LINE",
"259 -107 LINE",
"296 -107 LINE SMOOTH",
"363 -107 OFFCURVE",
"385 -135 OFFCURVE",
"385 -168 CURVE SMOOTH",
"385 -207 OFFCURVE",
"363 -235 OFFCURVE",
"296 -235 CURVE SMOOTH",
"236 -235 LINE",
"236 -254 LINE",
"299 -254 LINE SMOOTH",
"369 -254 OFFCURVE",
"405 -218 OFFCURVE",
"405 -168 CURVE SMOOTH",
"405 -114 OFFCURVE",
"362 -84 OFFCURVE",
"279 -89 CURVE"
);
}
);
width = 536;
}
);
unicode = 015E;
},
{
glyphname = Scommaaccent;
layers = (
{
anchors = (
{
name = _bottom;
position = "{343, 0}";
}
);
layerId = "BB8AC870-C874-407B-AC42-534954A140D1";
paths = (
{
closed = 1;
nodes = (
"263 -35 LINE",
"263 -182 LINE",
"335 -182 LINE",
"335 -193 LINE SMOOTH",
"335 -245 OFFCURVE",
"315 -268 OFFCURVE",
"280 -268 CURVE",
"280 -346 LINE",
"394 -346 OFFCURVE",
"445 -266 OFFCURVE",
"445 -170 CURVE SMOOTH",
"445 -128 OFFCURVE",
"437 -82 OFFCURVE",
"419 -35 CURVE"
);
},
{
closed = 1;
nodes = (
"498 -7 OFFCURVE",
"597 89 OFFCURVE",
"597 219 CURVE SMOOTH",
"597 437 OFFCURVE",
"268 422 OFFCURVE",
"268 511 CURVE SMOOTH",
"268 535 OFFCURVE",
"282 547 OFFCURVE",
"300 547 CURVE SMOOTH",
"324 547 OFFCURVE",
"347 534 OFFCURVE",
"349 491 CURVE",
"588 491 LINE",
"582 638 OFFCURVE",
"472 720 OFFCURVE",
"301 720 CURVE SMOOTH",
"150 720 OFFCURVE",
"30 646 OFFCURVE",
"30 504 CURVE",
"26 262 OFFCURVE",
"360 297 OFFCURVE",
"361 201 CURVE SMOOTH",
"361 176 OFFCURVE",
"340 166 OFFCURVE",
"318 166 CURVE SMOOTH",
"296 166 OFFCURVE",
"268 175 OFFCURVE",
"264 227 CURVE",
"28 227 LINE",
"38 68 OFFCURVE",
"165 -7 OFFCURVE",
"327 -7 CURVE SMOOTH"
);
}
);
width = 685;
},
{
anchors = (
{
name = _bottom;
position = "{303, 0}";
}
);
layerId = "9F449CCD-E345-45F6-B35A-9ED3AC8C514F";
paths = (
{
closed = 1;
nodes = (
"248 -46 LINE",
"248 -142 LINE",
"301 -142 LINE",
"301 -163 LINE SMOOTH",
"301 -201 OFFCURVE",
"286 -220 OFFCURVE",
"252 -220 CURVE",
"252 -270 LINE",
"327 -270 OFFCURVE",
"365 -228 OFFCURVE",
"365 -145 CURVE SMOOTH",
"365 -116 OFFCURVE",
"361 -83 OFFCURVE",
"351 -46 CURVE"
);
},
{
closed = 1;
nodes = (
"459 -7 OFFCURVE",
"544 93 OFFCURVE",
"544 197 CURVE SMOOTH",
"544 451 OFFCURVE",
"176 353 OFFCURVE",
"176 510 CURVE SMOOTH",
"176 577 OFFCURVE",
"227 609 OFFCURVE",
"293 607 CURVE SMOOTH",
"365 605 OFFCURVE",
"406 562 OFFCURVE",
"410 515 CURVE",
"536 515 LINE",
"526 634 OFFCURVE",
"432 704 OFFCURVE",
"299 704 CURVE SMOOTH",
"157 704 OFFCURVE",
"60 628 OFFCURVE",
"60 506 CURVE SMOOTH",
"60 250 OFFCURVE",
"429 359 OFFCURVE",
"429 191 CURVE SMOOTH",
"429 132 OFFCURVE",
"384 89 OFFCURVE",
"304 89 CURVE SMOOTH",
"225 89 OFFCURVE",
"185 135 OFFCURVE",
"180 192 CURVE",
"58 192 LINE",
"58 69 OFFCURVE",
"165 -7 OFFCURVE",
"304 -7 CURVE SMOOTH"
);
}
);
width = 604;
},
{
anchors = (
{
name = _bottom;
position = "{291, -7}";
}
);
layerId = "C750DB68-0E3A-4F82-99EB-66CF08B4C668";
paths = (
{
closed = 1;
nodes = (
"267 -59 LINE",
"267 -97 LINE",
"298 -97 LINE",
"298 -104 LINE SMOOTH",
"298 -137 OFFCURVE",
"287 -158 OFFCURVE",
"255 -158 CURVE",
"255 -176 LINE",
"291 -176 OFFCURVE",
"320 -161 OFFCURVE",
"320 -90 CURVE SMOOTH",
"320 -81 OFFCURVE",
"319 -68 OFFCURVE",
"318 -59 CURVE"
);
},
{
closed = 1;
nodes = (
"418 -7 OFFCURVE",
"486 85 OFFCURVE",
"486 170 CURVE SMOOTH",
"486 437 OFFCURVE",
"85 283 OFFCURVE",
"85 536 CURVE SMOOTH",
"85 633 OFFCURVE",
"171 693 OFFCURVE",
"272 693 CURVE SMOOTH",
"397 693 OFFCURVE",
"451 613 OFFCURVE",
"463 563 CURVE",
"483 563 LINE",
"468 631 OFFCURVE",
"404 711 OFFCURVE",
"272 711 CURVE SMOOTH",
"145 711 OFFCURVE",
"65 628 OFFCURVE",
"65 536 CURVE SMOOTH",
"65 265 OFFCURVE",
"466 419 OFFCURVE",
"466 170 CURVE SMOOTH",
"466 83 OFFCURVE",
"394 11 OFFCURVE",
"278 11 CURVE SMOOTH",
"127 11 OFFCURVE",
"81 108 OFFCURVE",
"73 166 CURVE",
"53 166 LINE",
"63 77 OFFCURVE",
"137 -7 OFFCURVE",
"278 -7 CURVE SMOOTH"
);
}
);
width = 536;
}
);
unicode = 0218;
},
{
glyphname = T;
layers = (
{
anchors = (
{
name = bottom;
position = "{303, 0}";
},
{
name = top;
position = "{303, 711}";
}
);
layerId = "BB8AC870-C874-407B-AC42-534954A140D1";
paths = (
{
closed = 1;
nodes = (
"10 532 LINE",
"196 532 LINE",
"196 0 LINE",
"418 0 LINE",
"418 532 LINE",
"606 532 LINE",
"606 708 LINE",
"10 708 LINE"
);
}
);
width = 616;
},
{
anchors = (
{
name = bottom;
position = "{280, 0}";
},
{
name = top;
position = "{282, 696}";
}
);
layerId = "9F449CCD-E345-45F6-B35A-9ED3AC8C514F";
paths = (
{
closed = 1;
nodes = (
"39 602 LINE",
"225 602 LINE",
"225 0 LINE",
"339 0 LINE",
"339 602 LINE",
"524 602 LINE",
"524 695 LINE",
"39 695 LINE"
);
}
);
width = 564;
},
{
anchors = (
{
name = bottom;
position = "{233, 0}";
},
{
name = top;
position = "{236, 683}";
}
);
layerId = "C750DB68-0E3A-4F82-99EB-66CF08B4C668";
paths = (
{
closed = 1;
nodes = (
"20 686 LINE",
"225 686 LINE",
"225 0 LINE",
"245 0 LINE",
"245 686 LINE",
"450 686 LINE",
"450 704 LINE",
"20 704 LINE"
);
}
);
width = 470;
}
);
unicode = 0054;
},
{
glyphname = Tcaron;
layers = (
{
layerId = "BB8AC870-C874-407B-AC42-534954A140D1";
paths = (
{
closed = 1;
nodes = (
"10 532 LINE",
"196 532 LINE",
"196 0 LINE",
"418 0 LINE",
"418 532 LINE",
"606 532 LINE",
"606 708 LINE",
"10 708 LINE"
);
},
{
closed = 1;
nodes = (
"303 880 LINE",
"137 968 LINE",
"137 824 LINE",
"303 749 LINE",
"468 824 LINE",
"468 968 LINE"
);
}
);
width = 616;
},
{
layerId = "9F449CCD-E345-45F6-B35A-9ED3AC8C514F";
paths = (
{
closed = 1;
nodes = (
"39 602 LINE",
"225 602 LINE",
"225 0 LINE",
"339 0 LINE",
"339 602 LINE",
"524 602 LINE",
"524 695 LINE",
"39 695 LINE"
);
},
{
closed = 1;
nodes = (
"282 821 LINE",
"139 907 LINE",
"139 818 LINE",
"282 735 LINE",
"425 818 LINE",
"425 907 LINE"
);
}
);
width = 564;
},
{
layerId = "C750DB68-0E3A-4F82-99EB-66CF08B4C668";
paths = (
{
closed = 1;
nodes = (
"20 686 LINE",
"225 686 LINE",
"225 0 LINE",
"245 0 LINE",
"245 686 LINE",
"450 686 LINE",
"450 704 LINE",
"20 704 LINE"
);
},
{
closed = 1;
nodes = (
"236 780 LINE",
"112 861 LINE",
"112 841 LINE",
"236 760 LINE",
"359 841 LINE",
"359 861 LINE"
);
}
);
width = 470;
}
);
unicode = 0164;
},
{
glyphname = Tcedilla;
layers = (
{
layerId = "4DB8C1DB-135D-4124-8C04-65EC99FCBCEB";
name = public.background;
paths = (
{
closed = 1;
nodes = (
"20 686 LINE",
"225 686 LINE",
"225 -18 LINE",
"262 -18 LINE SMOOTH",
"329 -18 OFFCURVE",
"351 -46 OFFCURVE",
"351 -79 CURVE SMOOTH",
"351 -118 OFFCURVE",
"329 -145 OFFCURVE",
"262 -145 CURVE SMOOTH",
"202 -145 LINE",
"202 -165 LINE",
"265 -165 LINE SMOOTH",
"335 -165 OFFCURVE",
"371 -129 OFFCURVE",
"371 -79 CURVE SMOOTH",
"371 -28 OFFCURVE",
"333 5 OFFCURVE",
"235 -1 CURVE",
"245 -10 LINE",
"245 686 LINE",
"450 686 LINE",
"450 704 LINE",
"20 704 LINE"
);
}
);
width = 470;
},
{
layerId = "4DB8C1DB-135D-4124-8C04-65EC99FCBCEB";
name = public.background;
paths = (
{
closed = 1;
nodes = (
"39 606 LINE",
"225 606 LINE",
"225 -68 LINE",
"310 -68 LINE SMOOTH",
"344 -68 OFFCURVE",
"361 -81 OFFCURVE",
"361 -107 CURVE SMOOTH",
"361 -133 OFFCURVE",
"344 -145 OFFCURVE",
"310 -145 CURVE SMOOTH",
"166 -145 LINE",
"166 -217 LINE",
"328 -217 LINE SMOOTH",
"403 -217 OFFCURVE",
"455 -175 OFFCURVE",
"455 -107 CURVE SMOOTH",
"455 -34 OFFCURVE",
"396 4 OFFCURVE",
"311 -1 CURVE",
"339 -21 LINE",
"339 606 LINE",
"524 606 LINE",
"524 695 LINE",
"39 695 LINE"
);
}
);
width = 470;
},
{
layerId = "4DB8C1DB-135D-4124-8C04-65EC99FCBCEB";
name = public.background;
paths = (
{
closed = 1;
nodes = (
"10 532 LINE",
"196 532 LINE",
"196 -75 LINE",
"301 -75 LINE SMOOTH",
"317 -75 OFFCURVE",
"322 -80 OFFCURVE",
"322 -90 CURVE SMOOTH",
"322 -100 OFFCURVE",
"317 -106 OFFCURVE",
"301 -106 CURVE SMOOTH",
"151 -106 LINE",
"151 -219 LINE",
"319 -219 LINE",
"386 -219 OFFCURVE",
"469 -192 OFFCURVE",
"469 -97 CURVE",
"469 -47 OFFCURVE",
"446 -16 OFFCURVE",
"393 18 CURVE",
"418 -28 LINE",
"418 532 LINE",
"606 532 LINE",
"606 708 LINE",
"10 708 LINE"
);
}
);
width = 470;
},
{
layerId = "4DB8C1DB-135D-4124-8C04-65EC99FCBCEB";
name = public.background;
paths = (
{
closed = 1;
nodes = (
"10 532 LINE",
"196 532 LINE",
"196 -75 LINE",
"301 -75 LINE SMOOTH",
"317 -75 OFFCURVE",
"322 -80 OFFCURVE",
"322 -90 CURVE SMOOTH",
"322 -100 OFFCURVE",
"317 -106 OFFCURVE",
"301 -106 CURVE SMOOTH",
"151 -106 LINE",
"151 -219 LINE",
"319 -219 LINE",
"386 -219 OFFCURVE",
"469 -192 OFFCURVE",
"469 -97 CURVE",
"469 -47 OFFCURVE",
"446 -16 OFFCURVE",
"393 18 CURVE",
"418 -28 LINE",
"418 532 LINE",
"606 532 LINE",
"606 708 LINE",
"10 708 LINE"
);
}
);
width = 470;
},
{
layerId = "BB8AC870-C874-407B-AC42-534954A140D1";
paths = (
{
closed = 1;
nodes = (
"10 532 LINE",
"196 532 LINE",
"196 0 LINE",
"418 0 LINE",
"418 532 LINE",
"606 532 LINE",
"606 708 LINE",
"10 708 LINE"
);
},
{
closed = 1;
nodes = (
"377 0 LINE",
"249 0 LINE",
"249 -134 LINE",
"334 -134 LINE SMOOTH",
"350 -134 OFFCURVE",
"360 -139 OFFCURVE",
"360 -149 CURVE SMOOTH",
"360 -159 OFFCURVE",
"350 -165 OFFCURVE",
"334 -165 CURVE SMOOTH",
"184 -165 LINE",
"184 -278 LINE",
"357 -278 LINE SMOOTH",
"424 -278 OFFCURVE",
"507 -251 OFFCURVE",
"507 -156 CURVE SMOOTH",
"507 -61 OFFCURVE",
"425 -34 OFFCURVE",
"377 -34 CURVE"
);
}
);
width = 616;
},
{
layerId = "4DB8C1DB-135D-4124-8C04-65EC99FCBCEB";
name = public.background;
paths = (
{
closed = 1;
nodes = (
"39 606 LINE",
"225 606 LINE",
"225 -68 LINE",
"310 -68 LINE SMOOTH",
"344 -68 OFFCURVE",
"361 -81 OFFCURVE",
"361 -107 CURVE SMOOTH",
"361 -133 OFFCURVE",
"344 -145 OFFCURVE",
"310 -145 CURVE SMOOTH",
"166 -145 LINE",
"166 -217 LINE",
"328 -217 LINE SMOOTH",
"403 -217 OFFCURVE",
"455 -175 OFFCURVE",
"455 -107 CURVE SMOOTH",
"455 -34 OFFCURVE",
"396 4 OFFCURVE",
"311 -1 CURVE",
"339 -21 LINE",
"339 606 LINE",
"524 606 LINE",
"524 695 LINE",
"39 695 LINE"
);
}
);
width = 470;
},
{
layerId = "9F449CCD-E345-45F6-B35A-9ED3AC8C514F";
paths = (
{
closed = 1;
nodes = (
"39 602 LINE",
"225 602 LINE",
"225 0 LINE",
"339 0 LINE",
"339 602 LINE",
"524 602 LINE",
"524 695 LINE",
"39 695 LINE"
);
},
{
closed = 1;
nodes = (
"321 7 LINE",
"246 7 LINE",
"246 -116 LINE",
"301 -116 LINE SMOOTH",
"336 -116 OFFCURVE",
"357 -123 OFFCURVE",
"357 -153 CURVE SMOOTH",
"357 -183 OFFCURVE",
"336 -190 OFFCURVE",
"301 -190 CURVE SMOOTH",
"192 -190 LINE",
"192 -262 LINE",
"324 -262 LINE SMOOTH",
"395 -262 OFFCURVE",
"451 -221 OFFCURVE",
"451 -153 CURVE SMOOTH",
"451 -84 OFFCURVE",
"395 -48 OFFCURVE",
"321 -48 CURVE"
);
}
);
width = 564;
},
{
layerId = "4DB8C1DB-135D-4124-8C04-65EC99FCBCEB";
name = public.background;
paths = (
{
closed = 1;
nodes = (
"20 686 LINE",
"225 686 LINE",
"225 -18 LINE",
"262 -18 LINE SMOOTH",
"329 -18 OFFCURVE",
"351 -46 OFFCURVE",
"351 -79 CURVE SMOOTH",
"351 -118 OFFCURVE",
"329 -145 OFFCURVE",
"262 -145 CURVE SMOOTH",
"202 -145 LINE",
"202 -165 LINE",
"265 -165 LINE SMOOTH",
"335 -165 OFFCURVE",
"371 -129 OFFCURVE",
"371 -79 CURVE SMOOTH",
"371 -28 OFFCURVE",
"333 5 OFFCURVE",
"235 -1 CURVE",
"245 -10 LINE",
"245 686 LINE",
"450 686 LINE",
"450 704 LINE",
"20 704 LINE"
);
}
);
width = 470;
},
{
layerId = "C750DB68-0E3A-4F82-99EB-66CF08B4C668";
paths = (
{
closed = 1;
nodes = (
"20 686 LINE",
"225 686 LINE",
"225 0 LINE",
"245 0 LINE",
"245 686 LINE",
"450 686 LINE",
"450 704 LINE",
"20 704 LINE"
);
},
{
closed = 1;
nodes = (
"245 7 LINE",
"225 7 LINE",
"225 -107 LINE",
"262 -107 LINE SMOOTH",
"329 -107 OFFCURVE",
"351 -135 OFFCURVE",
"351 -168 CURVE SMOOTH",
"351 -207 OFFCURVE",
"329 -235 OFFCURVE",
"262 -235 CURVE SMOOTH",
"202 -235 LINE",
"202 -254 LINE",
"265 -254 LINE SMOOTH",
"335 -254 OFFCURVE",
"371 -218 OFFCURVE",
"371 -168 CURVE SMOOTH",
"371 -114 OFFCURVE",
"328 -84 OFFCURVE",
"245 -89 CURVE"
);
}
);
width = 470;
}
);
unicode = 0162;
},
{
glyphname = Tcommaaccent;
layers = (
{
layerId = "BB8AC870-C874-407B-AC42-534954A140D1";
paths = (
{
closed = 1;
nodes = (
"229 -35 LINE",
"229 -182 LINE",
"301 -182 LINE",
"301 -193 LINE SMOOTH",
"301 -245 OFFCURVE",
"280 -268 OFFCURVE",
"246 -268 CURVE",
"246 -346 LINE",
"359 -346 OFFCURVE",
"410 -266 OFFCURVE",
"410 -170 CURVE SMOOTH",
"410 -128 OFFCURVE",
"403 -82 OFFCURVE",
"385 -35 CURVE"
);
},
{
closed = 1;
nodes = (
"10 532 LINE",
"196 532 LINE",
"196 0 LINE",
"418 0 LINE",
"418 532 LINE",
"606 532 LINE",
"606 708 LINE",
"10 708 LINE"
);
}
);
width = 616;
},
{
layerId = "9F449CCD-E345-45F6-B35A-9ED3AC8C514F";
paths = (
{
closed = 1;
nodes = (
"228 -46 LINE",
"228 -142 LINE",
"281 -142 LINE",
"281 -163 LINE SMOOTH",
"281 -201 OFFCURVE",
"265 -220 OFFCURVE",
"232 -220 CURVE",
"232 -270 LINE",
"306 -270 OFFCURVE",
"344 -228 OFFCURVE",
"344 -145 CURVE SMOOTH",
"344 -116 OFFCURVE",
"340 -83 OFFCURVE",
"331 -46 CURVE"
);
},
{
closed = 1;
nodes = (
"39 602 LINE",
"225 602 LINE",
"225 0 LINE",
"339 0 LINE",
"339 602 LINE",
"524 602 LINE",
"524 695 LINE",
"39 695 LINE"
);
}
);
width = 564;
},
{
layerId = "C750DB68-0E3A-4F82-99EB-66CF08B4C668";
paths = (
{
closed = 1;
nodes = (
"207 -59 LINE",
"207 -97 LINE",
"238 -97 LINE",
"238 -104 LINE SMOOTH",
"238 -137 OFFCURVE",
"227 -158 OFFCURVE",
"195 -158 CURVE",
"195 -176 LINE",
"231 -176 OFFCURVE",
"260 -161 OFFCURVE",
"260 -90 CURVE SMOOTH",
"260 -81 OFFCURVE",
"259 -68 OFFCURVE",
"258 -59 CURVE"
);
},
{
closed = 1;
nodes = (
"20 686 LINE",
"225 686 LINE",
"225 0 LINE",
"245 0 LINE",
"245 686 LINE",
"450 686 LINE",
"450 704 LINE",
"20 704 LINE"
);
}
);
width = 470;
}
);
unicode = 021A;
},
